<?xml version="1.0" standalone="no"?>
<!DOCTYPE svg PUBLIC "-//W3C//DTD SVG 20010904//EN"
 "http://www.w3.org/TR/2001/REC-SVG-20010904/DTD/svg10.dtd">
<svg version="1.0" xmlns="http://www.w3.org/2000/svg"
 width="3334.000000pt" height="3334.000000pt" viewBox="0 0 3334.000000 3334.000000"
 preserveAspectRatio="xMidYMid meet">
<metadata>
Created by potrace 1.16, written by Peter Selinger 2001-2019
</metadata>
<g transform="translate(0.000000,3334.000000) scale(0.100000,-0.100000)"
fill="#000000" stroke="none">
<path d="M10760 27689 c-618 -14 -1030 -62 -1485 -174 -232 -56 -385 -103
-565 -172 -1245 -476 -2200 -1415 -2687 -2643 -211 -532 -313 -1026 -365
-1770 -16 -230 -24 -11391 -8 -12075 14 -650 38 -926 116 -1327 223 -1162 842
-2170 1763 -2872 497 -378 1065 -652 1686 -811 495 -127 854 -168 1630 -185
685 -16 11845 -8 12075 8 742 52 1240 154 1764 362 950 376 1748 1047 2266
1904 412 683 630 1393 705 2298 33 400 36 1064 32 6818 -3 4091 -7 5722 -15
5845 -51 757 -160 1287 -374 1820 -234 582 -563 1086 -997 1529 -460 468 -986
819 -1596 1064 -204 82 -365 134 -590 192 -384 98 -706 146 -1230 182 -198 13
-11558 20 -12125 7z m12120 -37 c259 -17 484 -40 670 -68 959 -147 1762 -510
2465 -1117 61 -52 180 -166 265 -253 773 -791 1222 -1794 1335 -2984 38 -406
38 -372 42 -6155 4 -5730 1 -6453 -32 -6845 -60 -714 -215 -1316 -484 -1875
-221 -458 -533 -898 -896 -1260 -583 -583 -1323 -1007 -2116 -1214 -384 -100
-713 -150 -1214 -183 -246 -16 -11343 -24 -12060 -9 -675 15 -965 42 -1380
127 -900 185 -1699 604 -2344 1229 -614 595 -1051 1352 -1266 2190 -128 498
-169 862 -186 1635 -15 726 -7 11811 9 12055 58 869 202 1461 512 2090 288
587 682 1092 1170 1501 755 633 1622 990 2680 1103 210 23 401 34 730 41 583
12 11897 5 12100 -8z"/>
<path d="M24180 23327 c-240 -102 -983 -471 -1380 -687 -2902 -1571 -5362
-3677 -7250 -6205 -1328 -1778 -2346 -3723 -3031 -5788 -117 -352 -122 -388
-68 -496 17 -33 45 -72 63 -86 122 -93 293 -87 394 15 45 44 62 82 112 240
195 623 517 1451 835 2145 306 670 807 1603 1154 2150 l29 46 43 -82 c350
-672 1219 -1251 2177 -1450 293 -61 698 -86 958 -60 636 65 1099 332 1290 745
53 116 45 174 -29 206 -23 10 -562 207 -1197 438 -635 231 -1168 426 -1185
432 -27 11 -10 16 210 60 635 127 1135 259 1720 454 2222 742 3987 1992 4953
3506 464 728 730 1478 814 2300 17 165 17 697 0 860 -42 398 -101 682 -229
1092 -18 60 -77 127 -139 157 -71 36 -172 39 -244 8z"/>
<path d="M14697 22468 c-10 -8 -29 -58 -46 -123 -103 -391 -346 -850 -695
-1313 -160 -211 -257 -323 -431 -497 -230 -230 -428 -384 -595 -461 -143 -66
-151 -73 -135 -120 8 -21 25 -33 77 -54 624 -253 1560 -1459 1778 -2292 16
-60 34 -116 41 -124 16 -19 63 -18 81 4 9 9 26 58 38 107 135 546 619 1319
1157 1846 231 227 440 383 603 450 41 17 81 36 88 42 17 14 11 78 -8 88 -8 4
-55 26 -105 49 -640 296 -1565 1525 -1745 2320 -7 30 -19 63 -28 73 -18 20
-51 22 -75 5z"/>
</g>
</svg>
