<?xml version="1.0" standalone="no"?>
<!DOCTYPE svg PUBLIC "-//W3C//DTD SVG 20010904//EN"
 "http://www.w3.org/TR/2001/REC-SVG-20010904/DTD/svg10.dtd">
<svg version="1.0" xmlns="http://www.w3.org/2000/svg"
 width="204.000000pt" height="194.000000pt" viewBox="0 0 204.000000 194.000000"
 preserveAspectRatio="xMidYMid meet">

<g transform="translate(0.000000,194.000000) scale(0.100000,-0.100000)"
fill="#000000" stroke="none">
<path d="M1009 1460 c-65 -10 -122 -33 -201 -78 -81 -47 -130 -99 -169 -178
-31 -63 -34 -76 -34 -164 0 -84 3 -101 27 -146 72 -137 235 -191 374 -124 94
46 144 124 143 225 l0 60 -18 -54 c-31 -89 -77 -133 -156 -151 -83 -19 -188
39 -214 118 -17 50 -11 135 13 184 31 64 113 136 211 183 86 42 155 60 310 81
l50 7 -72 18 c-93 22 -194 29 -264 19z m-151 -130 c-31 -28 -75 -78 -97 -113
-51 -78 -54 -62 -3 21 23 38 57 77 91 102 73 55 76 50 9 -10z"/>
<path d="M1075 1220 l20 -8 -20 -7 c-11 -3 -46 -19 -79 -33 -32 -15 -64 -27
-69 -27 -17 0 -56 -63 -68 -108 -12 -45 -4 -106 17 -134 12 -15 13 -15 8 -1
-11 31 25 126 60 162 128 128 353 -6 314 -188 -32 -149 -228 -272 -492 -311
l-81 -11 70 -18 c104 -27 236 -32 315 -12 151 38 264 125 322 246 27 55 32 77
32 145 1 71 -3 88 -32 147 -55 113 -131 161 -257 164 -49 2 -72 -1 -60 -6z
m123 -72 c47 -23 98 -81 118 -136 7 -20 13 -64 12 -97 l0 -60 -9 57 c-17 121
-86 216 -171 239 -70 18 -89 30 -38 23 25 -4 64 -15 88 -26z m-145 15 c-7 -2
-19 -2 -25 0 -7 3 -2 5 12 5 14 0 19 -2 13 -5z"/>
</g>
</svg>
