<svg xmlns="http://www.w3.org/2000/svg" width="4000" height="4000" viewBox="0 0 4000 4000" version="1.1"><path d="M 1981.500 290.439 C 1966.660 293.380, 1956.154 298.469, 1944.867 308.184 C 1933.154 318.265, 1926.101 329.938, 1921.986 346.054 C 1917.800 362.450, 1918.487 372.990, 1924.959 391.657 C 1927.102 397.837, 1927.510 400.114, 1926.643 401.053 C 1925.782 401.988, 1925.792 402.129, 1926.685 401.628 C 1927.977 400.902, 1932.059 405.732, 1934.958 411.418 C 1935.941 413.345, 1936.994 414.673, 1937.298 414.368 C 1937.603 414.064, 1941.280 416.669, 1945.470 420.157 C 1950.642 424.464, 1952.949 427.038, 1952.657 428.175 C 1952.383 429.239, 1952.697 429.670, 1953.516 429.356 C 1955.083 428.754, 1964.488 432.678, 1966.082 434.599 C 1966.711 435.357, 1967.615 435.738, 1968.091 435.444 C 1968.566 435.150, 1972.321 435.605, 1976.435 436.455 C 2001.309 441.593, 2025.966 434.986, 2045.243 418.017 C 2047.712 415.844, 2050.090 414.388, 2050.526 414.783 C 2050.963 415.177, 2050.997 414.938, 2050.601 414.250 C 2050.206 413.563, 2050.284 413, 2050.775 413 C 2051.266 413, 2053.387 410.504, 2055.488 407.452 C 2058.071 403.703, 2059.791 402.090, 2060.796 402.475 C 2061.947 402.917, 2062.030 402.741, 2061.164 401.698 C 2060.319 400.680, 2060.764 398.237, 2062.987 391.703 C 2067.470 378.521, 2069.360 367.829, 2068.574 360.094 C 2065.727 332.088, 2051.387 310.240, 2027.787 297.953 C 2013.725 290.632, 1995.475 287.669, 1981.500 290.439 M 2455.500 1279.638 C 2419.129 1285.128, 2394.240 1310.169, 2388.989 1346.556 C 2387.532 1356.652, 2389.386 1368.808, 2394.431 1382.238 C 2396.299 1387.213, 2397.594 1391.895, 2397.307 1392.642 C 2397.021 1393.389, 2397.218 1394, 2397.745 1394 C 2399.228 1394, 2408.021 1405.636, 2407.214 1406.530 C 2406.821 1406.965, 2407.061 1406.998, 2407.747 1406.603 C 2408.494 1406.174, 2411.208 1407.689, 2414.508 1410.377 C 2417.541 1412.847, 2422.829 1416.558, 2426.261 1418.623 C 2429.692 1420.688, 2432.725 1422.652, 2433 1422.988 C 2433.275 1423.323, 2435.525 1424.177, 2438 1424.885 C 2440.475 1425.593, 2443.568 1426.856, 2444.873 1427.690 C 2446.368 1428.646, 2446.962 1428.748, 2446.479 1427.965 C 2445.894 1427.019, 2446.586 1426.887, 2449.380 1427.412 C 2454.216 1428.319, 2469.457 1428.366, 2474.504 1427.489 C 2492.366 1424.385, 2509.036 1414.942, 2519.929 1401.754 C 2522.770 1398.315, 2527.146 1391.225, 2529.653 1386 C 2532.160 1380.775, 2534.951 1374.958, 2535.855 1373.074 C 2538.353 1367.872, 2537.950 1347.081, 2535.147 1336.500 C 2527.923 1309.231, 2507.521 1288.805, 2480.755 1282.041 C 2472.688 1280.003, 2460.664 1278.859, 2455.500 1279.638 M 1511.007 1281.620 C 1502.376 1283.505, 1487.873 1290.725, 1480.742 1296.686 C 1468.699 1306.753, 1460.039 1320.634, 1455.903 1336.500 C 1447.416 1369.053, 1464 1404.954, 1494.500 1420.052 C 1506.366 1425.925, 1516.197 1428.136, 1529.500 1427.922 C 1545.970 1427.656, 1547 1427.577, 1547 1426.583 C 1547 1426.079, 1547.266 1425.932, 1547.590 1426.257 C 1547.915 1426.582, 1550.053 1426.151, 1552.340 1425.301 C 1554.628 1424.450, 1557.297 1423.782, 1558.272 1423.816 C 1559.246 1423.851, 1559.836 1423.544, 1559.583 1423.134 C 1559.330 1422.724, 1562.132 1420.437, 1565.811 1418.051 C 1575.147 1411.997, 1586.025 1402.388, 1589.977 1396.703 C 1592.195 1393.514, 1593.811 1392.097, 1594.798 1392.476 C 1595.955 1392.920, 1596.033 1392.745, 1595.151 1391.682 C 1594.288 1390.642, 1594.737 1388.202, 1597.042 1381.409 C 1601.824 1367.316, 1603.410 1356.231, 1602.012 1346.670 C 1599.624 1330.335, 1594.393 1318.215, 1584.351 1305.750 C 1581.361 1302.037, 1578.596 1298.992, 1578.207 1298.982 C 1577.818 1298.973, 1575.201 1296.835, 1572.391 1294.232 C 1569.581 1291.630, 1564.754 1288.272, 1561.663 1286.772 C 1558.573 1285.271, 1555.497 1283.167, 1554.828 1282.096 C 1553.788 1280.432, 1553.456 1280.361, 1552.543 1281.610 C 1551.606 1282.891, 1550.570 1282.882, 1544.172 1281.536 C 1535.270 1279.663, 1519.781 1279.702, 1511.007 1281.620 M 413 1416.019 C 384.506 1422.648, 362.988 1443.229, 355.980 1470.558 C 352.767 1483.084, 352.488 1490.985, 354.854 1502.413 C 362.814 1540.856, 394.601 1565.352, 434 1563.404 C 438.675 1563.173, 445.200 1562.133, 448.500 1561.094 C 452.673 1559.779, 454.881 1559.514, 455.750 1560.224 C 456.650 1560.959, 457 1560.815, 457 1559.709 C 457 1558.185, 473.310 1547.667, 475.673 1547.667 C 476.342 1547.667, 476.802 1547.404, 476.695 1547.083 C 476.588 1546.763, 478.634 1544.534, 481.241 1542.131 C 484.703 1538.941, 486.549 1537.910, 488.083 1538.311 C 490.094 1538.837, 490.110 1538.779, 488.450 1536.945 C 486.796 1535.117, 486.832 1534.852, 489.239 1531.214 C 495.844 1521.234, 500.050 1509.746, 502.012 1496.330 C 503.439 1486.574, 501.671 1474.556, 496.934 1461.805 C 495.237 1457.237, 493.750 1453.050, 493.631 1452.500 C 493.511 1451.950, 491.689 1448.925, 489.583 1445.777 C 486.939 1441.827, 485.929 1439.381, 486.320 1437.883 C 486.747 1436.253, 486.603 1435.997, 485.744 1436.856 C 484.043 1438.557, 483.836 1438.459, 476.383 1432.450 C 468.453 1426.056, 454.416 1418.931, 445 1416.522 C 434.738 1413.897, 422.921 1413.711, 413 1416.019 M 3551.834 1415.505 C 3537.475 1418.219, 3523.621 1425.024, 3513.096 1434.532 C 3510.271 1437.085, 3508.474 1438.014, 3507.257 1437.551 C 3505.959 1437.056, 3505.792 1437.175, 3506.616 1438.007 C 3507.438 1438.835, 3507.255 1439.707, 3505.921 1441.316 C 3499.060 1449.594, 3497.686 1450.926, 3496.649 1450.305 C 3496.017 1449.926, 3496.102 1450.359, 3496.838 1451.267 C 3497.978 1452.673, 3497.738 1454.073, 3495.217 1460.709 C 3489.262 1476.386, 3488.654 1479.332, 3489.318 1489.287 C 3491.131 1516.444, 3503.280 1538.165, 3524.241 1551.724 C 3528.099 1554.220, 3531.486 1557.141, 3531.767 1558.216 C 3532.073 1559.386, 3532.546 1559.735, 3532.947 1559.085 C 3533.619 1557.999, 3546.177 1561.536, 3546.773 1562.979 C 3547.414 1564.530, 3573.595 1563.060, 3581.446 1561.033 C 3603.807 1555.260, 3620.655 1541.684, 3630.950 1521.144 C 3643.775 1495.557, 3639.664 1463.955, 3620.488 1440.707 C 3604.688 1421.552, 3575.850 1410.966, 3551.834 1415.505 M 1227.810 2170.064 C 1214.315 2171.595, 1203.024 2176.170, 1190.729 2185.088 C 1187.005 2187.790, 1183.630 2190.021, 1183.229 2190.046 C 1182.828 2190.072, 1181.150 2191.901, 1179.500 2194.111 C 1177.850 2196.321, 1175.503 2199.068, 1174.284 2200.215 C 1173.065 2201.363, 1172.294 2202.667, 1172.570 2203.113 C 1172.846 2203.560, 1171.866 2206.304, 1170.392 2209.213 C 1164.662 2220.518, 1162.781 2227.772, 1162.261 2240.577 C 1161.851 2250.655, 1162.118 2254.048, 1163.875 2261.077 C 1169.489 2283.543, 1183.219 2300.659, 1203.500 2310.475 C 1214.703 2315.898, 1224.805 2318.265, 1236.500 2318.208 C 1275.819 2318.018, 1307.853 2286.958, 1310.703 2246.263 L 1311.280 2238.026 1345.390 2237.749 L 1379.500 2237.473 1344.880 2237.236 L 1310.260 2237 1309.041 2230.804 C 1308.371 2227.396, 1306.266 2220.309, 1304.364 2215.054 C 1302.462 2209.799, 1300.926 2205.388, 1300.952 2205.251 C 1300.978 2205.113, 1298.861 2202.236, 1296.249 2198.857 C 1293.637 2195.478, 1291.624 2192.294, 1291.775 2191.782 C 1291.926 2191.270, 1291.593 2191.134, 1291.034 2191.479 C 1290.476 2191.824, 1287.219 2189.840, 1283.796 2187.071 C 1268.257 2174.498, 1246.634 2167.930, 1227.810 2170.064 M 2751 2169.608 C 2733.647 2172.736, 2720.336 2178.652, 2708.648 2188.431 C 2704.329 2192.044, 2700.392 2195, 2699.898 2195 C 2699.404 2195, 2699 2195.449, 2699 2195.998 C 2699 2196.546, 2697.537 2199.134, 2695.750 2201.748 C 2693.963 2204.361, 2692.394 2206.950, 2692.265 2207.500 C 2692.135 2208.050, 2690.666 2212.264, 2689 2216.864 C 2685.453 2226.656, 2683 2239.646, 2683 2248.631 L 2683 2255 2628.750 2255.237 L 2574.500 2255.474 2629.362 2255.987 L 2684.224 2256.500 2686.405 2264 C 2692.316 2284.328, 2706.959 2301.811, 2725.745 2310.971 C 2738.285 2317.085, 2759.845 2320.585, 2770.391 2318.217 C 2773.632 2317.490, 2776.918 2317.138, 2777.693 2317.436 C 2778.469 2317.734, 2778.859 2317.581, 2778.560 2317.098 C 2778.261 2316.614, 2781.039 2314.933, 2784.733 2313.363 C 2808.410 2303.301, 2823.665 2285.851, 2830.074 2261.500 C 2838.648 2228.920, 2821.271 2191.972, 2790.500 2177.357 C 2778.866 2171.831, 2759.618 2168.055, 2751 2169.608 M 2058.250 2238.750 C 2077.362 2238.902, 2108.637 2238.902, 2127.750 2238.750 C 2146.862 2238.598, 2131.225 2238.473, 2093 2238.473 C 2054.775 2238.473, 2039.137 2238.598, 2058.250 2238.750 M 1878.323 2254.750 C 1896.925 2254.902, 1927.075 2254.902, 1945.323 2254.749 C 1963.570 2254.597, 1948.350 2254.472, 1911.500 2254.472 C 1874.650 2254.472, 1859.720 2254.597, 1878.323 2254.750 M 1968.035 2723.927 C 1963.930 2725.342, 1959.880 2727.076, 1959.035 2727.780 C 1958.191 2728.484, 1953.770 2731.793, 1949.212 2735.134 C 1938.979 2742.632, 1932.209 2750.778, 1926.469 2762.500 C 1918.883 2777.995, 1916.995 2795.428, 1920.947 2813.512 C 1922.476 2820.508, 1922.637 2822.740, 1921.697 2823.903 C 1920.820 2824.988, 1920.813 2825.196, 1921.671 2824.682 C 1922.412 2824.238, 1924.039 2826.094, 1926.105 2829.740 C 1927.900 2832.908, 1929.793 2835.787, 1930.312 2836.138 C 1930.831 2836.489, 1930.904 2837.346, 1930.474 2838.043 C 1930.021 2838.776, 1930.095 2839.059, 1930.651 2838.716 C 1931.179 2838.389, 1934.736 2841.292, 1938.556 2845.166 C 1963.176 2870.139, 1994.940 2876.159, 2025.500 2861.643 C 2056.242 2847.041, 2073.717 2809.907, 2065.096 2777.500 C 2059.440 2756.235, 2047.521 2740.854, 2027.632 2729.154 C 2015.218 2721.851, 2012.688 2721.283, 1992.771 2721.321 C 1976.866 2721.351, 1974.910 2721.557, 1968.035 2723.927 M 1004.426 3256.958 C 1002.511 3258.842, 990.084 3262.747, 989.616 3261.612 C 989.364 3261.001, 989.122 3261.179, 989.079 3262.008 C 989.036 3262.837, 985.990 3265.537, 982.311 3268.008 C 963.434 3280.686, 952.275 3297.885, 948.388 3320.293 C 945.861 3334.861, 948.430 3349.943, 956.003 3365.006 C 971.643 3396.113, 1008.720 3412.402, 1041.500 3402.567 C 1062.310 3396.324, 1078.490 3383.273, 1087.768 3365.247 C 1091.692 3357.622, 1092.813 3354.671, 1094.982 3346.250 L 1096.077 3342 1986.500 3342 L 2876.923 3342 2877.995 3346.250 C 2879.858 3353.636, 2883.115 3362.342, 2885.757 3367 C 2901.640 3395.005, 2934.230 3410.395, 2964.413 3404.146 C 2998.492 3397.089, 3022.144 3370.469, 3025.515 3335.375 C 3026.011 3330.212, 3025.645 3325.885, 3024.046 3318 C 3019.715 3296.636, 3008.456 3279.871, 2990.622 3268.228 C 2986.839 3265.758, 2983.542 3262.966, 2983.296 3262.022 C 2982.994 3260.869, 2982.121 3260.445, 2980.635 3260.729 C 2979.418 3260.962, 2975.965 3260.184, 2972.961 3259 C 2966.326 3256.385, 2944.555 3255.259, 2936.022 3257.089 C 2931.743 3258.006, 2930.591 3257.963, 2929.892 3256.859 C 2929.226 3255.808, 2929.027 3255.909, 2929.015 3257.307 C 2929.005 3258.571, 2926.820 3260.117, 2921.750 3262.451 C 2911.303 3267.259, 2900.838 3275.043, 2894.425 3282.775 C 2887.187 3291.501, 2880.566 3305.127, 2878.279 3316 L 2876.492 3324.500 1986.528 3324.500 L 1096.564 3324.500 1093.912 3312.653 C 1091.465 3301.725, 1088.209 3293.566, 1085.575 3291.765 C 1084.984 3291.361, 1084.911 3291.024, 1085.414 3291.015 C 1085.917 3291.007, 1081.642 3286.346, 1075.914 3280.658 C 1069.013 3273.804, 1063.195 3269.037, 1058.667 3266.525 C 1045.446 3259.192, 1028.944 3255.637, 1014.500 3257.012 C 1010.650 3257.378, 1007.017 3257.311, 1006.426 3256.863 C 1005.836 3256.414, 1004.936 3256.457, 1004.426 3256.958 M 1097 3333.500 L 1097 3341 1986.500 3341 L 2876 3341 2876 3333.500 L 2876 3326 1986.500 3326 L 1097 3326 1097 3333.500" stroke="none" fill="#800080" fill-rule="evenodd"/><path d="M 1916.996 408.229 C 1903.655 417.638, 1838.102 464.702, 1824.102 474.923 C 1818.271 479.180, 1807.875 486.701, 1801 491.636 C 1794.125 496.570, 1766.225 516.595, 1739 536.136 C 1711.775 555.676, 1675.550 581.720, 1658.500 594.011 C 1615.429 625.061, 1469.587 729.919, 1403.500 777.353 C 1385.900 789.985, 1359.575 808.942, 1345 819.480 C 1330.425 830.019, 1292.850 857.029, 1261.500 879.504 C 1230.150 901.980, 1186.500 933.411, 1164.500 949.352 C 1142.500 965.293, 1106.050 991.605, 1083.500 1007.823 C 1060.950 1024.041, 1036.875 1041.380, 1030 1046.354 C 1023.125 1051.328, 1005.800 1063.777, 991.500 1074.020 C 949.812 1103.879, 891.097 1146.062, 840.500 1182.503 C 814.650 1201.121, 777.750 1227.673, 758.500 1241.508 C 739.250 1255.343, 697.625 1285.267, 666 1308.006 C 565.010 1380.621, 512.858 1418.106, 499.250 1427.861 C 491.826 1433.183, 486 1438.056, 486 1438.943 C 486 1440.572, 492.598 1451, 493.629 1451 C 493.946 1451, 503.497 1444.323, 514.853 1436.162 C 561.800 1402.425, 617.674 1362.306, 669 1325.482 C 728.175 1283.027, 800.749 1230.866, 905.500 1155.503 C 980.717 1101.388, 1101.633 1014.466, 1154.500 976.507 C 1173.750 962.685, 1197.825 945.358, 1208 938.003 C 1218.175 930.647, 1256.851 902.826, 1293.946 876.178 C 1331.042 849.530, 1391.117 806.341, 1427.446 780.202 C 1463.776 754.063, 1507 722.979, 1523.500 711.126 C 1540 699.273, 1575.100 674.003, 1601.500 654.971 C 1627.900 635.939, 1664.575 609.559, 1683 596.350 C 1701.425 583.140, 1735.175 558.892, 1758 542.465 C 1780.825 526.038, 1817.725 499.496, 1840 483.483 C 1873.121 459.673, 1925.734 421.775, 1934.476 415.429 C 1936.413 414.023, 1936.416 413.927, 1934.604 410.564 C 1933.588 408.677, 1931.572 405.714, 1930.125 403.980 L 1927.493 400.827 1916.996 408.229 M 2055.047 408.048 C 2051.444 413.185, 2050.971 414.383, 2052.124 415.448 C 2053.261 416.498, 2100.420 450.369, 2213 530.992 C 2229.189 542.586, 2304.486 596.570, 2390 657.892 C 2421.075 680.176, 2462.925 710.160, 2483 724.523 C 2503.075 738.886, 2543.350 767.743, 2572.500 788.650 C 2601.650 809.557, 2649.575 843.911, 2679 864.992 C 2708.425 886.074, 2774.350 933.332, 2825.500 970.009 C 2876.650 1006.687, 2965.075 1069.975, 3022 1110.648 C 3126.112 1185.037, 3200.928 1238.584, 3274 1291.009 C 3295.725 1306.595, 3328.350 1329.989, 3346.500 1342.997 C 3364.650 1356.004, 3398.850 1380.533, 3422.500 1397.505 C 3503.880 1455.908, 3497.025 1451.286, 3499.268 1449.268 C 3500.348 1448.296, 3502.584 1445.541, 3504.235 1443.147 C 3507.160 1438.908, 3507.189 1438.747, 3505.369 1437.018 C 3504.341 1436.042, 3456.025 1401.291, 3398 1359.794 C 3339.975 1318.298, 3260.100 1261.176, 3220.500 1232.856 C 3150.810 1183.018, 3052.140 1112.326, 3017.715 1087.570 C 3008.484 1080.932, 2994.208 1070.775, 2985.991 1065 C 2977.774 1059.225, 2961.703 1047.769, 2950.276 1039.542 C 2931.654 1026.134, 2894.253 999.319, 2790.500 924.988 C 2772.350 911.985, 2741.300 889.717, 2721.500 875.503 C 2701.700 861.289, 2676.275 843.066, 2665 835.007 C 2653.725 826.948, 2618.850 801.975, 2587.500 779.510 C 2556.150 757.046, 2519.700 730.945, 2506.500 721.508 C 2493.300 712.070, 2460 688.214, 2432.500 668.494 C 2405 648.773, 2376.425 628.302, 2369 623.002 C 2361.575 617.702, 2333 597.218, 2305.500 577.482 C 2253.485 540.151, 2245.213 534.218, 2157 470.979 C 2074.899 412.121, 2061.979 402.929, 2060.612 402.405 C 2059.885 402.126, 2057.516 404.529, 2055.047 408.048 M 1949.142 437.250 C 1947.029 441.788, 1931.556 474.750, 1914.758 510.500 C 1897.959 546.250, 1872.523 600.475, 1858.232 631 C 1832.416 686.144, 1814.117 725.192, 1742.250 878.500 C 1721.624 922.500, 1693.382 982.800, 1679.490 1012.500 C 1640.426 1096.014, 1595.876 1191.168, 1573.786 1238.271 C 1554.973 1278.391, 1553.830 1281.155, 1555.365 1282.851 C 1557.167 1284.842, 1566.723 1289.610, 1567.452 1288.882 C 1568.223 1288.111, 1762.936 872.311, 1768.526 859.500 C 1771.405 852.900, 1777.350 839.850, 1781.736 830.500 C 1789.244 814.494, 1827.812 732.354, 1870.009 642.500 C 1952.287 467.299, 1966.943 435.717, 1966.387 434.817 C 1965.639 433.606, 1956.055 429.024, 1954.242 429.010 C 1953.550 429.004, 1951.254 432.712, 1949.142 437.250 M 2537.442 1365.474 L 2536.488 1372.948 2538.994 1373.462 C 2540.372 1373.745, 2560.175 1376.254, 2583 1379.037 C 2605.825 1381.820, 2638.989 1385.872, 2656.697 1388.041 C 2674.405 1390.210, 2698.705 1393.139, 2710.697 1394.550 C 2739.157 1397.898, 2826.391 1408.354, 2869 1413.525 C 2886.675 1415.669, 3033.641 1433.323, 3069 1437.549 C 3085.225 1439.488, 3109.750 1442.430, 3123.500 1444.087 C 3137.250 1445.744, 3155.700 1447.967, 3164.500 1449.027 C 3173.300 1450.086, 3199.400 1453.231, 3222.500 1456.016 C 3245.600 1458.801, 3283.175 1463.298, 3306 1466.008 C 3328.825 1468.719, 3364.600 1473.001, 3385.500 1475.525 C 3443.682 1482.551, 3488.488 1487.821, 3488.612 1487.652 C 3488.673 1487.568, 3488.984 1484.239, 3489.303 1480.254 C 3489.852 1473.390, 3489.768 1472.982, 3487.691 1472.503 C 3481.087 1470.979, 3428.956 1464.391, 3325.500 1452.008 C 3302.400 1449.243, 3277.875 1446.307, 3271 1445.484 C 3264.125 1444.660, 3243.875 1442.217, 3226 1440.055 C 3208.125 1437.893, 3179.775 1434.491, 3163 1432.495 C 3146.225 1430.499, 3118.100 1427.116, 3100.500 1424.978 C 3062.386 1420.347, 3016.934 1414.894, 2959 1408.001 C 2935.625 1405.220, 2892.425 1400.044, 2863 1396.499 C 2833.575 1392.954, 2803.650 1389.372, 2796.500 1388.538 C 2789.350 1387.705, 2759.200 1384.087, 2729.500 1380.497 C 2652.022 1371.132, 2541.235 1358, 2539.703 1358 C 2538.829 1358, 2538.080 1360.476, 2537.442 1365.474 M 1589.047 1398.048 C 1585.446 1403.182, 1584.971 1404.382, 1586.124 1405.444 C 1586.881 1406.142, 1632.950 1439.702, 1688.500 1480.023 C 1744.050 1520.344, 1807.725 1566.612, 1830 1582.842 C 1901.590 1635.001, 1907.326 1639.183, 1918 1647.004 C 1923.775 1651.235, 1935.475 1659.785, 1944 1666.004 C 1972.642 1686.897, 1980 1692.425, 1980 1693.046 C 1980 1693.586, 1892.415 1757.556, 1822.500 1808.079 C 1753.731 1857.774, 1709.561 1888.957, 1708.911 1888.270 C 1708.511 1887.846, 1693.484 1841.600, 1675.519 1785.500 C 1657.554 1729.400, 1636.838 1664.825, 1629.484 1642 C 1615.155 1597.525, 1567.829 1449.892, 1562.728 1433.750 C 1560.344 1426.208, 1559.242 1424, 1557.860 1424 C 1556.318 1424, 1545.138 1427.727, 1544.147 1428.572 C 1543.952 1428.738, 1544.940 1432.389, 1546.340 1436.687 C 1547.741 1440.984, 1559.078 1476.450, 1571.532 1515.500 C 1583.987 1554.550, 1599.100 1601.800, 1605.117 1620.500 C 1658.957 1787.837, 1694.009 1897.846, 1693.978 1899.391 C 1693.966 1900.001, 1687.140 1905.450, 1678.810 1911.500 C 1612.347 1959.769, 1590.313 1975.744, 1542.500 2010.326 C 1487.188 2050.332, 1414.250 2102.998, 1327 2165.932 C 1316.825 2173.272, 1304.579 2182.195, 1299.786 2185.761 L 1291.073 2192.246 1295.595 2198.123 C 1298.082 2201.355, 1300.467 2204, 1300.896 2204 C 1301.324 2204, 1304.110 2202.282, 1307.087 2200.181 C 1325.603 2187.119, 1384.086 2145.327, 1409.500 2126.998 C 1477.370 2078.048, 1501.153 2060.863, 1513.500 2051.851 C 1529.877 2039.898, 1624.219 1971.962, 1666.329 1941.799 C 1683.835 1929.259, 1698.717 1919, 1699.400 1919 C 1700.154 1919, 1705.694 1934.636, 1713.484 1958.750 C 1749.820 2071.223, 1803 2236.832, 1803 2237.516 C 1803 2237.782, 1692.300 2238, 1557 2238 L 1311 2238 1311 2246 L 1311 2254 1559.791 2254 L 1808.582 2254 1852.432 2390.750 C 1968.942 2754.096, 1959.814 2726, 1961.348 2726 C 1962.043 2726, 1965.434 2725.047, 1968.885 2723.882 C 1974.809 2721.881, 1975.123 2721.617, 1974.534 2719.132 C 1973.699 2715.605, 1935.273 2594.578, 1914.009 2528.500 C 1895.680 2471.542, 1839.190 2295.065, 1831.482 2270.684 C 1828.906 2262.535, 1827.107 2255.560, 1827.484 2255.184 C 1828.085 2254.585, 2158.121 2254.815, 2158.741 2255.415 C 2158.873 2255.543, 2157.882 2258.989, 2156.538 2263.074 C 2155.194 2267.158, 2137.160 2322.475, 2116.461 2386 C 2095.763 2449.525, 2063.766 2547.625, 2045.357 2604 C 2026.949 2660.375, 2010.951 2709.386, 2009.807 2712.914 C 2007.816 2719.057, 2007.804 2719.383, 2009.520 2720.638 C 2012.128 2722.546, 2022.138 2725.274, 2023.016 2724.317 C 2023.428 2723.868, 2041.626 2668.825, 2063.456 2602 C 2085.286 2535.175, 2118.684 2433.025, 2137.674 2375 C 2156.663 2316.975, 2173.187 2266.350, 2174.393 2262.500 L 2176.586 2255.500 2429.793 2255.248 L 2683 2254.996 2683 2246.998 L 2683 2239 2433 2239 C 2183.342 2239, 2183 2238.997, 2183 2236.992 C 2183 2234.732, 2182.340 2236.770, 2237.566 2068.500 C 2287.064 1917.684, 2287.293 1917, 2288.156 1917 C 2289.435 1917, 2314.709 1935.043, 2374.500 1978.640 C 2394.850 1993.478, 2419.150 2011.186, 2428.500 2017.990 C 2437.850 2024.795, 2456.075 2038.080, 2469 2047.513 C 2481.925 2056.946, 2503.975 2072.986, 2518 2083.158 C 2532.025 2093.330, 2558.575 2112.612, 2577 2126.006 C 2618.519 2156.190, 2636.628 2169.313, 2649.500 2178.546 C 2655 2182.491, 2666.475 2190.727, 2675 2196.848 C 2683.525 2202.970, 2690.725 2207.966, 2691 2207.951 C 2691.686 2207.914, 2699 2197.067, 2699 2196.087 C 2699 2195.097, 2673.522 2176.422, 2484 2038.494 C 2409.533 1984.300, 2360.160 1948.256, 2323.671 1921.450 C 2294.335 1899.898, 2293.853 1899.487, 2294.444 1896.518 C 2295.213 1892.657, 2329.571 1786.642, 2403.018 1561.500 C 2444.169 1435.358, 2446.169 1429.082, 2445.539 1428.063 C 2444.645 1426.616, 2431.787 1422.805, 2430.913 1423.728 C 2430.510 1424.152, 2427.497 1432.825, 2424.218 1443 C 2420.938 1453.175, 2405.102 1501.775, 2389.025 1551 C 2372.949 1600.225, 2352.848 1661.875, 2344.356 1688 C 2310.609 1791.818, 2278.574 1888, 2277.743 1888 C 2277.261 1888, 2275.434 1886.940, 2273.683 1885.644 C 2271.932 1884.348, 2260.600 1876.159, 2248.500 1867.446 C 2190.708 1825.832, 2021.487 1702.005, 2013.638 1695.586 L 2010.775 1693.246 2020.138 1686.311 C 2025.287 1682.497, 2040.300 1671.576, 2053.500 1662.041 C 2066.700 1652.507, 2081.325 1641.914, 2086 1638.501 C 2090.675 1635.088, 2106.200 1623.841, 2120.500 1613.509 C 2134.800 1603.176, 2151.900 1590.809, 2158.500 1586.027 C 2165.100 1581.244, 2186.025 1566.081, 2205 1552.330 C 2245.238 1523.171, 2285.589 1494.033, 2356.747 1442.754 L 2407.994 1405.823 2403.349 1399.911 C 2400.795 1396.660, 2398.326 1394, 2397.864 1394 C 2396.999 1394, 2391.885 1397.549, 2362.500 1418.538 C 2320.025 1448.878, 2200.622 1534.844, 2147.500 1573.330 C 2129.298 1586.518, 2005.171 1675.713, 1999.346 1679.792 C 1997.611 1681.006, 1995.766 1682, 1995.247 1682 C 1994.728 1682, 1988.273 1677.656, 1980.902 1672.347 C 1959.015 1656.584, 1886.690 1604.174, 1801 1541.984 C 1791.375 1534.998, 1749.525 1504.626, 1708 1474.489 C 1666.475 1444.352, 1629.350 1417.363, 1625.500 1414.514 C 1610.932 1403.733, 1595.626 1392.794, 1594.508 1392.365 C 1593.869 1392.120, 1591.412 1394.677, 1589.047 1398.048 M 480.628 1542.966 C 478.026 1545.748, 476.177 1548.478, 476.520 1549.032 C 477.043 1549.879, 536.869 1606.212, 605.518 1670.500 C 614.915 1679.300, 647.758 1710.125, 678.503 1739 C 709.248 1767.875, 749.291 1805.450, 767.489 1822.500 C 795.171 1848.437, 852.212 1901.967, 889.498 1937 C 894.474 1941.675, 931.385 1976.315, 971.522 2013.979 C 1011.660 2051.642, 1063.400 2100.242, 1086.500 2121.979 C 1154.322 2185.798, 1171.117 2201.482, 1171.960 2201.793 C 1172.398 2201.954, 1175.093 2199.288, 1177.949 2195.870 L 1183.143 2189.654 1175.341 2182.577 C 1171.051 2178.685, 1155.606 2164.247, 1141.020 2150.493 C 1126.434 2136.739, 1092.911 2105.239, 1066.524 2080.493 C 1040.137 2055.747, 1010.639 2028.075, 1000.974 2019 C 991.309 2009.925, 958.241 1978.875, 927.489 1950 C 896.737 1921.125, 857.384 1884.231, 840.038 1868.014 C 807.145 1837.260, 748.460 1782.231, 695.500 1732.478 C 678.450 1716.460, 641.775 1682.032, 614 1655.972 C 586.225 1629.911, 546.694 1592.818, 526.153 1573.544 C 505.612 1554.270, 488.030 1538.367, 487.083 1538.204 C 486.059 1538.028, 483.439 1539.961, 480.628 1542.966 M 3502.664 1649.202 C 3485.810 1699.416, 3358.336 2081.539, 3219.388 2498.365 C 3017.561 3103.820, 2967.031 3256.406, 2968.128 3257.101 C 2968.882 3257.579, 2971.690 3258.706, 2974.367 3259.605 C 2978.447 3260.974, 2979.373 3261.017, 2980.089 3259.869 C 2981.712 3257.266, 2992.874 3225.222, 3016.966 3154 C 3047.655 3063.277, 3210.185 2576.432, 3268.017 2402 C 3292.178 2329.125, 3364.831 2111.100, 3429.467 1917.500 C 3494.103 1723.900, 3546.990 1564.795, 3546.993 1563.933 C 3546.998 1562.899, 3545.042 1561.748, 3541.250 1560.554 C 3538.088 1559.558, 3535.007 1558.554, 3534.404 1558.323 C 3533.736 1558.068, 3521.340 1593.559, 3502.664 1649.202 M 447.750 1561.268 C 444.038 1562.384, 441 1563.790, 441 1564.392 C 441 1564.994, 447.126 1584.390, 454.614 1607.493 C 462.102 1630.597, 476.691 1675.600, 487.035 1707.500 C 497.378 1739.400, 512.205 1785.300, 519.984 1809.500 C 527.762 1833.700, 537.217 1862.950, 540.995 1874.500 C 547.102 1893.172, 564.369 1946.659, 586.677 2016 C 590.835 2028.925, 598.652 2053, 604.049 2069.500 C 609.445 2086, 620.820 2121.100, 629.326 2147.500 C 637.832 2173.900, 654.922 2226.775, 667.305 2265 C 679.687 2303.225, 696.184 2354.300, 703.966 2378.500 C 711.748 2402.700, 721.207 2431.950, 724.987 2443.500 C 728.767 2455.050, 739.043 2486.775, 747.824 2514 C 782.567 2621.729, 791.868 2650.538, 808.521 2702 C 818.043 2731.425, 829.955 2768.325, 834.992 2784 C 840.030 2799.675, 853.603 2841.750, 865.154 2877.500 C 876.706 2913.250, 893.349 2964.775, 902.139 2992 C 910.929 3019.225, 921.214 3050.950, 924.995 3062.500 C 928.776 3074.050, 938.443 3103.975, 946.476 3129 C 954.510 3154.025, 967.636 3194.340, 975.646 3218.588 L 990.209 3262.676 996.840 3260.269 C 1000.487 3258.945, 1003.611 3257.723, 1003.781 3257.553 C 1003.951 3257.383, 999.601 3243.351, 994.115 3226.372 C 988.629 3209.392, 964.285 3133.850, 940.018 3058.500 C 915.750 2983.150, 893.242 2913.400, 889.999 2903.500 C 886.757 2893.600, 868.291 2836.450, 848.964 2776.500 C 829.637 2716.550, 799.724 2623.850, 782.491 2570.500 C 765.257 2517.150, 730.164 2408.475, 704.505 2329 C 678.847 2249.525, 646.150 2148.275, 631.846 2104 C 617.542 2059.725, 591.885 1980.300, 574.830 1927.500 C 459.044 1569.037, 456.177 1560.221, 455.232 1559.666 C 454.829 1559.430, 451.462 1560.151, 447.750 1561.268 M 1966 1725.223 C 1937.118 1745.901, 1887.373 1781.834, 1835.500 1819.489 C 1821.200 1829.869, 1798.475 1846.291, 1785 1855.982 C 1727.941 1897.018, 1716.466 1905.368, 1715.852 1906.302 C 1715.496 1906.844, 1715.582 1908.460, 1716.043 1909.894 C 1716.505 1911.327, 1720.086 1922.850, 1724.002 1935.500 C 1730.939 1957.909, 1738.247 1980.804, 1793.748 2154 L 1820.506 2237.500 1989.503 2238.312 C 2082.451 2238.759, 2159.946 2238.854, 2161.714 2238.524 C 2164.642 2237.976, 2165.098 2237.369, 2166.830 2231.711 C 2167.875 2228.295, 2180.453 2189.725, 2194.782 2146 C 2223.376 2058.738, 2256.344 1957.453, 2266.065 1927 C 2269.488 1916.275, 2272.470 1907.008, 2272.691 1906.407 C 2272.913 1905.806, 2269.810 1902.909, 2265.797 1899.970 C 2261.784 1897.030, 2237.800 1879.578, 2212.500 1861.187 C 2187.200 1842.796, 2164.250 1826.066, 2161.500 1824.008 C 2158.750 1821.951, 2127.475 1799.213, 2092 1773.479 C 2056.525 1747.745, 2020.467 1721.584, 2011.872 1715.345 C 2003.276 1709.105, 1996.076 1704.023, 1995.872 1704.051 C 1995.667 1704.079, 1982.225 1713.606, 1966 1725.223 M 2769.513 2318.333 C 2766.448 2319.055, 2764.410 2320.112, 2764.224 2321.073 C 2763.965 2322.421, 2822.824 2656.981, 2839.950 2751.500 C 2845.692 2783.191, 2887.444 3017.883, 2915.544 3176.421 C 2922.945 3218.177, 2929.007 3253.052, 2929.015 3253.921 C 2929.052 3257.717, 2930.284 3258.116, 2937.918 3256.807 L 2945.185 3255.561 2944.557 3251.531 C 2942.483 3238.236, 2862.740 2790.411, 2861.572 2785.500 C 2860.787 2782.200, 2850.602 2725.500, 2838.938 2659.500 C 2827.274 2593.500, 2808.904 2489.550, 2798.116 2428.500 C 2779.904 2325.445, 2778.357 2317.488, 2776.500 2317.328 C 2775.400 2317.234, 2772.256 2317.686, 2769.513 2318.333 M 1906.449 2832.834 C 1897.677 2837.692, 1881.275 2846.754, 1870 2852.971 C 1840.900 2869.016, 1801.936 2890.606, 1666 2966.007 C 1600.275 3002.463, 1517.475 3048.388, 1482 3068.061 C 1312.638 3161.986, 1087.356 3286.997, 1086.123 3287.737 C 1085.001 3288.410, 1085.218 3289.485, 1087.293 3293.532 C 1092.323 3303.341, 1091.248 3303.159, 1103.611 3296.280 C 1109.600 3292.948, 1125.750 3284.036, 1139.500 3276.477 C 1153.250 3268.918, 1172.375 3258.349, 1182 3252.991 C 1191.625 3247.633, 1214.800 3234.806, 1233.500 3224.486 C 1252.200 3214.167, 1277.850 3200.006, 1290.500 3193.018 C 1303.150 3186.030, 1324.750 3174.104, 1338.500 3166.516 C 1352.250 3158.928, 1383.525 3141.596, 1408 3128.001 C 1432.475 3114.406, 1473.875 3091.458, 1500 3077.006 C 1526.125 3062.554, 1570.225 3038.135, 1598 3022.742 C 1625.775 3007.350, 1669.650 2983.039, 1695.500 2968.718 C 1721.350 2954.397, 1767.025 2929.082, 1797 2912.463 C 1863.607 2875.534, 1911.912 2848.788, 1922.250 2843.114 C 1926.513 2840.774, 1930 2838.372, 1930 2837.776 C 1930 2836.757, 1923.194 2824, 1922.650 2824 C 1922.512 2824, 1915.221 2827.975, 1906.449 2832.834 M 1097 3333.500 L 1097 3341 1986.500 3341 L 2876 3341 2876 3333.500 L 2876 3326 1986.500 3326 L 1097 3326 1097 3333.500" stroke="none" fill="#060606" fill-rule="evenodd"/><path d="M 1975 283.930 C 1958.427 285.043, 1955.173 286.721, 1940.066 301.946 C 1932.823 309.246, 1926.329 316.773, 1924.736 319.716 C 1923.199 322.556, 1920.867 329.853, 1919.481 336.161 C 1916.327 350.513, 1909.952 367.671, 1905.087 374.906 C 1903.017 377.983, 1898.502 384.775, 1895.053 390 C 1891.167 395.888, 1886.926 400.929, 1883.901 403.257 C 1881.217 405.323, 1878.395 408.513, 1877.629 410.344 C 1876.661 412.663, 1874.585 414.608, 1870.798 416.745 C 1867.806 418.433, 1863.003 422.533, 1860.125 425.856 C 1856.048 430.562, 1853.658 432.358, 1849.313 433.984 C 1846.245 435.132, 1841.657 437.250, 1839.117 438.692 C 1829.009 444.428, 1814.248 453.395, 1809.799 456.501 C 1807.214 458.306, 1802.354 460.710, 1799 461.843 C 1795.646 462.975, 1790.786 465.443, 1788.201 467.326 C 1785.615 469.208, 1781.524 471.747, 1779.108 472.967 C 1776.692 474.187, 1772.605 477.161, 1770.024 479.574 C 1767.443 481.988, 1762.895 485.048, 1759.916 486.373 C 1756.937 487.698, 1752.700 490.227, 1750.500 491.992 C 1748.300 493.757, 1744.409 496.265, 1741.854 497.565 C 1739.293 498.868, 1733.307 503.942, 1728.514 508.873 C 1723.043 514.502, 1717.655 518.971, 1713.978 520.931 C 1710.764 522.644, 1706.219 525.646, 1703.878 527.602 C 1701.537 529.558, 1697.441 532.263, 1694.775 533.614 C 1692.109 534.965, 1688.257 537.571, 1686.214 539.405 C 1684.171 541.240, 1680.250 543.876, 1677.500 545.265 C 1674.750 546.653, 1669.800 549.900, 1666.500 552.481 C 1663.200 555.063, 1658.250 558.317, 1655.500 559.714 C 1649.576 562.722, 1644.416 566.921, 1634.567 576.750 C 1630.571 580.737, 1626.586 584, 1625.711 584 C 1624.835 584, 1621.245 586.203, 1617.732 588.896 C 1614.218 591.589, 1609.031 594.964, 1606.205 596.396 C 1603.379 597.828, 1598.787 601.025, 1596 603.500 C 1593.213 605.975, 1588.585 609.170, 1585.716 610.600 C 1582.629 612.139, 1577.216 616.526, 1572.452 621.350 C 1566.600 627.277, 1562.133 630.719, 1556.077 633.970 C 1549.505 637.498, 1546.181 640.164, 1540.306 646.618 C 1535.318 652.097, 1530.921 655.829, 1526.979 657.930 C 1523.743 659.655, 1518.888 662.811, 1516.189 664.945 C 1513.491 667.078, 1509.011 669.974, 1506.234 671.381 C 1503.457 672.789, 1498.556 676.257, 1495.343 679.089 C 1492.129 681.920, 1487.475 685.104, 1485 686.165 C 1480.708 688.003, 1475.515 692.630, 1458.096 710.134 C 1453.375 714.878, 1447.674 719.352, 1443.034 721.955 C 1438.928 724.259, 1433.713 727.853, 1431.445 729.944 C 1429.178 732.034, 1424.344 735.166, 1420.703 736.903 C 1415.872 739.209, 1412.678 741.678, 1408.885 746.039 C 1404.856 750.671, 1402.646 752.325, 1399.060 753.390 C 1389.397 756.259, 1381.286 762.491, 1359.030 784.146 C 1354.595 788.462, 1351.936 790.168, 1347.745 791.386 C 1343.122 792.730, 1341.395 793.967, 1336.736 799.274 C 1333.480 802.982, 1329.011 806.739, 1325.855 808.420 C 1322.910 809.989, 1318.458 812.958, 1315.962 815.017 C 1313.467 817.076, 1308.259 820.355, 1304.389 822.304 C 1300.210 824.409, 1296.278 827.258, 1294.702 829.325 C 1293.042 831.501, 1289.202 834.209, 1284.443 836.561 C 1278.820 839.339, 1275.500 841.838, 1271.704 846.150 C 1267.751 850.642, 1265.414 852.361, 1261.536 853.632 C 1255.153 855.723, 1251.945 857.977, 1248.911 862.504 C 1247.449 864.683, 1243.194 868.110, 1238.104 871.205 C 1233.487 874.013, 1226.644 879.201, 1222.899 882.734 C 1218.339 887.036, 1214.339 889.810, 1210.794 891.129 C 1206.925 892.570, 1203.749 894.904, 1198.995 899.800 C 1195.417 903.485, 1189.120 908.525, 1185.002 911 C 1180.883 913.475, 1174.580 918.463, 1170.995 922.084 C 1165.647 927.485, 1163.717 928.790, 1160.255 929.343 C 1157.141 929.841, 1155.178 930.977, 1152.767 933.676 C 1145.763 941.517, 1142.920 943.839, 1138.465 945.357 C 1135.921 946.224, 1132.309 948.278, 1130.437 949.921 C 1128.565 951.565, 1125.113 953.475, 1122.767 954.166 C 1119.321 955.180, 1116.190 957.815, 1106.500 967.855 C 1097.278 977.409, 1093.257 980.843, 1089.131 982.684 C 1086.177 984.002, 1082.352 986.135, 1080.631 987.424 C 1078.909 988.713, 1076.375 990.103, 1075 990.512 C 1069.334 992.199, 1064.964 995.225, 1061.825 999.636 C 1059.206 1003.315, 1056.982 1005.003, 1051.354 1007.581 C 1047.424 1009.382, 1043.877 1011.390, 1043.473 1012.044 C 1043.069 1012.698, 1039.534 1014.716, 1035.619 1016.528 C 1029.476 1019.371, 1027.068 1021.362, 1018.060 1031.039 C 1009.196 1040.561, 1006.628 1042.698, 1001.060 1045.194 C 997.452 1046.810, 993.600 1048.967, 992.500 1049.987 C 991.400 1051.006, 988.475 1052.634, 986 1053.605 C 983.525 1054.576, 979.250 1056.800, 976.500 1058.548 C 973.750 1060.296, 969.414 1062.902, 966.864 1064.339 C 964.313 1065.776, 960.360 1069.181, 958.078 1071.907 C 954.914 1075.685, 952.689 1077.271, 948.714 1078.579 C 944.226 1080.055, 941.690 1082.140, 930.500 1093.550 C 920.555 1103.690, 916.707 1106.971, 914.125 1107.510 C 912.083 1107.936, 908.451 1110.327, 904.929 1113.565 C 901.727 1116.509, 896.271 1120.332, 892.804 1122.061 C 888.319 1124.298, 883.885 1127.871, 877.437 1134.445 C 870.524 1141.492, 867.267 1144.062, 863.710 1145.274 C 861.145 1146.148, 857.574 1147.980, 855.773 1149.345 C 853.973 1150.710, 850.025 1152.918, 847 1154.253 C 843.134 1155.958, 840.057 1158.371, 836.644 1162.373 C 833.973 1165.505, 829.981 1168.989, 827.774 1170.115 C 821.375 1173.380, 809.791 1182.376, 806.207 1186.866 C 803.588 1190.146, 802.053 1191.123, 798.707 1191.640 C 795.206 1192.181, 793.410 1193.417, 788 1199.011 C 784.425 1202.708, 779.925 1206.525, 778 1207.492 C 776.075 1208.460, 771.575 1211.380, 768 1213.980 C 764.425 1216.580, 758.575 1220.383, 755 1222.430 C 751.425 1224.478, 744.656 1229.953, 739.959 1234.598 C 735.261 1239.243, 728.688 1244.721, 725.351 1246.771 C 717.314 1251.712, 704.441 1260.185, 699.654 1263.687 C 697.539 1265.234, 692.943 1268.300, 689.441 1270.500 C 682.848 1274.642, 671.459 1282.249, 664.500 1287.159 C 662.300 1288.711, 658.118 1291.587, 655.206 1293.549 C 652.294 1295.512, 648.336 1299.312, 646.409 1301.994 C 643.672 1305.804, 641.853 1307.220, 638.096 1308.468 C 635.451 1309.347, 632.210 1311.231, 630.894 1312.656 C 627.827 1315.975, 610.732 1327.600, 603.182 1331.500 C 599.988 1333.150, 594.935 1336.638, 591.954 1339.250 C 588.973 1341.862, 586.231 1344, 585.861 1344 C 585.491 1344, 583.580 1346.237, 581.615 1348.972 C 579.339 1352.141, 576.313 1354.823, 573.272 1356.366 C 570.647 1357.698, 565.841 1360.855, 562.591 1363.382 C 559.341 1365.908, 554.166 1368.907, 551.091 1370.045 C 546.727 1371.661, 543.526 1374.052, 536.500 1380.946 C 529.264 1388.046, 526.468 1390.109, 522.235 1391.474 C 518.376 1392.718, 516.105 1394.252, 513.735 1397.217 C 506.890 1405.777, 506.080 1406.275, 500.002 1405.654 C 494.508 1405.094, 491.870 1405.640, 473.707 1411.101 C 464.972 1413.727, 457.852 1413.701, 451.045 1411.018 C 446.042 1409.046, 444.121 1408.914, 424.367 1409.196 L 403.081 1409.500 398.703 1413.799 C 395.956 1416.496, 392.582 1418.622, 389.651 1419.505 C 385.902 1420.633, 383.038 1422.862, 375.184 1430.766 C 369.798 1436.186, 364.191 1442.194, 362.725 1444.117 C 360.094 1447.566, 357.713 1455.215, 356.535 1464 C 355.954 1468.343, 356.032 1468.255, 358.778 1461.500 C 368.348 1437.962, 388.141 1421.620, 414 1415.908 C 434.514 1411.377, 457.959 1417.593, 476.383 1432.450 C 480.169 1435.502, 483.482 1438, 483.745 1438 C 484.008 1438, 495.985 1429.582, 510.362 1419.293 C 524.738 1409.004, 546.850 1393.189, 559.500 1384.150 C 572.150 1375.110, 596.675 1357.507, 614 1345.032 C 675.113 1301.029, 735.108 1257.886, 789.500 1218.828 C 819.750 1197.106, 852.825 1173.331, 863 1165.993 C 873.175 1158.656, 899.050 1140.055, 920.500 1124.657 C 941.950 1109.260, 982.675 1080.006, 1011 1059.648 C 1039.325 1039.290, 1075.325 1013.420, 1091 1002.159 C 1106.675 990.898, 1128.275 975.305, 1139 967.507 C 1169.704 945.185, 1207.570 917.898, 1274.500 869.865 C 1308.600 845.392, 1359.225 809.011, 1387 789.018 C 1414.775 769.025, 1460.450 736.174, 1488.500 716.015 C 1573.659 654.813, 1626.776 616.613, 1663 590.520 C 1681.975 576.852, 1719.775 549.688, 1747 530.156 C 1774.225 510.624, 1809.325 485.361, 1825 474.016 C 1840.675 462.671, 1861.600 447.601, 1871.500 440.528 C 1890.102 427.237, 1919.101 406.408, 1924.678 402.331 L 1927.855 400.009 1924.993 391.754 C 1918.485 372.985, 1917.794 362.475, 1921.986 346.054 C 1926.101 329.938, 1933.154 318.265, 1944.867 308.184 C 1968.904 287.496, 2000.269 283.626, 2027.787 297.953 C 2051.387 310.240, 2065.727 332.088, 2068.574 360.094 C 2069.361 367.839, 2067.470 378.523, 2062.969 391.756 C 2060.158 400.019, 2060.098 400.539, 2061.755 402.141 C 2062.715 403.068, 2085.775 419.757, 2113 439.228 C 2140.225 458.698, 2183.200 489.471, 2208.500 507.612 C 2233.800 525.753, 2280.150 558.989, 2311.500 581.469 C 2342.850 603.949, 2385.150 634.266, 2405.500 648.840 C 2425.850 663.414, 2454.200 683.739, 2468.500 694.006 C 2482.800 704.274, 2520.600 731.340, 2552.500 754.154 C 2584.400 776.967, 2619.500 802.089, 2630.500 809.981 C 2641.500 817.872, 2670.075 838.344, 2694 855.474 C 2717.925 872.603, 2758.425 901.632, 2784 919.982 C 2870.605 982.120, 2964.428 1049.322, 2979.500 1060.009 C 2987.750 1065.859, 3003.500 1077.108, 3014.500 1085.006 C 3060.842 1118.283, 3164.488 1192.520, 3203 1220.021 C 3225.825 1236.321, 3278.025 1273.666, 3319 1303.011 C 3359.975 1332.356, 3415.366 1371.986, 3442.090 1391.076 C 3468.815 1410.167, 3494.432 1428.535, 3499.017 1431.893 C 3503.603 1435.252, 3507.871 1438, 3508.503 1438 C 3509.135 1438, 3510.742 1436.833, 3512.076 1435.406 C 3516.130 1431.068, 3530.269 1422.186, 3537.379 1419.510 C 3546.770 1415.975, 3561.099 1413.649, 3568.500 1414.459 C 3602.128 1418.139, 3626.040 1437.773, 3635.576 1469.537 C 3645.470 1502.489, 3628.859 1539.743, 3597.446 1555.056 C 3585.506 1560.876, 3575.868 1563.052, 3560.765 1563.337 L 3548.029 1563.577 3422.501 1939.539 C 3353.460 2146.317, 3280.581 2365, 3260.547 2425.500 C 3219.316 2550.012, 3015.695 3159.833, 3007.975 3181.925 C 3005.202 3189.859, 3002.689 3197.959, 3002.391 3199.925 C 3002.092 3201.891, 3000.527 3206.324, 2998.913 3209.775 C 2997.300 3213.226, 2995.490 3218.176, 2994.892 3220.775 C 2992.648 3230.532, 2990.572 3237.285, 2989.483 3238.375 C 2987.529 3240.329, 2980.020 3261.206, 2981.471 3260.649 C 2982.206 3260.367, 2983.014 3260.945, 2983.274 3261.938 C 2983.532 3262.928, 2986.839 3265.758, 2990.622 3268.228 C 3008.456 3279.871, 3019.715 3296.636, 3024.046 3318 C 3025.645 3325.885, 3026.011 3330.212, 3025.515 3335.375 C 3023.419 3357.192, 3012.559 3377.598, 2996.631 3389.647 C 2982.717 3400.174, 2962.252 3406.830, 2947.500 3405.628 C 2925.772 3403.857, 2905.690 3393.529, 2893.202 3377.702 C 2885.304 3367.692, 2881.331 3359.475, 2877.995 3346.250 L 2876.923 3342 1986.500 3342 L 1096.077 3342 1094.982 3346.250 C 1092.813 3354.671, 1091.692 3357.622, 1087.768 3365.247 C 1078.490 3383.273, 1062.310 3396.324, 1041.500 3402.567 C 1008.720 3412.402, 971.643 3396.113, 956.003 3365.006 C 948.430 3349.943, 945.861 3334.861, 948.388 3320.293 C 952.275 3297.885, 963.434 3280.686, 982.311 3268.008 C 986.834 3264.971, 989.003 3262.866, 989.009 3261.508 C 989.015 3260.404, 984.087 3244.875, 978.060 3227 C 972.033 3209.125, 960.584 3174.250, 952.619 3149.500 C 944.653 3124.750, 928.240 3073.900, 916.145 3036.500 C 904.050 2999.100, 890.033 2955.675, 884.996 2940 C 874.085 2906.045, 831.584 2774.394, 808.002 2701.500 C 789.365 2643.891, 769.508 2582.372, 746.836 2512 C 738.597 2486.425, 723.818 2440.975, 713.995 2411 C 704.171 2381.025, 692.460 2345.025, 687.971 2331 C 674.150 2287.827, 660.480 2245.498, 645.018 2198 C 636.872 2172.975, 626.964 2142.375, 622.999 2130 C 619.035 2117.625, 610.013 2089.725, 602.949 2068 C 583.247 2007.398, 559.115 1932.741, 555.272 1920.500 C 553.372 1914.450, 542.446 1880.475, 530.990 1845 C 519.534 1809.525, 505.810 1767, 500.492 1750.500 C 495.174 1734, 485.282 1703.400, 478.510 1682.500 C 471.737 1661.600, 460.496 1626.725, 453.531 1605 C 446.565 1583.275, 440.660 1564.873, 440.409 1564.107 C 440.050 1563.010, 438.419 1562.843, 432.726 1563.323 C 423.965 1564.062, 414.081 1562.718, 403.873 1559.398 C 379.075 1551.334, 360.515 1529.756, 354.855 1502.413 C 352.868 1492.811, 352.775 1486.099, 354.489 1476 C 354.831 1473.984, 353.758 1475.891, 351.956 1480.500 C 347.672 1491.460, 347.810 1495.663, 352.956 1510.954 C 358.111 1526.270, 357.693 1525.499, 366.500 1535.927 C 376.736 1548.048, 383.029 1553.662, 387.829 1554.954 C 390.064 1555.556, 394.275 1558.081, 397.186 1560.566 C 400.451 1563.353, 404.397 1565.627, 407.489 1566.504 C 410.245 1567.286, 415.828 1568.832, 419.895 1569.939 C 428.344 1572.240, 429.804 1573.321, 434.002 1580.390 C 435.671 1583.201, 438.517 1587.334, 440.326 1589.576 C 443.190 1593.124, 443.842 1595.069, 445.357 1604.576 C 447.739 1619.524, 450.414 1628.972, 454.501 1636.869 C 456.587 1640.899, 458.587 1646.875, 459.551 1651.953 C 460.428 1656.578, 462.027 1662.643, 463.105 1665.431 C 464.182 1668.219, 466.413 1675.610, 468.063 1681.856 C 469.712 1688.102, 471.767 1694.852, 472.629 1696.856 C 477.470 1708.117, 483.672 1729.953, 484.975 1740.327 C 485.641 1745.636, 486.510 1748.053, 488.758 1750.859 C 493.126 1756.311, 493.889 1758.168, 495.012 1766.082 C 495.742 1771.235, 497.149 1775.369, 499.887 1780.412 C 503.923 1787.845, 505.804 1794.293, 508.499 1809.932 C 510.260 1820.152, 510.837 1821.647, 515.135 1827.132 C 516.755 1829.199, 518.453 1833.076, 519.078 1836.132 C 521.652 1848.726, 522.278 1850.723, 524.996 1855 C 528.066 1859.833, 530.909 1869.834, 533.504 1884.932 C 535.277 1895.248, 535.668 1896.238, 540.465 1902.523 C 543.056 1905.917, 543.963 1908.385, 544.878 1914.536 C 546 1922.080, 547.965 1927.343, 551.977 1933.547 C 553.138 1935.342, 555.039 1942.323, 556.607 1950.547 C 560.423 1970.560, 560.614 1971.176, 564.564 1976.247 C 567.548 1980.076, 568.398 1982.318, 569.657 1989.672 C 570.754 1996.082, 572.217 2000.418, 574.998 2005.500 C 577.676 2010.393, 579.494 2015.660, 581.040 2023 C 582.588 2030.350, 584.505 2035.900, 587.431 2041.500 C 590.610 2047.585, 592.029 2051.894, 593.355 2059.500 C 596.680 2078.563, 600.018 2091.429, 603.084 2097 C 604.749 2100.025, 607.637 2108.350, 609.503 2115.500 C 611.368 2122.650, 614.972 2134.575, 617.512 2142 C 620.052 2149.425, 623.053 2158.629, 624.181 2162.454 C 625.309 2166.279, 627.329 2171.145, 628.669 2173.267 C 630.009 2175.390, 632.238 2181.711, 633.622 2187.313 C 635.006 2192.916, 637.677 2202.103, 639.557 2207.728 C 641.437 2213.354, 643.904 2223.254, 645.039 2229.728 C 647.558 2244.091, 648.525 2247.273, 651.437 2250.775 C 655.179 2255.276, 655.946 2257.433, 657.994 2269.215 C 660.515 2283.720, 662.334 2289.720, 667.060 2299.119 C 669.272 2303.519, 671.186 2309.030, 671.578 2312.127 C 672.367 2318.359, 674.327 2323.626, 676.923 2326.486 C 680.079 2329.965, 680.962 2332.579, 682.993 2344.460 C 684.909 2355.667, 686.561 2360.036, 691.390 2366.675 C 693.089 2369.010, 694.156 2372.845, 695.427 2381.175 C 697.176 2392.646, 698.993 2397.761, 703.493 2403.882 C 706.574 2408.074, 707.663 2411.809, 709.473 2424.394 C 710.650 2432.576, 711.396 2434.911, 713.786 2437.894 C 718.184 2443.383, 718.686 2444.760, 719.999 2454.932 C 721.477 2466.375, 722.788 2470.287, 727.393 2476.981 C 729.340 2479.811, 731.206 2483.786, 731.540 2485.814 C 733.684 2498.842, 736.556 2511.398, 738.674 2517 C 740.025 2520.575, 742.240 2528.168, 743.597 2533.874 C 744.953 2539.580, 746.582 2545.205, 747.218 2546.374 C 750.265 2551.980, 769 2607.449, 769 2610.863 C 769 2614.807, 772.301 2624.794, 774.991 2628.990 C 776.582 2631.471, 778.358 2635.625, 778.939 2638.221 C 779.520 2640.818, 781.157 2645.993, 782.575 2649.721 C 788.518 2665.336, 792.985 2680.429, 794.970 2691.600 C 797.583 2706.307, 798.189 2708.157, 802.461 2714.455 C 805.331 2718.686, 806.224 2721.437, 807.993 2731.500 C 811.510 2751.504, 821.161 2780.289, 827.439 2789.500 C 830.298 2793.696, 831.185 2796.430, 832.951 2806.500 C 834.109 2813.100, 836.806 2823.900, 838.946 2830.500 C 841.085 2837.100, 843.384 2844.975, 844.054 2848 C 845.597 2854.969, 849.850 2865.804, 854.436 2874.448 C 857.157 2879.576, 858.010 2882.389, 858.044 2886.333 C 858.068 2889.175, 858.713 2893.075, 859.477 2895 C 864.266 2907.066, 868.106 2918.964, 869.390 2925.713 C 871.101 2934.709, 871.511 2935.849, 875.330 2942.224 C 876.886 2944.822, 879.206 2951.172, 880.484 2956.334 C 881.762 2961.496, 884.853 2970.845, 887.353 2977.109 C 890.013 2983.773, 892.778 2993.065, 894.017 2999.500 C 895.181 3005.550, 896.580 3012.835, 897.125 3015.688 C 897.670 3018.542, 899.196 3022.367, 900.516 3024.188 C 905.136 3030.566, 906.057 3033.072, 908.070 3044.741 C 909.186 3051.208, 911.644 3061, 913.533 3066.500 C 915.421 3072, 918.084 3081.565, 919.451 3087.755 C 922.026 3099.420, 922.796 3101.457, 926.538 3106.500 C 930.731 3112.152, 932.297 3116.482, 933.135 3124.744 C 933.720 3130.515, 934.787 3134.597, 936.667 3138.257 C 938.847 3142.500, 939.331 3144.715, 939.202 3149.871 C 939.076 3154.916, 939.871 3158.728, 943.022 3168.188 C 947.531 3181.723, 947.898 3182.535, 952.757 3189.717 C 956.046 3194.578, 956.247 3195.318, 955.706 3200.563 C 955.072 3206.707, 957.001 3214.592, 961.770 3225.350 C 964.091 3230.586, 964.228 3231.531, 963.079 3234.350 C 962.372 3236.083, 961.443 3243.575, 961.015 3251 C 960.373 3262.114, 959.571 3266.798, 956.479 3277.500 C 954.414 3284.650, 951.249 3293.200, 949.446 3296.500 C 947.312 3300.404, 945.590 3305.625, 944.514 3311.448 C 943.605 3316.370, 942.217 3321.937, 941.431 3323.820 C 939.488 3328.469, 939.633 3333.512, 941.896 3340.035 C 942.938 3343.041, 944.301 3349.409, 944.925 3354.187 C 946.525 3366.458, 948.122 3371, 953.549 3378.726 C 960.022 3387.940, 961.326 3389.297, 970.295 3396.152 C 981.325 3404.582, 985.262 3406.065, 999 3406.959 C 1005.325 3407.371, 1011.850 3408.287, 1013.500 3408.994 C 1018.164 3410.992, 1031.396 3410.580, 1040 3408.169 C 1044.125 3407.013, 1052.900 3405.127, 1059.500 3403.978 C 1076.221 3401.068, 1082.542 3396.868, 1089.946 3383.749 C 1091.587 3380.842, 1094.960 3376.085, 1097.441 3373.178 C 1099.922 3370.271, 1102.424 3366.138, 1103.002 3363.992 C 1104.613 3358.009, 1106.171 3357.001, 1113.821 3356.992 C 1117.747 3356.988, 1123.180 3356.141, 1127 3354.938 C 1132.089 3353.335, 1137.840 3352.712, 1153.500 3352.066 C 1167.755 3351.479, 1174.757 3350.776, 1177.876 3349.621 C 1181.788 3348.172, 1191.555 3348, 1270 3348 C 1349.317 3348, 1358.169 3347.841, 1362.124 3346.341 C 1368.008 3344.110, 1381.992 3344.110, 1387.876 3346.341 C 1391.913 3347.872, 1413.175 3348, 1662.500 3348 C 1903.479 3348, 1933.222 3347.833, 1937.121 3346.457 C 1943.724 3344.128, 2081.308 3344.119, 2087.876 3346.448 C 2094.397 3348.761, 2129.991 3348.676, 2136.715 3346.332 C 2141.146 3344.787, 2167.574 3344.657, 2494 3344.582 L 2846.500 3344.500 2856.500 3347.925 C 2865.891 3351.141, 2866.973 3351.807, 2874.267 3358.864 C 2879.673 3364.095, 2882.384 3367.549, 2883.186 3370.226 C 2884.373 3374.188, 2886.779 3377.138, 2891.431 3380.334 C 2892.899 3381.343, 2895.134 3384.507, 2896.398 3387.366 C 2899.547 3394.487, 2906.352 3400.293, 2914.827 3403.092 C 2918.497 3404.304, 2924.425 3406.777, 2928 3408.588 C 2937.526 3413.413, 2942.538 3414.309, 2949.124 3412.366 C 2952.081 3411.494, 2959 3410.443, 2964.500 3410.030 C 2971.546 3409.501, 2977.023 3408.391, 2983.039 3406.274 C 2995.343 3401.945, 2996.948 3400.930, 3005.837 3391.861 C 3012.895 3384.658, 3014.227 3382.695, 3016.954 3375.471 C 3018.657 3370.957, 3020.986 3366.418, 3022.128 3365.384 C 3025.787 3362.072, 3027.028 3358.253, 3028.510 3345.741 C 3031.436 3321.041, 3030.076 3309.358, 3023.049 3298.836 C 3020.911 3295.634, 3018.869 3291.549, 3018.510 3289.757 C 3017.128 3282.861, 3015.635 3279.630, 3011.465 3274.510 C 3003.336 3264.530, 3002.494 3262.075, 3002.544 3248.500 C 3002.600 3233.090, 3007.203 3212.762, 3012.637 3203.928 C 3015.265 3199.656, 3016.667 3195.454, 3018.643 3185.928 C 3020.546 3176.754, 3022.209 3171.667, 3024.996 3166.500 C 3027.768 3161.361, 3029.470 3156.177, 3031.398 3147 C 3033.432 3137.317, 3034.688 3133.599, 3036.971 3130.500 C 3043.121 3122.153, 3045.403 3117.470, 3048.590 3106.652 C 3050.397 3100.519, 3053.442 3091, 3055.356 3085.500 C 3058.993 3075.050, 3063.623 3061.076, 3072.090 3035 C 3074.858 3026.475, 3078.433 3016.125, 3080.033 3012 C 3081.634 3007.875, 3084.762 2998.278, 3086.986 2990.672 C 3089.210 2983.067, 3091.721 2975.506, 3092.567 2973.870 C 3093.413 2972.234, 3095.840 2965.856, 3097.961 2959.697 C 3100.081 2953.539, 3102.751 2945.800, 3103.894 2942.500 C 3105.037 2939.200, 3107.589 2930.875, 3109.563 2924 C 3111.538 2917.125, 3114.640 2907.450, 3116.456 2902.500 C 3118.273 2897.550, 3121.683 2887.200, 3124.035 2879.500 C 3126.386 2871.800, 3129.320 2863.185, 3130.553 2860.356 C 3131.787 2857.527, 3133.984 2851.002, 3135.436 2845.856 C 3136.888 2840.710, 3140.172 2830.875, 3142.735 2824 C 3145.297 2817.125, 3148.831 2806.775, 3150.587 2801 C 3154.237 2789, 3162.681 2763.868, 3167.636 2750.261 C 3169.486 2745.179, 3171 2740.201, 3171 2739.198 C 3171 2738.195, 3173.025 2733.405, 3175.500 2728.555 C 3177.975 2723.704, 3180 2718.728, 3180 2717.496 C 3180 2713.046, 3184.879 2696.151, 3187.257 2692.369 C 3188.595 2690.241, 3190.442 2686.250, 3191.362 2683.500 C 3192.283 2680.750, 3194.379 2676.518, 3196.021 2674.095 C 3197.663 2671.672, 3199.461 2667.847, 3200.016 2665.595 C 3200.571 2663.343, 3202.195 2658.125, 3203.625 2654 C 3211.870 2630.213, 3214.178 2622.662, 3215.519 2615.095 C 3217.008 2606.694, 3217.477 2605.439, 3222.295 2597 C 3223.707 2594.525, 3225.573 2589.415, 3226.442 2585.645 C 3227.310 2581.874, 3229.324 2575.799, 3230.917 2572.145 C 3232.511 2568.490, 3235.013 2561.450, 3236.477 2556.500 C 3237.941 2551.550, 3239.967 2545.025, 3240.979 2542 C 3244.680 2530.938, 3251.386 2511.122, 3256.546 2496 C 3259.456 2487.475, 3262.345 2478.475, 3262.967 2476 C 3263.589 2473.525, 3265.855 2466.737, 3268.004 2460.915 C 3270.152 2455.094, 3273.265 2445.869, 3274.920 2440.415 C 3276.575 2434.962, 3280.446 2423.075, 3283.522 2414 C 3286.597 2404.925, 3289.792 2393.709, 3290.621 2389.076 C 3292.193 2380.290, 3293.066 2378.093, 3298.595 2369 C 3300.435 2365.975, 3302.664 2360.352, 3303.549 2356.505 C 3304.434 2352.657, 3307.321 2342.757, 3309.964 2334.505 C 3312.608 2326.252, 3315.302 2316.350, 3315.950 2312.500 C 3316.688 2308.116, 3318.409 2303.204, 3320.555 2299.355 C 3323.926 2293.308, 3328.907 2275.211, 3330.492 2263.252 C 3330.875 2260.359, 3332.262 2256.419, 3333.582 2254.474 C 3337.593 2248.563, 3338.849 2245.570, 3340.542 2237.880 C 3341.467 2233.674, 3343.594 2228.134, 3345.486 2225 C 3349.096 2219.019, 3351.171 2212.700, 3353.416 2200.852 C 3354.256 2196.416, 3356.358 2190.326, 3358.420 2186.352 C 3361.790 2179.855, 3368 2156.813, 3368 2150.801 C 3368 2149.494, 3369.097 2146.416, 3370.437 2143.962 C 3376.008 2133.764, 3377.177 2130.472, 3379.903 2117.305 C 3381.475 2109.712, 3384.652 2098.550, 3386.962 2092.500 C 3389.272 2086.450, 3391.980 2078.635, 3392.979 2075.134 C 3393.978 2071.632, 3395.672 2067.582, 3396.743 2066.134 C 3400.529 2061.012, 3401.848 2057.310, 3404.437 2044.524 C 3407.271 2030.532, 3411.038 2017.487, 3417.006 2001 C 3419.097 1995.225, 3422.229 1985.775, 3423.967 1980 C 3425.706 1974.225, 3428.432 1966.125, 3430.026 1962 C 3431.620 1957.875, 3434.462 1949.325, 3436.343 1943 C 3438.223 1936.675, 3442.338 1924.525, 3445.487 1916 C 3452.028 1898.294, 3455.533 1887.949, 3460.055 1873 C 3463.450 1861.780, 3476.941 1820.478, 3479.655 1813 C 3480.553 1810.525, 3482.975 1803.775, 3485.039 1798 C 3487.102 1792.225, 3489.464 1785.925, 3490.287 1784 C 3491.111 1782.075, 3492.316 1777.908, 3492.965 1774.740 C 3493.615 1771.572, 3495.175 1767.747, 3496.432 1766.240 C 3500.027 1761.933, 3501.746 1757.926, 3502.989 1750.958 C 3503.669 1747.148, 3505.702 1741.629, 3507.947 1737.500 C 3510.737 1732.370, 3512.468 1727.163, 3514.427 1718.006 C 3516.348 1709.031, 3518.089 1703.746, 3520.606 1699.244 C 3523.377 1694.288, 3525.029 1688.848, 3528.502 1673.239 C 3534.594 1645.855, 3538.133 1635.793, 3545.658 1624.460 C 3547.803 1621.230, 3549.884 1616.001, 3551.431 1609.955 C 3552.762 1604.755, 3555.456 1597.048, 3557.419 1592.830 C 3560.529 1586.143, 3561.442 1585.009, 3564.537 1583.988 C 3566.490 1583.343, 3570.037 1581.328, 3572.419 1579.510 C 3579.085 1574.421, 3581.111 1573.533, 3603.900 1565.700 C 3609.053 1563.929, 3611.099 1562.550, 3614.400 1558.625 C 3616.655 1555.944, 3619.984 1552.737, 3621.799 1551.500 C 3625.820 1548.757, 3637.310 1531.604, 3639.434 1525.173 C 3640.283 1522.603, 3641.438 1516.028, 3642.001 1510.562 C 3643.159 1499.318, 3644.368 1494.159, 3647.104 1488.795 C 3649.540 1484.022, 3649.512 1478.923, 3647.023 1474.046 C 3645.936 1471.915, 3644.568 1467.996, 3643.983 1465.336 C 3642.420 1458.235, 3636.189 1442.574, 3633.144 1438.096 C 3631.690 1435.958, 3628.593 1432.627, 3626.263 1430.694 C 3623.933 1428.761, 3620.722 1425.876, 3619.129 1424.283 C 3617.536 1422.690, 3614.404 1420.838, 3612.170 1420.169 C 3609.935 1419.499, 3605.813 1416.994, 3603.010 1414.602 C 3599.483 1411.591, 3595.695 1409.547, 3590.707 1407.964 C 3584.074 1405.858, 3581.361 1405.651, 3556.657 1405.363 C 3533.547 1405.094, 3529.305 1405.278, 3526.157 1406.681 C 3521.392 1408.805, 3496.758 1409.714, 3488.790 1408.060 C 3484.372 1407.143, 3482.487 1406.098, 3479.577 1402.953 C 3477.565 1400.778, 3474.024 1398.053, 3471.709 1396.896 C 3469.394 1395.740, 3465.409 1392.765, 3462.854 1390.286 C 3459.401 1386.938, 3456.447 1385.210, 3451.354 1383.562 C 3445.619 1381.706, 3443.955 1380.631, 3441.160 1376.976 C 3437.771 1372.545, 3426.009 1363.332, 3416 1357.269 C 3412.975 1355.437, 3408.250 1352.362, 3405.500 1350.437 C 3402.750 1348.511, 3396.331 1344.191, 3391.235 1340.836 C 3385.862 1337.299, 3379.845 1332.284, 3376.914 1328.901 C 3374.134 1325.692, 3369.304 1321.613, 3366.180 1319.837 C 3363.056 1318.061, 3355.862 1313.433, 3350.193 1309.554 C 3344.524 1305.674, 3336.375 1300.223, 3332.085 1297.440 C 3327.795 1294.657, 3322.083 1290.777, 3319.392 1288.819 C 3316.702 1286.861, 3312.971 1284.480, 3311.102 1283.527 C 3306.045 1280.950, 3294.057 1271.790, 3289.500 1267.021 C 3284.980 1262.291, 3281.867 1260.447, 3274.918 1258.383 C 3271.266 1257.298, 3269.170 1255.819, 3266.297 1252.297 C 3261.249 1246.111, 3238.716 1229.689, 3222.897 1220.668 C 3220.165 1219.110, 3214.008 1213.935, 3209.215 1209.168 C 3204.422 1204.401, 3197.800 1198.959, 3194.500 1197.075 C 3191.200 1195.191, 3185.800 1191.709, 3182.500 1189.336 C 3171.739 1181.599, 3160.598 1174.098, 3155.667 1171.271 C 3153.009 1169.747, 3147.203 1165.912, 3142.763 1162.750 C 3138.324 1159.588, 3134.248 1157, 3133.706 1157 C 3133.163 1157, 3128.395 1152.771, 3123.110 1147.601 C 3117.109 1141.732, 3110.529 1136.457, 3105.590 1133.556 C 3101.239 1131, 3096.366 1127.803, 3094.761 1126.452 C 3093.155 1125.101, 3088.833 1122.238, 3085.156 1120.091 C 3081.402 1117.899, 3076.592 1113.959, 3074.189 1111.109 C 3068.010 1103.781, 3064.294 1101.284, 3052.286 1096.390 C 3042.082 1092.232, 3041.251 1091.663, 3034.236 1084.039 C 3028.950 1078.294, 3024.298 1074.487, 3017.691 1070.498 C 3012.636 1067.445, 3005.575 1062.929, 3002 1060.461 C 2998.425 1057.993, 2992.575 1053.949, 2989 1051.473 C 2985.425 1048.997, 2979.747 1045.291, 2976.382 1043.236 C 2967.574 1037.857, 2958.406 1031.768, 2951.415 1026.653 C 2948.068 1024.204, 2943.020 1021.030, 2940.198 1019.600 C 2937.376 1018.170, 2932.787 1014.975, 2930 1012.500 C 2927.213 1010.025, 2924.213 1008, 2923.333 1008 C 2922.453 1008, 2919.515 1005.747, 2916.805 1002.994 C 2914.095 1000.241, 2910.443 997.259, 2908.689 996.368 C 2906.935 995.477, 2902.792 992.218, 2899.483 989.124 C 2896.174 986.031, 2888.856 980.575, 2883.221 977 C 2877.586 973.425, 2869.044 967.753, 2864.238 964.396 C 2859.432 961.039, 2853.475 957.280, 2851 956.042 C 2848.525 954.804, 2844.700 952.059, 2842.500 949.943 C 2840.300 947.826, 2836.925 945.438, 2835 944.635 C 2833.075 943.832, 2828.350 940.842, 2824.500 937.990 C 2820.650 935.137, 2815.388 931.728, 2812.807 930.414 C 2810.225 929.099, 2806.655 926.209, 2804.873 923.992 C 2800.243 918.230, 2792.377 912.459, 2785.640 909.881 C 2781.380 908.251, 2778.767 906.396, 2775.844 902.930 C 2773.545 900.204, 2769.262 896.819, 2765.725 894.934 C 2762.352 893.136, 2757.772 889.999, 2755.546 887.962 C 2753.321 885.926, 2749.475 883.246, 2747 882.008 C 2739.393 878.202, 2730.262 871.192, 2727.007 866.659 C 2725.302 864.286, 2722.094 861.254, 2719.877 859.922 C 2717.660 858.590, 2713.293 855.650, 2710.173 853.388 C 2707.053 851.127, 2702.025 848.473, 2699 847.490 C 2694.859 846.145, 2692.033 844.238, 2687.561 839.772 C 2684.294 836.511, 2679.416 832.724, 2676.720 831.358 C 2674.025 829.992, 2669.948 827.164, 2667.660 825.074 C 2665.372 822.983, 2661.475 820.377, 2659 819.282 C 2656.525 818.187, 2652.260 815.428, 2649.522 813.149 C 2646.784 810.870, 2642.580 808.083, 2640.179 806.954 C 2637.779 805.826, 2631.892 800.964, 2627.096 796.151 C 2622.301 791.337, 2616.943 786.859, 2615.189 786.200 C 2613.435 785.540, 2610.563 784.459, 2608.807 783.799 C 2607.050 783.138, 2603.469 780.693, 2600.848 778.365 C 2598.227 776.037, 2593.927 772.898, 2591.291 771.389 C 2588.656 769.880, 2583.946 766.250, 2580.824 763.323 C 2577.703 760.395, 2574.413 758, 2573.514 758 C 2572.616 758, 2569.545 755.808, 2566.690 753.129 C 2563.836 750.451, 2560.102 747.548, 2558.393 746.678 C 2556.685 745.808, 2553.085 742.785, 2550.393 739.958 C 2547.702 737.132, 2543.322 733.707, 2540.660 732.347 C 2537.998 730.987, 2533.948 728.171, 2531.660 726.090 C 2529.372 724.008, 2524.125 720.563, 2520 718.436 C 2514.569 715.635, 2510.250 712.289, 2504.345 706.308 C 2499.859 701.765, 2493.559 696.495, 2490.345 694.596 C 2487.130 692.697, 2482.968 689.999, 2481.095 688.601 C 2479.222 687.202, 2475.527 685.339, 2472.884 684.461 C 2469.523 683.345, 2466.488 681.204, 2462.789 677.342 C 2459.880 674.304, 2455.250 670.677, 2452.500 669.282 C 2449.750 667.887, 2445.618 665.022, 2443.317 662.914 C 2441.017 660.807, 2437.469 658.387, 2435.433 657.536 C 2433.396 656.685, 2428.753 653.798, 2425.115 651.121 C 2421.477 648.443, 2416.925 645.468, 2415 644.509 C 2410.545 642.290, 2407.197 639.243, 2405.382 635.756 C 2403.583 632.297, 2392.096 624.525, 2385.590 622.364 C 2382.049 621.188, 2379.217 619.188, 2375.576 615.294 C 2372.784 612.307, 2367.776 608.330, 2364.447 606.456 C 2361.118 604.582, 2357.293 601.867, 2355.947 600.424 C 2354.601 598.980, 2350.800 596.433, 2347.500 594.762 C 2344.200 593.092, 2339.025 589.848, 2336 587.555 C 2332.975 585.261, 2328.402 582.177, 2325.837 580.701 C 2323.272 579.225, 2320.174 576.400, 2318.952 574.422 C 2316.100 569.808, 2306.153 562.570, 2299.041 559.934 C 2295.237 558.523, 2291.619 556.049, 2287.500 552.041 C 2284.200 548.829, 2279.475 545.209, 2277 543.996 C 2274.525 542.783, 2270.700 540.059, 2268.500 537.943 C 2266.300 535.826, 2262.700 533.358, 2260.500 532.458 C 2258.300 531.559, 2254.025 528.899, 2251 526.549 C 2247.975 524.198, 2243.250 521.133, 2240.500 519.737 C 2235.393 517.144, 2232.723 514.676, 2229.617 509.682 C 2227.462 506.216, 2217.215 499.591, 2210.576 497.371 C 2207.053 496.192, 2204.209 494.176, 2200.576 490.280 C 2197.784 487.286, 2193.025 483.566, 2190 482.013 C 2186.975 480.460, 2183.150 477.754, 2181.500 476 C 2179.850 474.246, 2175.800 471.442, 2172.500 469.770 C 2169.200 468.097, 2164.025 464.805, 2161 462.455 C 2157.975 460.105, 2153.356 457.188, 2150.734 455.973 C 2148.113 454.759, 2145.005 452.412, 2143.828 450.758 C 2142.650 449.105, 2139.395 446.727, 2136.593 445.474 C 2133.792 444.222, 2129.925 441.538, 2128 439.511 C 2126.075 437.483, 2122.925 435.001, 2121 433.993 C 2119.075 432.986, 2115.250 429.848, 2112.500 427.020 C 2109.750 424.193, 2104.912 420.494, 2101.750 418.800 C 2098.588 417.107, 2096 415.383, 2096 414.969 C 2096 414.555, 2093.876 411.854, 2091.279 408.966 C 2086.638 403.803, 2086.563 403.613, 2086.808 397.608 C 2087.087 390.786, 2084.539 384.309, 2077.523 374 C 2073.973 368.784, 2073.811 368.201, 2074.380 362.697 C 2074.874 357.927, 2074.553 355.879, 2072.582 351.194 C 2071.263 348.060, 2069.431 342.591, 2068.511 339.042 C 2066.544 331.450, 2064.847 327.914, 2060.613 322.576 C 2058.901 320.418, 2056.375 316.606, 2055 314.105 C 2053.285 310.986, 2050.897 308.608, 2047.395 306.529 C 2044.587 304.863, 2037.612 300.383, 2031.895 296.573 C 2026.178 292.764, 2018.350 288.299, 2014.500 286.652 C 2008.316 284.007, 2006.217 283.632, 1996.500 283.441 C 1990.450 283.322, 1980.775 283.542, 1975 283.930 M 2048.405 415.135 C 2044.791 419.184, 2033.537 427.120, 2026.528 430.560 C 2014.622 436.404, 2004.714 438.344, 1990.037 437.702 C 1983.142 437.401, 1975.213 436.505, 1972.417 435.712 C 1968.859 434.702, 1967.315 434.604, 1967.274 435.384 C 1967.241 435.998, 1959.349 453.150, 1949.736 473.500 C 1940.123 493.850, 1925.499 524.900, 1917.239 542.500 C 1908.978 560.100, 1891.645 597, 1878.720 624.500 C 1865.795 652, 1846.896 692.275, 1836.722 714 C 1826.547 735.725, 1809.121 772.850, 1797.996 796.500 C 1786.872 820.150, 1774.950 845.834, 1771.503 853.575 C 1768.056 861.316, 1720.858 962.411, 1666.618 1078.230 C 1612.378 1194.049, 1568 1289.218, 1568 1289.716 C 1568 1290.215, 1570.926 1293.043, 1574.502 1296.001 C 1589.765 1308.627, 1598.913 1325.477, 1602.012 1346.670 C 1603.410 1356.231, 1601.824 1367.316, 1597.042 1381.409 C 1594.704 1388.302, 1594.281 1390.633, 1595.174 1391.710 C 1595.809 1392.475, 1600.192 1395.870, 1604.914 1399.255 C 1609.636 1402.639, 1617.550 1408.398, 1622.500 1412.052 C 1634.774 1421.113, 1735.793 1494.538, 1771.500 1520.352 C 1787.450 1531.883, 1802.750 1542.986, 1805.500 1545.025 C 1813.425 1550.903, 1958.954 1656.314, 1982.768 1673.426 L 1995.036 1682.242 1999.124 1679.537 C 2005.085 1675.592, 2091.896 1613.253, 2179.500 1550.008 C 2205.900 1530.949, 2241.450 1505.312, 2258.500 1493.036 C 2275.550 1480.761, 2296.475 1465.681, 2305 1459.527 C 2330.064 1441.432, 2379.830 1405.816, 2388.647 1399.663 C 2393.128 1396.536, 2397.027 1393.371, 2397.312 1392.631 C 2397.596 1391.890, 2396.299 1387.213, 2394.431 1382.238 C 2389.386 1368.808, 2387.532 1356.652, 2388.989 1346.556 C 2393.706 1313.865, 2414.352 1290.037, 2445.030 1281.874 C 2466.335 1276.205, 2491.314 1281.728, 2509.164 1296.053 C 2525.244 1308.958, 2534.360 1325.978, 2537.189 1348.377 L 2538.354 1357.602 2541.427 1357.826 C 2543.117 1357.950, 2553.500 1359.163, 2564.500 1360.523 C 2575.500 1361.883, 2605.425 1365.487, 2631 1368.533 C 2656.575 1371.578, 2694.375 1376.094, 2715 1378.569 C 2735.625 1381.043, 2772.975 1385.509, 2798 1388.493 C 2823.025 1391.478, 2862.400 1396.198, 2885.500 1398.982 C 2908.600 1401.767, 2940.775 1405.626, 2957 1407.558 C 2973.225 1409.490, 3004.950 1413.292, 3027.500 1416.006 C 3050.050 1418.721, 3089.200 1423.433, 3114.500 1426.478 C 3139.800 1429.522, 3166.125 1432.690, 3173 1433.518 C 3186.493 1435.142, 3216.297 1438.717, 3314.500 1450.490 C 3349.150 1454.644, 3384.700 1458.919, 3393.500 1459.990 C 3402.300 1461.060, 3418.950 1463.084, 3430.500 1464.487 C 3470.546 1469.353, 3488.474 1472.069, 3489.404 1473.410 C 3490.031 1474.313, 3491.361 1471.763, 3493.737 1465.106 C 3495.623 1459.823, 3497.241 1454.606, 3497.333 1453.514 C 3497.459 1452.016, 3493.549 1448.697, 3481.430 1440.014 C 3430 1403.164, 3407.702 1387.174, 3354.500 1348.991 C 3322.050 1325.702, 3282.225 1297.137, 3266 1285.515 C 3249.775 1273.892, 3189.475 1230.693, 3132 1189.518 C 3074.525 1148.342, 3019.941 1109.309, 3010.702 1102.776 C 2993.334 1090.496, 2911.699 1032.065, 2824.500 969.500 C 2797 949.769, 2727.925 900.265, 2671 859.491 C 2614.075 818.717, 2558.500 778.895, 2547.500 770.997 C 2536.500 763.099, 2491.275 730.696, 2447 698.990 C 2402.725 667.284, 2350.300 629.707, 2330.500 615.486 C 2310.700 601.265, 2263.665 567.551, 2225.978 540.565 C 2081.112 436.833, 2050.205 414.478, 2050.654 413.751 C 2051.588 412.240, 2050.259 413.057, 2048.405 415.135 M 1933.890 416.310 C 1932.025 417.580, 1919.025 426.888, 1905 436.993 C 1890.975 447.098, 1857.980 470.820, 1831.679 489.709 C 1805.377 508.597, 1765.552 537.231, 1743.179 553.340 C 1720.805 569.448, 1690.350 591.341, 1675.500 601.990 C 1660.650 612.640, 1629.150 635.312, 1605.500 652.372 C 1581.850 669.433, 1556.425 687.720, 1549 693.010 C 1541.575 698.300, 1501.525 727.087, 1460 756.981 C 1418.475 786.874, 1361.325 827.979, 1333 848.324 C 1304.675 868.669, 1263.050 898.611, 1240.500 914.863 C 1198.399 945.205, 1176.429 961.003, 1038.500 1060.118 C 994.500 1091.736, 937.350 1132.850, 911.500 1151.484 C 885.650 1170.117, 849.650 1195.994, 831.500 1208.988 C 813.350 1221.983, 775.775 1248.986, 748 1268.996 C 720.225 1289.005, 681.075 1317.138, 661 1331.512 C 640.925 1345.887, 608.975 1368.831, 590 1382.500 C 571.025 1396.168, 542 1417.002, 525.500 1428.796 C 509 1440.591, 495.001 1450.639, 494.391 1451.126 C 493.605 1451.753, 494.256 1454.603, 496.625 1460.909 C 501.605 1474.168, 503.465 1486.396, 502.012 1496.330 C 500.054 1509.718, 495.843 1521.236, 489.276 1531.159 L 486.789 1534.917 488.807 1537.482 C 489.917 1538.893, 499.752 1548.440, 510.662 1558.697 C 521.573 1568.955, 540.625 1586.871, 553 1598.512 C 565.375 1610.153, 594.425 1637.412, 617.555 1659.089 C 640.685 1680.765, 691.964 1728.875, 731.508 1766 C 771.053 1803.125, 817.845 1847, 835.491 1863.500 C 866.007 1892.034, 957.910 1978.245, 996.519 2014.554 C 1006.429 2023.875, 1036.354 2051.962, 1063.019 2076.972 C 1089.683 2101.981, 1125.900 2135.989, 1143.500 2152.544 C 1161.100 2169.099, 1177.376 2184.319, 1179.669 2186.365 L 1183.839 2190.087 1190.669 2185.132 C 1205.429 2174.425, 1218.742 2169.893, 1235.500 2169.870 C 1252.847 2169.847, 1270.127 2176.011, 1283.852 2187.116 L 1290.132 2192.198 1295.021 2188.849 C 1299.313 2185.910, 1496.738 2043.303, 1567.500 1992.030 C 1704.996 1892.400, 1694.261 1900.441, 1693.459 1897.694 C 1691.966 1892.581, 1633.958 1710.761, 1624.484 1681.500 C 1618.785 1663.900, 1599.894 1604.950, 1582.504 1550.500 C 1565.114 1496.050, 1549.231 1446.416, 1547.210 1440.203 C 1544.042 1430.468, 1543.739 1428.764, 1545.017 1427.882 C 1546.071 1427.154, 1545.093 1427.045, 1541.641 1427.506 C 1513.958 1431.203, 1487.553 1421.436, 1470.686 1401.258 C 1464.477 1393.831, 1457.637 1379.655, 1455.362 1369.500 C 1449.484 1343.263, 1459.744 1314.021, 1481 1296.432 C 1488.261 1290.424, 1502.709 1283.438, 1511.815 1281.531 C 1521.171 1279.573, 1534.849 1279.575, 1544.172 1281.536 C 1552.752 1283.341, 1552.300 1283.647, 1557.484 1272.500 C 1563.929 1258.640, 1686.915 996.064, 1716.734 932.500 C 1733.505 896.750, 1758.596 843.200, 1772.492 813.500 C 1786.388 783.800, 1803.037 748.250, 1809.490 734.500 C 1815.943 720.750, 1834.502 681.150, 1850.732 646.500 C 1866.961 611.850, 1895.772 550.425, 1914.755 510 C 1949.369 436.288, 1953 428.423, 1953 427.145 C 1953 426.471, 1938.463 414, 1937.677 414 C 1937.458 414, 1935.754 415.039, 1933.890 416.310 M 2533.968 1376.711 C 2531.787 1383.525, 2525.127 1395.374, 2519.893 1401.754 C 2509.109 1414.901, 2492.387 1424.382, 2474.504 1427.489 C 2469.604 1428.340, 2454.268 1428.328, 2449.691 1427.470 C 2447.251 1427.012, 2446.330 1427.203, 2446.321 1428.170 C 2446.308 1429.564, 2439.507 1450.600, 2399.497 1573 C 2360.704 1691.674, 2307.734 1854.640, 2296.388 1890.220 C 2294.858 1895.016, 2293.808 1899.111, 2294.054 1899.320 C 2294.864 1900.008, 2317.116 1916.421, 2342 1934.686 C 2369.520 1954.885, 2386.534 1967.290, 2536.500 2076.492 C 2594.800 2118.945, 2655.196 2162.976, 2670.713 2174.340 C 2686.230 2185.703, 2699.347 2195, 2699.861 2195 C 2700.375 2195, 2704.329 2192.044, 2708.648 2188.431 C 2717.740 2180.824, 2730.946 2174.070, 2742 2171.373 C 2756.944 2167.726, 2774.885 2169.940, 2790.500 2177.357 C 2821.271 2191.972, 2838.648 2228.920, 2830.074 2261.500 C 2823.671 2285.828, 2808.407 2303.302, 2784.789 2313.340 C 2780.964 2314.965, 2778.312 2316.666, 2778.560 2317.335 C 2778.797 2317.976, 2788.646 2373.175, 2800.447 2440 C 2812.247 2506.825, 2830.249 2608.750, 2840.450 2666.500 C 2850.652 2724.250, 2859.894 2775.775, 2860.989 2781 C 2862.702 2789.182, 2910.122 3055.294, 2936.743 3206.116 L 2945.500 3255.733 2956 3256.275 C 2961.775 3256.574, 2966.550 3256.746, 2966.611 3256.659 C 2967.731 3255.060, 3531.998 1559.228, 3531.783 1558.110 C 3531.613 1557.231, 3529.231 1555.052, 3526.487 1553.267 C 3504.995 1539.284, 3493.683 1521.603, 3489.966 1496.181 L 3488.783 1488.090 3484.642 1487.538 C 3482.364 1487.234, 3461.375 1484.726, 3438 1481.963 C 3414.625 1479.201, 3382.450 1475.366, 3366.500 1473.441 C 3350.550 1471.516, 3324.225 1468.378, 3308 1466.467 C 3291.775 1464.557, 3271.300 1462.096, 3262.500 1460.998 C 3253.700 1459.901, 3221.975 1456.082, 3192 1452.512 C 3162.025 1448.942, 3133.900 1445.566, 3129.500 1445.010 C 3125.100 1444.454, 3112.050 1442.879, 3100.500 1441.511 C 3088.950 1440.142, 3053.400 1435.884, 3021.500 1432.047 C 2989.600 1428.211, 2944.375 1422.794, 2921 1420.009 C 2897.625 1417.224, 2869.500 1413.844, 2858.500 1412.498 C 2847.500 1411.151, 2823.200 1408.237, 2804.500 1406.022 C 2785.800 1403.806, 2759.475 1400.653, 2746 1399.015 C 2706.110 1394.164, 2572.855 1378.061, 2555 1375.933 C 2545.925 1374.852, 2537.753 1373.732, 2536.840 1373.445 C 2535.609 1373.057, 2534.868 1373.900, 2533.968 1376.711 M 1579.500 1407.570 C 1576.200 1410.582, 1570.261 1415.143, 1566.302 1417.703 C 1562.343 1420.264, 1559.252 1422.616, 1559.433 1422.930 C 1559.613 1423.243, 1562.473 1432.050, 1565.788 1442.500 C 1571.612 1460.861, 1617.366 1603.703, 1655.316 1722 C 1665.461 1753.625, 1681.532 1803.800, 1691.030 1833.500 C 1700.527 1863.200, 1708.569 1887.816, 1708.900 1888.201 C 1709.446 1888.836, 1728.200 1875.722, 1778 1839.884 C 1869.851 1773.783, 1979.957 1693.695, 1979.938 1693 C 1979.930 1692.725, 1975.554 1689.316, 1970.212 1685.424 C 1957.526 1676.180, 1932.235 1657.701, 1919 1648.004 C 1891.120 1627.577, 1813.462 1571.048, 1696 1485.678 C 1620.525 1430.823, 1585.544 1404.834, 1585.639 1403.684 C 1585.715 1402.758, 1585.715 1402.021, 1585.639 1402.046 C 1585.563 1402.071, 1582.800 1404.557, 1579.500 1407.570 M 2386.726 1421.372 C 2356.281 1443.224, 2255.707 1515.841, 2215.280 1545.161 C 2196.459 1558.811, 2169.009 1578.678, 2154.280 1589.309 C 2128.485 1607.928, 2094.377 1632.629, 2037.740 1673.705 L 2010.980 1693.112 2013.740 1695.420 C 2016.329 1697.585, 2044.810 1718.610, 2097 1756.884 C 2130.870 1781.723, 2245.421 1865.091, 2262.399 1877.257 C 2270.593 1883.129, 2277.670 1887.704, 2278.125 1887.423 C 2279.092 1886.825, 2318.220 1768.146, 2365.468 1622.500 C 2405.155 1500.160, 2430.296 1424.378, 2431.465 1423.565 C 2432.465 1422.870, 2431.002 1421.517, 2425.747 1418.277 C 2421.863 1415.882, 2416.556 1412.140, 2413.954 1409.962 C 2411.352 1407.783, 2408.980 1406, 2408.683 1406 C 2408.386 1406, 2398.506 1412.917, 2386.726 1421.372 M 476.561 1545.902 C 476.254 1546.398, 471.780 1549.324, 466.618 1552.404 C 457.532 1557.826, 455.415 1560.190, 457.033 1563.108 C 457.458 1563.874, 464.857 1586.325, 473.476 1613 C 482.096 1639.675, 498.534 1690.525, 510.005 1726 C 542.452 1826.342, 570.053 1911.785, 609.499 2034 C 629.470 2095.875, 659.990 2190.375, 677.321 2244 C 694.653 2297.625, 741.075 2441.400, 780.482 2563.500 C 819.890 2685.600, 857.014 2800.575, 862.981 2819 C 888.617 2898.160, 983.159 3191.369, 998.022 3237.815 C 1001.422 3248.438, 1004.454 3256.880, 1004.760 3256.574 C 1005.066 3256.268, 1005.807 3256.391, 1006.408 3256.848 C 1007.009 3257.304, 1010.650 3257.378, 1014.500 3257.012 C 1028.940 3255.637, 1045.438 3259.190, 1058.667 3266.522 C 1063.110 3268.985, 1068.911 3273.703, 1075.250 3280.009 C 1080.612 3285.343, 1085 3289.371, 1085 3288.959 C 1085 3288.018, 1075.863 3293.134, 1260 3190.992 C 1345.525 3143.550, 1435.975 3093.377, 1461 3079.494 C 1486.025 3065.612, 1537.325 3037.157, 1575 3016.262 C 1612.675 2995.367, 1676.575 2959.921, 1717 2937.493 C 1854.182 2861.385, 1910.404 2830.313, 1916.567 2827.200 C 1923.029 2823.936, 1923.146 2823.572, 1920.947 2813.512 C 1918.587 2802.713, 1918.422 2788.893, 1920.531 2778.815 C 1922.481 2769.500, 1929.436 2755.262, 1935.900 2747.353 C 1940.141 2742.165, 1952.111 2732.147, 1958.446 2728.485 C 1960.049 2727.558, 1957.705 2719.683, 1931.507 2637.985 C 1828.761 2317.577, 1808.779 2255.446, 1808.333 2255 C 1808.059 2254.725, 1696.046 2254.360, 1559.417 2254.189 C 1327.057 2253.899, 1310.995 2253.769, 1310.921 2252.189 C 1310.821 2250.053, 1310.585 2250.813, 1308.493 2260 C 1300.827 2293.663, 1270.674 2318.043, 1236.500 2318.208 C 1224.805 2318.265, 1214.703 2315.898, 1203.500 2310.475 C 1183.219 2300.659, 1169.489 2283.543, 1163.875 2261.077 C 1162.118 2254.048, 1161.851 2250.655, 1162.261 2240.577 C 1162.803 2227.237, 1164.906 2219.575, 1171.363 2207.414 C 1173.265 2203.834, 1174.270 2201.361, 1173.598 2201.918 C 1172.702 2202.662, 1160.014 2191.317, 1125.938 2159.301 C 1100.397 2135.304, 1039.677 2078.282, 991.005 2032.585 C 942.333 1986.888, 895.308 1942.717, 886.505 1934.426 C 877.702 1926.135, 859.005 1908.585, 844.955 1895.426 C 763.752 1819.369, 739.741 1796.845, 724 1781.964 C 714.375 1772.864, 691.866 1751.712, 673.980 1734.960 C 656.094 1718.207, 619.899 1684.250, 593.546 1659.500 C 567.193 1634.750, 541.777 1610.927, 537.066 1606.560 C 532.354 1602.194, 518.150 1588.881, 505.500 1576.977 C 492.850 1565.073, 480.925 1553.935, 479 1552.226 C 475.888 1549.464, 475.640 1548.891, 476.758 1547.060 C 477.451 1545.927, 477.815 1545, 477.567 1545 C 477.320 1545, 476.867 1545.406, 476.561 1545.902 M 1961.430 1728.784 C 1943.242 1741.828, 1918.042 1759.901, 1905.430 1768.948 C 1892.819 1777.994, 1876.596 1789.757, 1869.381 1795.088 C 1862.165 1800.419, 1838.315 1817.722, 1816.381 1833.539 C 1794.446 1849.357, 1766.150 1869.791, 1753.500 1878.949 C 1740.850 1888.106, 1727.422 1897.783, 1723.660 1900.451 C 1719.899 1903.120, 1716.579 1905.934, 1716.283 1906.705 C 1715.619 1908.436, 1720.002 1922.893, 1743.357 1996 C 1768.945 2076.096, 1818.642 2230.829, 1820.038 2234.750 L 1821.196 2238 1992.886 2238 L 2164.577 2238 2193.249 2150.250 C 2223.439 2057.855, 2259.701 1946.341, 2267.421 1922.154 C 2269.939 1914.264, 2271.985 1907.064, 2271.967 1906.154 C 2271.948 1905.215, 2267.086 1901.001, 2260.717 1896.404 C 2243.960 1884.309, 2114.110 1789.908, 2102 1781.016 C 2096.225 1776.776, 2080.057 1765.025, 2066.072 1754.903 C 2052.086 1744.782, 2030.936 1729.426, 2019.072 1720.781 C 2007.207 1712.135, 1996.825 1705.063, 1996 1705.065 C 1995.175 1705.066, 1979.619 1715.740, 1961.430 1728.784 M 2287.186 1918.682 C 2286.276 1920.410, 2258.592 2004.524, 2206.576 2163.603 C 2193.609 2203.259, 2183 2236.445, 2183 2237.349 C 2183 2238.868, 2201.879 2239.011, 2433.500 2239.246 L 2684 2239.500 2684 2236.910 C 2684 2233.238, 2687.482 2220.085, 2690.305 2213.098 C 2691.750 2209.519, 2692.215 2207.364, 2691.482 2207.645 C 2690.112 2208.171, 2665.839 2190.887, 2567 2119.006 C 2542.525 2101.206, 2511.250 2078.476, 2497.500 2068.494 C 2483.750 2058.511, 2442.350 2028.362, 2405.500 2001.495 C 2341.918 1955.138, 2296.714 1922.469, 2290.822 1918.615 C 2288.260 1916.940, 2288.101 1916.943, 2287.186 1918.682 M 1666 1942.282 C 1624.771 1971.803, 1534.143 2037.080, 1497 2064.009 C 1481.325 2075.373, 1450.500 2097.640, 1428.500 2113.490 C 1406.500 2129.340, 1384.675 2145.092, 1380 2148.494 C 1375.325 2151.897, 1355.750 2165.890, 1336.500 2179.590 C 1317.249 2193.291, 1301.404 2204.831, 1301.288 2205.236 C 1301.171 2205.641, 1302.594 2210.165, 1304.449 2215.290 C 1306.304 2220.415, 1308.356 2227.323, 1309.009 2230.642 L 1310.196 2236.676 1361.848 2237.337 C 1429.051 2238.197, 1799.021 2238.065, 1801.086 2237.180 C 1802.432 2236.602, 1798.876 2224.674, 1777.478 2158 C 1714.185 1960.777, 1700.778 1919.758, 1699.474 1919.330 C 1698.938 1919.155, 1683.875 1929.483, 1666 1942.282 M 1827.517 2257.250 C 1828.659 2261.189, 1883.570 2433.470, 1891.981 2459.500 C 1906.097 2503.188, 1962.609 2679.690, 1969.251 2700.834 L 1975.639 2721.168 1992.823 2721.334 C 2002.275 2721.425, 2009.556 2721.350, 2009.004 2721.167 C 2008.452 2720.983, 2008 2720.129, 2008 2719.269 C 2008 2718.006, 2066.796 2536.957, 2105.513 2419 C 2110.116 2404.975, 2123.867 2362.900, 2136.071 2325.500 C 2148.274 2288.100, 2158.474 2256.938, 2158.736 2256.250 C 2159.117 2255.253, 2125.567 2255, 1993.040 2255 L 1826.865 2255 1827.517 2257.250 M 2164.106 2294.750 C 2156.968 2316.613, 2127.959 2405.375, 2099.642 2492 C 2071.325 2578.625, 2042.608 2666.487, 2035.828 2687.249 C 2027.344 2713.227, 2023.060 2724.999, 2022.090 2724.999 C 2021.315 2725, 2024.335 2727.196, 2028.801 2729.881 C 2047.960 2741.395, 2059.530 2756.576, 2065.096 2777.500 C 2070.677 2798.479, 2065.178 2823.446, 2051.109 2841 C 2032.838 2863.799, 2002.254 2874.306, 1975.107 2867.109 C 1959.172 2862.885, 1947.771 2855.494, 1934.081 2840.514 C 1931.651 2837.855, 1929.911 2836.326, 1930.215 2837.117 C 1930.777 2838.581, 1928.966 2839.608, 1795 2913.791 C 1737.038 2945.887, 1585.977 3029.593, 1560 3044.010 C 1523.047 3064.519, 1309.308 3182.916, 1286 3195.788 C 1244.083 3218.938, 1208.117 3238.821, 1164 3263.235 C 1103.030 3296.975, 1093.191 3302.236, 1092.202 3301.625 C 1091.718 3301.326, 1092.501 3306.350, 1093.943 3312.790 L 1096.564 3324.500 1986.528 3324.500 L 2876.492 3324.500 2878.279 3316 C 2880.566 3305.127, 2887.187 3291.501, 2894.425 3282.775 C 2900.838 3275.043, 2911.303 3267.259, 2921.750 3262.451 C 2927.970 3259.588, 2929 3258.753, 2929 3256.575 C 2929 3255.179, 2913.684 3167.516, 2894.965 3061.768 C 2876.246 2956.021, 2858.233 2854.200, 2854.935 2835.500 C 2851.638 2816.800, 2847.836 2795.875, 2846.487 2789 C 2845.137 2782.125, 2830.324 2699.100, 2813.569 2604.500 C 2796.814 2509.900, 2778.756 2407.975, 2773.440 2378 C 2768.125 2348.025, 2763.770 2322.550, 2763.763 2321.389 C 2763.751 2319.480, 2763.016 2319.218, 2756.125 2318.657 C 2745.754 2317.815, 2733.333 2314.670, 2725.730 2310.964 C 2706.959 2301.811, 2692.313 2284.320, 2686.405 2264 L 2684.225 2256.500 2622.862 2255.895 C 2589.113 2255.562, 2475.007 2255.225, 2369.292 2255.145 L 2177.085 2255 2164.106 2294.750" stroke="none" fill="#fbfbfb" fill-rule="evenodd"/></svg>