<?xml version="1.0" standalone="no"?>
<!DOCTYPE svg PUBLIC "-//W3C//DTD SVG 20010904//EN"
 "http://www.w3.org/TR/2001/REC-SVG-20010904/DTD/svg10.dtd">
<svg version="1.0" xmlns="http://www.w3.org/2000/svg"
 width="270.000000pt" height="270.000000pt" viewBox="0 0 270.000000 270.000000"
 preserveAspectRatio="xMidYMid meet">
<metadata>
Created by potrace 1.14, written by Peter Selinger 2001-2017
</metadata>
<g transform="translate(0.000000,270.000000) scale(0.100000,-0.100000)"
fill="#000000" stroke="none">
<path d="M440 2580 c0 -34 12 -37 70 -20 116 35 203 -20 203 -126 0 -90 -84
-150 -175 -124 -78 22 -93 19 -96 -17 -3 -29 0 -33 35 -42 54 -15 160 -13 223
4 145 40 144 40 192 16 59 -28 83 -71 76 -136 -4 -35 -14 -55 -35 -77 -45 -45
-84 -49 -189 -21 -92 25 -211 32 -269 15 -25 -7 -30 -14 -33 -45 -3 -30 0 -37
15 -38 10 -1 187 -2 393 -3 206 -1 381 -5 388 -9 6 -5 12 -19 12 -33 0 -23 3
-24 49 -23 27 1 62 -3 78 -10 40 -16 74 -71 75 -118 1 -84 -55 -137 -147 -138
-49 0 -50 -1 -50 -30 l0 -30 67 -3 c48 -2 89 4 140 19 125 37 186 25 228 -44
49 -79 -3 -187 -95 -200 -16 -2 -68 6 -115 19 -79 21 -137 28 -202 25 -26 -1
-28 -4 -28 -46 l0 -45 61 0 c58 0 64 -2 100 -39 22 -21 39 -49 40 -62 5 -108
-41 -162 -141 -164 -54 0 -55 -1 -58 -33 -3 -29 -1 -32 25 -33 66 -3 123 4
210 26 69 18 99 22 124 15 85 -25 125 -123 79 -197 -40 -66 -101 -82 -195 -51
-39 13 -92 20 -150 21 l-90 2 -3 -41 -3 -42 67 -4 c62 -4 69 -7 100 -41 42
-45 48 -101 18 -159 -23 -43 -61 -63 -124 -63 -55 0 -55 0 -58 -33 -3 -30 -1
-32 30 -33 66 -3 115 3 188 23 125 34 179 23 220 -45 49 -79 -4 -190 -96 -201
-16 -2 -69 7 -119 20 -60 16 -111 23 -155 21 l-65 -2 -3 -48 -3 -47 320 0 321
0 0 929 c0 717 3 932 12 937 7 4 186 9 398 9 212 1 388 3 393 4 4 0 7 145 7
321 l0 320 -1130 0 -1130 0 0 -30z m2192 -50 c2 -8 3 -123 3 -255 l-1 -240
-381 -5 c-408 -5 -403 -5 -420 -58 -5 -15 -9 -430 -8 -923 l0 -896 -40 2 c-22
1 -39 5 -38 11 1 5 9 27 17 49 27 76 4 162 -58 217 -42 37 -88 51 -152 46 -52
-4 -54 -4 -47 16 15 40 8 142 -11 171 l-18 27 33 -7 c65 -14 121 -7 168 23
125 76 129 255 8 339 -35 24 -50 28 -112 28 l-72 0 8 30 c14 49 10 108 -10
149 l-19 37 30 -7 c118 -25 222 31 258 140 25 76 -12 174 -83 223 -35 24 -50
28 -112 28 l-72 0 8 30 c34 117 -41 243 -156 262 -25 4 -50 17 -67 35 -26 28
-26 28 -156 28 l-130 0 20 38 c28 54 20 141 -19 196 -50 71 -145 106 -223 81
-18 -6 -19 -4 -9 22 14 36 14 115 0 141 -6 11 -11 24 -11 29 0 5 420 9 934 9
835 0 935 -2 938 -16z"/>
<path d="M38 2504 c-49 -26 -50 -99 -2 -131 25 -16 31 -15 132 10 133 33 183
34 308 2 122 -31 125 -31 158 1 30 31 33 60 10 92 -29 41 -55 44 -162 16 -83
-23 -110 -26 -187 -21 -50 3 -119 15 -153 26 -75 25 -69 24 -104 5z"/>
<path d="M285 2208 c-37 -32 -37 -83 -1 -115 33 -28 38 -28 118 -2 101 34 230
34 350 2 93 -25 98 -25 123 -9 50 33 51 93 2 130 l-28 21 -87 -24 c-135 -36
-210 -38 -330 -7 -55 14 -105 26 -111 26 -5 0 -22 -10 -36 -22z"/>
<path d="M785 1840 c-53 -21 -64 -86 -21 -129 24 -24 28 -24 73 -14 27 6 82
18 123 28 87 20 155 16 277 -16 47 -12 92 -19 107 -15 46 11 66 85 34 124 -25
30 -54 31 -149 6 -115 -30 -209 -31 -315 -4 -43 12 -86 23 -94 25 -8 2 -24 0
-35 -5z"/>
<path d="M1033 1548 c-33 -16 -48 -61 -33 -97 20 -50 52 -56 164 -26 124 32
185 32 313 -1 89 -23 105 -24 130 -12 55 26 56 110 0 136 -24 11 -40 10 -129
-12 -127 -33 -199 -33 -313 -1 -101 28 -101 28 -132 13z"/>
<path d="M790 1241 c-59 -16 -69 -112 -14 -141 23 -13 36 -11 117 10 120 32
213 32 339 0 83 -21 100 -22 121 -11 59 32 54 118 -9 141 -14 6 -53 0 -115
-16 -119 -31 -213 -32 -316 -3 -42 11 -82 22 -88 24 -5 2 -21 0 -35 -4z"/>
<path d="M1020 932 c-34 -34 -37 -50 -15 -92 22 -42 54 -46 143 -20 119 36
198 37 320 6 126 -32 127 -32 157 -1 33 32 33 78 0 111 -28 28 -34 28 -159 -5
-100 -26 -191 -27 -287 -1 -130 36 -125 35 -159 2z"/>
<path d="M779 634 c-53 -28 -54 -107 -3 -135 22 -11 37 -10 117 11 127 33 200
34 324 3 59 -15 112 -23 127 -19 50 12 66 90 27 129 -24 24 -61 24 -154 -2
-95 -27 -198 -29 -287 -6 -119 32 -126 33 -151 19z"/>
<path d="M1039 349 c-59 -22 -59 -114 0 -139 22 -9 45 -6 125 15 124 32 185
32 318 -2 101 -25 107 -26 132 -10 49 33 45 110 -6 135 -23 11 -41 9 -125 -13
-119 -31 -203 -32 -309 -4 -109 29 -106 29 -135 18z"/>
</g>
</svg>
