<?xml version="1.0" standalone="no"?>
<!DOCTYPE svg PUBLIC "-//W3C//DTD SVG 20010904//EN"
 "http://www.w3.org/TR/2001/REC-SVG-20010904/DTD/svg10.dtd">
<svg version="1.0" xmlns="http://www.w3.org/2000/svg"
 width="1903.000000pt" height="255.000000pt" viewBox="0 0 1903.000000 255.000000"
 preserveAspectRatio="xMidYMid meet">

<g transform="translate(0.000000,255.000000) scale(0.100000,-0.100000)"
fill="#000000" stroke="none">
<path d="M10 1515 l0 -1035 460 0 460 0 0 1035 0 1035 -460 0 -460 0 0 -1035z"/>
<path d="M1370 1515 l0 -1035 1025 0 1025 0 0 1035 0 1035 -1025 0 -1025 0 0
-1035z"/>
<path d="M3850 2065 l0 -475 465 0 465 0 0 475 0 475 -465 0 -465 0 0 -475z"/>
<path d="M5420 2130 l0 -360 245 0 245 0 0 25 0 25 -220 0 -220 0 0 145 0 145
205 0 c198 0 205 1 205 20 0 19 -7 20 -205 20 l-206 0 3 143 3 142 213 3 213
2 -3 23 c-3 22 -3 22 -240 25 l-238 2 0 -360z"/>
<path d="M8187 2483 c-4 -3 -7 -165 -7 -360 l0 -353 25 0 25 0 0 360 c0 342
-1 360 -18 360 -10 0 -22 -3 -25 -7z"/>
<path d="M9936 2429 c-20 -33 -36 -62 -36 -65 0 -2 10 -4 23 -4 15 0 35 18 65
59 23 32 42 61 42 65 0 3 -13 6 -29 6 -24 0 -34 -9 -65 -61z"/>
<path d="M13046 2470 c-93 -36 -130 -91 -124 -182 7 -96 62 -135 243 -172 127
-26 171 -44 206 -83 28 -33 31 -41 27 -85 -4 -36 -13 -57 -33 -78 -87 -91
-316 -73 -398 31 -19 24 -29 30 -46 24 -29 -9 -27 -19 19 -69 62 -68 124 -90
246 -91 92 0 105 2 159 30 78 40 108 93 103 178 -7 95 -60 142 -194 173 -182
42 -225 57 -254 84 -23 21 -30 37 -30 65 0 77 51 125 150 143 101 18 206 -9
249 -63 17 -22 23 -25 41 -15 15 8 18 15 11 28 -16 29 -54 60 -101 81 -61 28
-204 28 -274 1z"/>
<path d="M17610 2330 l0 -161 -32 37 c-77 88 -216 100 -320 28 -108 -75 -127
-286 -35 -390 89 -102 250 -108 346 -13 l41 41 0 -51 c0 -48 2 -51 25 -51 l25
0 -2 358 -3 357 -22 3 -23 3 0 -161z m-123 -111 c17 -6 47 -28 67 -49 114
-127 40 -342 -123 -358 -129 -12 -221 77 -221 213 0 160 118 243 277 194z"/>
<path d="M9200 2460 c0 -18 8 -20 123 -22 l122 -3 3 -332 2 -333 25 0 25 0 0
335 0 335 125 0 c118 0 125 1 125 20 0 20 -7 20 -275 20 -267 0 -275 -1 -275
-20z"/>
<path d="M11372 2471 c-8 -4 -12 -21 -10 -37 2 -23 8 -29 27 -29 31 0 50 28
35 53 -13 20 -34 25 -52 13z"/>
<path d="M15740 2465 c-24 -29 8 -75 44 -62 21 8 22 63 0 71 -23 9 -30 8 -44
-9z"/>
<path d="M6117 2266 c-46 -17 -64 -32 -83 -67 -42 -81 5 -157 111 -179 152
-31 180 -40 203 -67 25 -28 25 -70 -1 -101 -32 -39 -137 -54 -208 -31 -19 6
-50 24 -70 40 -32 24 -39 26 -55 15 -17 -13 -16 -15 9 -40 45 -45 113 -70 192
-70 125 0 195 50 195 139 0 82 -43 115 -183 142 -95 18 -130 33 -153 68 -14
21 -14 30 -4 56 19 44 62 63 145 63 56 0 79 -4 109 -22 34 -20 41 -21 53 -9
13 13 11 17 -14 34 -62 44 -169 56 -246 29z"/>
<path d="M6662 2265 c-101 -31 -162 -120 -162 -233 0 -93 17 -140 70 -192 87
-88 234 -95 335 -17 19 15 19 17 3 33 -16 16 -19 16 -36 1 -88 -80 -249 -51
-303 55 -41 81 -34 187 18 248 61 73 178 93 262 44 38 -21 46 -23 59 -11 12
12 9 18 -18 37 -37 27 -111 50 -154 49 -17 0 -50 -6 -74 -14z"/>
<path d="M7723 2263 c-52 -18 -125 -95 -141 -151 -30 -100 -3 -221 64 -284 68
-64 187 -80 279 -39 48 21 95 57 95 72 0 19 -34 16 -66 -6 -70 -47 -152 -57
-219 -26 -65 30 -115 96 -115 152 0 18 9 19 214 19 245 0 234 -4 216 88 -13
68 -32 104 -75 140 -64 52 -165 66 -252 35z m152 -34 c22 -6 53 -20 69 -32 32
-23 65 -88 66 -129 l0 -28 -195 0 -195 0 0 25 c0 61 60 137 127 160 47 17 76
18 128 4z"/>
<path d="M8508 2266 c-56 -20 -85 -42 -117 -87 -36 -49 -55 -126 -48 -191 24
-203 266 -296 406 -157 l41 41 0 -51 c0 -44 3 -51 20 -51 19 0 20 7 20 250 0
243 -1 250 -20 250 -17 0 -20 -7 -20 -52 l0 -53 -26 33 c-52 66 -175 99 -256
68z m159 -47 c129 -49 166 -260 62 -356 -100 -92 -264 -60 -320 62 -48 105 -1
247 96 291 36 16 123 18 162 3z"/>
<path d="M9820 2253 c-134 -70 -177 -250 -91 -384 74 -117 254 -138 379 -42
30 22 32 27 19 40 -13 13 -19 12 -53 -10 -141 -92 -301 -38 -339 116 l-7 27
221 0 221 0 0 53 c0 78 -40 153 -103 191 -37 23 -62 30 -120 33 -65 4 -78 2
-127 -24z m172 -23 c70 -20 119 -76 133 -153 l7 -37 -202 0 -202 0 7 33 c16
71 66 129 131 152 47 17 77 18 126 5z"/>
<path d="M10430 2261 c-204 -73 -214 -381 -15 -472 56 -26 156 -25 211 2 56
26 71 44 54 64 -11 13 -15 13 -39 -4 -107 -74 -244 -42 -302 72 -17 32 -20 54
-17 112 4 90 35 142 103 175 61 30 159 25 205 -9 32 -23 60 -22 60 2 0 8 -23
26 -50 41 -67 37 -138 42 -210 17z"/>
<path d="M10935 2265 c-16 -9 -42 -28 -57 -43 l-28 -26 0 37 c0 33 -3 37 -25
37 l-25 0 0 -250 0 -250 25 0 25 0 0 164 c0 171 6 204 43 244 52 57 154 73
218 36 69 -41 74 -55 77 -260 l3 -184 25 0 26 0 -4 183 -3 184 -30 48 c-19 30
-45 56 -70 69 -53 27 -159 33 -200 11z"/>
<path d="M11370 2026 l0 -256 25 0 25 0 -2 253 -3 252 -22 3 -23 3 0 -255z"/>
<path d="M11710 2271 c-79 -26 -148 -91 -168 -160 -16 -51 -14 -137 2 -184 49
-135 206 -196 342 -133 61 28 72 42 50 64 -14 14 -17 14 -34 -1 -28 -25 -88
-47 -129 -47 -153 1 -247 174 -173 320 22 44 46 65 93 85 58 24 131 19 188
-12 37 -20 52 -24 61 -15 42 42 -148 111 -232 83z"/>
<path d="M12198 2266 c-56 -20 -85 -42 -117 -87 -59 -81 -65 -198 -14 -290 75
-138 262 -167 372 -58 l41 41 0 -51 c0 -44 3 -51 20 -51 19 0 20 7 20 250 0
243 -1 250 -20 250 -17 0 -20 -7 -20 -52 l0 -53 -26 33 c-52 66 -175 99 -256
68z m159 -47 c129 -49 166 -260 62 -356 -100 -92 -264 -60 -320 62 -48 105 -1
247 96 291 36 16 123 18 162 3z"/>
<path d="M14340 2271 c-50 -16 -89 -41 -114 -73 l-26 -33 0 53 c0 49 -2 52
-25 52 l-25 0 0 -355 c0 -348 0 -355 20 -355 19 0 20 7 20 162 l0 163 31 -38
c107 -130 318 -106 393 44 48 97 31 245 -37 317 -50 54 -169 85 -237 63z m157
-62 c82 -40 121 -153 89 -260 -25 -87 -95 -139 -186 -139 -116 0 -200 88 -200
210 0 83 36 149 105 191 42 27 135 25 192 -2z"/>
<path d="M14901 2266 c-48 -17 -108 -71 -134 -119 -33 -63 -32 -195 3 -257 56
-100 166 -145 282 -115 59 15 127 56 136 83 8 24 -26 23 -63 -2 -74 -50 -156
-59 -225 -23 -54 27 -99 82 -107 130 l-6 37 223 0 223 0 -6 60 c-15 139 -106
221 -243 219 -27 0 -64 -6 -83 -13z m187 -50 c50 -26 92 -92 92 -146 l0 -30
-195 0 -195 0 0 23 c1 63 68 145 137 167 36 12 127 4 161 -14z"/>
<path d="M15495 2265 c-22 -8 -52 -28 -67 -45 l-28 -30 0 40 c0 36 -2 40 -25
40 l-25 0 0 -250 0 -250 25 0 25 0 0 163 c0 149 2 167 23 207 38 77 122 111
200 81 20 -8 27 -6 31 5 11 28 7 33 -31 43 -50 14 -80 13 -128 -4z"/>
<path d="M15747 2273 c-4 -3 -7 -118 -7 -255 l0 -248 25 0 25 0 0 255 c0 241
-1 255 -18 255 -10 0 -22 -3 -25 -7z"/>
<path d="M16052 2255 c-152 -77 -179 -318 -48 -432 96 -85 259 -74 344 23 49
55 66 113 60 204 -10 137 -96 222 -232 228 -61 3 -78 0 -124 -23z m173 -26
c90 -25 156 -139 140 -241 -22 -136 -159 -214 -280 -159 -140 63 -163 273 -41
366 57 43 110 53 181 34z"/>
<path d="M16665 2265 c-22 -8 -52 -29 -67 -47 l-28 -32 0 42 c0 35 -3 42 -20
42 -19 0 -20 -7 -20 -250 0 -240 1 -250 19 -250 18 0 20 10 23 168 3 186 14
223 71 264 35 25 123 36 155 19 18 -9 23 -8 32 9 10 18 7 22 -24 35 -44 18
-89 18 -141 0z"/>
<path d="M17924 2257 c-97 -46 -153 -153 -140 -264 17 -145 105 -226 245 -226
73 1 107 11 164 50 39 27 46 43 24 62 -11 8 -19 5 -37 -14 -24 -26 -104 -55
-149 -55 -78 0 -151 46 -182 115 -36 79 -47 75 202 75 l222 0 -5 65 c-11 131
-88 205 -222 212 -60 3 -79 0 -122 -20z m168 -27 c70 -20 123 -80 130 -150 l3
-35 -197 -3 c-227 -3 -218 -7 -172 86 44 88 138 129 236 102z"/>
<path d="M7020 2125 c0 -216 22 -285 105 -332 84 -47 196 -35 261 28 l34 33 0
-42 c0 -35 3 -42 20 -42 19 0 20 7 20 250 0 239 -1 250 -19 250 -18 0 -19 -11
-23 -167 -4 -188 -11 -211 -75 -260 -32 -24 -45 -28 -104 -28 -73 0 -103 14
-143 69 -19 25 -21 44 -24 207 l-4 179 -24 0 -24 0 0 -145z"/>
<path d="M13580 2108 c0 -90 5 -181 11 -203 7 -23 28 -57 53 -81 82 -82 224
-81 302 3 l24 26 0 -42 c0 -37 2 -41 25 -41 l25 0 0 250 0 250 -25 0 -25 0 0
-163 c0 -152 -2 -167 -23 -207 -44 -83 -148 -113 -237 -67 -72 37 -80 62 -80
264 l0 173 -25 0 -25 0 0 -162z"/>
<path d="M3850 955 l0 -475 465 0 465 0 0 475 0 475 -465 0 -465 0 0 -475z"/>
<path d="M13258 1256 c-102 -36 -158 -118 -158 -228 l0 -38 -60 0 -60 0 0 -65
0 -65 60 0 60 0 0 -240 0 -240 80 0 80 0 2 238 3 237 98 3 98 3 -3 62 -3 62
-97 3 -98 3 0 28 c0 99 73 145 167 106 20 -8 37 -14 38 -13 2 2 14 26 28 55
30 59 28 62 -46 87 -57 19 -138 20 -189 2z"/>
<path d="M16347 1189 c-26 -44 -47 -84 -47 -90 0 -5 31 -9 68 -9 l69 0 69 81
c38 44 71 85 72 90 2 5 -37 9 -90 9 l-94 0 -47 -81z"/>
<path d="M5410 820 l0 -440 85 0 85 0 0 440 0 440 -85 0 -85 0 0 -440z"/>
<path d="M8870 1247 c-55 -28 -63 -112 -12 -145 63 -41 152 -4 152 64 0 46 -9
63 -41 79 -34 18 -66 19 -99 2z"/>
<path d="M11930 820 l0 -440 85 0 85 0 0 440 0 440 -85 0 -85 0 0 -440z"/>
<path d="M17435 1249 c-33 -19 -45 -41 -45 -79 0 -62 61 -101 125 -80 63 21
82 102 35 145 -23 21 -89 29 -115 14z"/>
<path d="M10567 1243 c-4 -7 -22 -64 -52 -160 -3 -10 14 -13 63 -13 l67 0 45
82 c25 46 47 86 48 90 5 10 -165 10 -171 1z"/>
<path d="M17015 1163 c-88 -8 -85 -4 -85 -93 l0 -80 -60 0 -60 0 0 -60 0 -60
59 0 58 0 5 -167 c5 -173 15 -221 56 -266 26 -29 82 -54 137 -61 52 -7 152 7
169 24 5 5 0 32 -14 69 -21 57 -23 59 -47 50 -41 -15 -80 -10 -110 15 l-28 24
0 154 0 153 93 3 92 3 0 59 0 60 -90 0 -90 0 0 90 c0 101 10 91 -85 83z"/>
<path d="M7010 1015 c-27 -27 -37 -32 -51 -24 -11 5 -44 14 -74 20 -138 25
-296 -48 -358 -166 -29 -56 -35 -185 -13 -252 39 -116 128 -177 290 -197 114
-14 159 -33 181 -76 30 -58 8 -124 -54 -158 -52 -29 -146 -30 -201 -2 -38 20
-70 62 -70 95 0 12 -14 15 -80 15 l-80 0 0 -33 c0 -50 47 -134 92 -168 76 -55
140 -71 258 -67 89 3 113 8 155 30 106 55 150 124 150 238 0 88 -23 135 -86
177 l-39 26 34 24 c20 13 48 45 63 71 25 42 28 57 28 137 0 89 -5 108 -47 166
-9 14 -6 24 20 57 18 22 32 42 32 45 0 7 -98 77 -108 77 -4 0 -23 -16 -42 -35z
m-100 -157 c64 -33 92 -84 88 -163 -4 -74 -33 -119 -92 -146 -55 -25 -103 -24
-156 4 -68 34 -85 65 -85 150 0 86 24 128 89 158 55 25 102 24 156 -3z"/>
<path d="M6053 1000 c-48 -10 -114 -42 -132 -64 -21 -25 -29 -19 -36 24 l-7
40 -69 0 -69 0 0 -310 0 -310 79 0 80 0 3 193 c3 193 3 194 30 229 51 67 164
87 227 40 59 -44 66 -70 69 -274 l4 -188 80 0 80 0 -5 203 c-2 116 -9 218 -16
239 -39 123 -185 204 -318 178z"/>
<path d="M7446 991 c-147 -60 -215 -170 -204 -331 9 -120 69 -208 177 -259 51
-24 67 -26 181 -26 116 0 129 2 185 28 33 15 68 35 78 44 17 16 15 19 -29 64
l-46 47 -53 -24 c-73 -34 -139 -40 -207 -20 -60 17 -118 70 -118 106 0 19 8
20 255 20 l255 0 0 68 c0 125 -52 217 -154 269 -45 24 -65 27 -161 30 -91 3
-119 0 -159 -16z m225 -121 c40 -11 73 -42 88 -82 l11 -28 -180 0 c-113 0
-180 4 -180 10 0 20 73 90 104 99 43 13 114 13 157 1z"/>
<path d="M8348 996 c-26 -7 -70 -27 -97 -44 -53 -32 -61 -29 -61 24 0 24 -1
25 -72 22 l-73 -3 -3 -307 -2 -308 79 0 79 0 4 183 c3 204 9 224 75 274 49 38
141 40 191 5 58 -42 62 -61 62 -272 l0 -190 86 0 86 0 -4 203 c-4 218 -12 253
-73 333 -51 67 -185 106 -277 80z"/>
<path d="M9326 990 c-146 -57 -215 -169 -204 -329 9 -122 68 -209 177 -260 51
-24 67 -26 181 -26 116 0 129 2 187 29 34 15 69 36 77 45 14 16 12 21 -32 64
l-47 46 -55 -27 c-46 -22 -68 -27 -130 -26 -50 0 -86 6 -106 17 -40 21 -84 72
-84 98 0 18 10 19 255 19 l255 0 0 63 c0 141 -65 242 -183 286 -77 28 -220 29
-291 1z m214 -116 c39 -8 100 -64 100 -93 0 -21 -3 -21 -175 -21 -96 0 -175 3
-175 8 0 11 32 55 55 74 38 33 121 46 195 32z"/>
<path d="M10172 995 c-17 -8 -43 -26 -57 -40 l-24 -27 -9 34 -8 33 -72 3 -72
3 0 -311 0 -310 80 0 80 0 0 189 c0 179 1 190 23 222 43 64 142 88 224 54 41
-17 38 -20 79 58 30 57 25 68 -43 91 -57 20 -157 20 -201 1z"/>
<path d="M11027 1000 c-93 -24 -167 -83 -207 -166 -20 -41 -24 -64 -24 -144 0
-119 23 -180 96 -245 61 -55 130 -79 228 -79 63 -1 85 4 133 28 32 15 63 37
70 47 18 30 27 23 27 -21 l0 -41 78 3 77 3 0 305 0 305 -77 3 -78 3 0 -41 c0
-22 -2 -40 -4 -40 -3 0 -17 11 -31 24 -44 41 -95 59 -175 62 -41 2 -92 -1
-113 -6z m229 -155 c76 -45 106 -152 65 -240 -22 -49 -48 -73 -98 -91 -108
-38 -228 15 -262 115 -57 171 134 310 295 216z"/>
<path d="M12552 995 c-29 -8 -73 -28 -96 -45 -24 -16 -46 -26 -50 -23 -3 4 -6
21 -6 40 l0 33 -75 0 -75 0 0 -310 0 -310 80 0 80 0 0 163 c0 89 5 180 11 202
17 59 74 112 132 120 62 10 128 -15 159 -58 22 -30 23 -43 26 -229 l3 -198 80
0 80 0 -3 218 c-3 201 -5 220 -25 258 -63 119 -192 174 -321 139z"/>
<path d="M13744 997 c-157 -40 -254 -174 -242 -331 7 -84 41 -156 97 -209 67
-63 124 -82 246 -82 87 0 107 3 155 26 75 35 111 67 145 131 24 44 30 68 33
139 4 78 2 92 -23 148 -50 111 -152 177 -286 186 -44 3 -94 -1 -125 -8z m175
-145 c19 -9 48 -34 65 -55 42 -52 48 -143 14 -201 -35 -60 -68 -79 -142 -84
-78 -5 -127 15 -162 67 -62 95 -27 235 71 277 42 19 114 17 154 -4z"/>
<path d="M14545 996 c-16 -7 -41 -25 -54 -40 -27 -28 -41 -21 -41 22 0 21 -4
22 -75 22 l-75 0 0 -310 0 -310 80 0 80 0 0 183 c0 200 7 230 62 271 38 27
131 33 183 12 44 -19 42 -19 80 51 22 42 25 55 16 67 -34 40 -193 60 -256 32z"/>
<path d="M15141 996 c-24 -8 -56 -27 -72 -42 l-28 -26 -6 36 -7 36 -74 0 -74
0 0 -310 0 -310 80 0 80 0 0 183 c0 222 10 255 85 288 75 33 142 9 176 -64 16
-36 19 -67 19 -224 l0 -183 80 0 80 0 0 180 c0 200 6 228 59 273 38 31 103 37
150 12 53 -27 61 -62 61 -274 l0 -191 81 0 80 0 -3 223 -3 222 -31 55 c-47 83
-101 113 -214 118 -107 5 -148 -7 -207 -61 -24 -22 -45 -38 -46 -36 -2 2 -11
16 -20 31 -37 60 -160 91 -246 64z"/>
<path d="M16277 999 c-92 -22 -165 -81 -206 -169 -22 -47 -26 -69 -25 -145 0
-114 25 -176 96 -240 61 -55 130 -79 228 -79 63 -1 85 4 133 28 32 15 63 37
70 47 18 29 27 23 27 -21 l0 -40 80 0 80 0 -2 308 -3 307 -77 3 -78 3 0 -41
c0 -22 -2 -40 -4 -40 -2 0 -18 13 -36 30 -56 52 -179 74 -283 49z m178 -130
c94 -26 140 -93 133 -194 -3 -50 -10 -70 -32 -100 -94 -123 -305 -85 -346 63
-12 46 -12 58 1 105 15 55 63 104 118 121 57 18 76 19 126 5z"/>
<path d="M17893 996 c-86 -27 -158 -90 -192 -166 -64 -146 -16 -331 106 -408
71 -44 118 -57 218 -56 75 0 99 4 145 25 30 15 66 36 80 48 l25 21 -55 49 -54
49 -29 -22 c-24 -17 -43 -21 -111 -21 -75 0 -86 3 -119 28 -48 37 -70 80 -70
142 -1 66 26 120 76 153 34 22 52 27 106 27 45 0 78 -6 104 -19 l38 -19 50 49
49 48 -27 23 c-51 41 -126 63 -216 62 -45 0 -101 -6 -124 -13z"/>
<path d="M18524 990 c-174 -56 -252 -234 -188 -432 22 -67 81 -129 156 -163
117 -53 279 -33 350 42 l23 25 5 -39 5 -38 78 -3 77 -3 0 311 0 311 -77 -3
-78 -3 -3 -37 -3 -38 -37 30 c-77 61 -192 76 -308 40z m243 -137 c19 -9 46
-32 61 -51 24 -31 27 -44 27 -113 0 -63 -4 -83 -21 -106 -83 -112 -254 -109
-331 6 -28 42 -32 135 -7 188 43 89 169 125 271 76z"/>
<path d="M8840 690 l0 -310 80 0 80 0 0 310 0 310 -80 0 -80 0 0 -310z"/>
<path d="M17400 690 l0 -310 80 0 80 0 0 310 0 310 -80 0 -80 0 0 -310z"/>
<path d="M10510 675 l0 -295 85 0 85 0 0 295 0 295 -85 0 -85 0 0 -295z"/>
</g>
</svg>
