<?xml version="1.0" standalone="no"?>
<!DOCTYPE svg PUBLIC "-//W3C//DTD SVG 20010904//EN"
 "http://www.w3.org/TR/2001/REC-SVG-20010904/DTD/svg10.dtd">
<svg version="1.0" xmlns="http://www.w3.org/2000/svg"
 width="670.000000pt" height="582.000000pt" viewBox="0 0 670.000000 582.000000"
 preserveAspectRatio="xMidYMid meet">

<g transform="translate(0.000000,582.000000) scale(0.100000,-0.100000)"
fill="#000000" stroke="none">
<path d="M3140 5748 c0 -35 3 -147 7 -250 l6 -188 54 0 54 0 -6 148 c-3 81 -8
193 -11 250 l-6 102 -49 0 -49 0 0 -62z"/>
<path d="M3500 5798 c0 -7 -13 -116 -29 -243 -18 -144 -25 -232 -19 -236 5 -3
63 -12 129 -19 173 -19 223 0 275 106 53 108 41 266 -24 326 -42 39 -64 47
-174 63 -127 18 -158 19 -158 3z m236 -113 c35 -22 46 -51 45 -115 0 -78 -17
-137 -48 -168 -23 -23 -29 -24 -95 -19 -39 3 -72 8 -75 11 -3 2 3 75 13 161
l19 157 59 -6 c33 -3 70 -13 82 -21z"/>
<path d="M2657 5746 c-62 -17 -97 -43 -121 -90 -23 -47 -15 -95 24 -140 33
-37 88 -56 162 -56 102 0 147 -34 113 -86 -43 -65 -163 -55 -187 16 -3 11 -12
12 -51 1 -26 -8 -47 -19 -47 -26 0 -22 45 -79 80 -103 30 -20 45 -23 105 -20
167 8 259 121 196 238 -27 51 -66 69 -173 81 -109 11 -138 21 -138 49 0 46
109 77 146 41 12 -11 24 -24 25 -30 3 -6 21 -6 52 1 57 14 61 32 16 82 -47 54
-110 67 -202 42z"/>
<path d="M4139 5469 c-90 -111 -163 -204 -162 -208 0 -3 22 -13 48 -21 52 -16
44 -20 105 57 l17 22 91 -30 91 -31 7 -60 c7 -63 14 -71 84 -85 l26 -5 -18
257 c-9 142 -19 263 -21 270 -3 7 -18 15 -34 18 -15 4 -37 9 -49 12 -17 5 -46
-26 -185 -196z m185 -108 c-5 -6 -114 28 -114 36 0 3 24 35 53 71 l52 66 7
-84 c4 -46 5 -86 2 -89z"/>
<path d="M2060 5576 c-155 -64 -210 -91 -210 -101 0 -10 187 -435 195 -443 4
-4 95 28 95 34 0 2 -18 44 -40 94 -22 50 -40 93 -40 95 0 2 17 9 38 16 44 13
56 8 175 -68 l70 -45 41 16 c48 19 72 33 66 39 -31 27 -163 107 -191 116 l-36
12 28 30 c54 58 47 142 -17 199 -43 38 -95 40 -174 6z m118 -108 c20 -41 1
-65 -81 -104 l-72 -33 -22 47 c-12 26 -22 52 -22 58 -1 17 110 63 149 61 27
-2 38 -8 48 -29z"/>
<path d="M4750 5283 c-58 -97 -115 -193 -127 -213 l-22 -36 105 -62 c153 -90
205 -97 295 -38 69 46 139 174 139 254 0 42 -28 109 -56 134 -21 18 -215 138
-224 138 -3 0 -52 -80 -110 -177z m212 16 c49 -32 78 -71 78 -107 0 -33 -60
-140 -96 -171 -45 -40 -82 -40 -148 0 -28 17 -53 33 -55 35 -4 4 159 274 166
274 4 0 28 -14 55 -31z"/>
<path d="M1438 5237 c-81 -56 -147 -106 -148 -110 0 -8 253 -373 273 -394 9
-9 47 13 161 93 82 57 151 106 153 108 3 2 -6 20 -19 40 l-25 36 -113 -80
c-63 -44 -114 -79 -115 -77 -1 1 -18 25 -38 53 l-36 51 91 64 c51 35 96 67
101 70 10 7 -28 79 -41 79 -3 0 -13 -6 -21 -13 -9 -8 -53 -39 -98 -71 l-82
-56 -30 43 -30 44 110 77 109 77 -26 34 c-14 19 -27 35 -28 35 0 0 -67 -46
-148 -103z"/>
<path d="M1076 4931 l-38 -38 87 -163 c47 -89 84 -164 82 -166 -2 -2 -74 30
-162 71 -87 41 -163 75 -170 75 -11 0 -75 -61 -75 -72 0 -3 106 -54 236 -113
l237 -107 39 39 39 39 -116 237 c-63 130 -116 237 -118 237 -2 0 -20 -17 -41
-39z"/>
<path d="M5501 4730 c-91 -82 -173 -157 -183 -167 -18 -18 -16 -22 69 -112 92
-98 142 -130 203 -131 94 0 236 115 265 215 20 66 13 112 -25 163 -29 40 -150
176 -159 179 -3 1 -80 -65 -170 -147z m212 -29 c48 -54 60 -78 53 -113 -14
-69 -128 -168 -194 -168 -28 0 -44 9 -84 50 -28 27 -48 53 -46 58 4 11 221
211 229 211 4 1 23 -17 42 -38z"/>
<path d="M616 4405 c-15 -19 -25 -39 -21 -44 6 -11 391 -281 399 -281 13 0 59
81 50 89 -21 18 -373 261 -387 266 -8 4 -24 -8 -41 -30z"/>
<path d="M5893 4197 c-112 -67 -203 -126 -203 -131 0 -8 174 -302 187 -316 5
-5 73 31 73 39 0 3 -31 58 -69 121 l-69 115 51 32 c29 18 54 33 57 33 3 0 34
-47 68 -105 67 -112 65 -110 116 -72 19 14 18 18 -39 113 -32 55 -60 102 -62
106 -4 8 78 58 88 53 4 -3 35 -52 69 -110 34 -58 66 -105 71 -105 8 0 43 19
68 37 8 5 -182 313 -193 313 -6 -1 -102 -56 -213 -123z"/>
<path d="M1962 4297 c-18 -21 -72 -125 -75 -144 -2 -10 -7 -35 -12 -55 -4 -21
-5 -45 -1 -53 5 -14 9 -14 38 1 26 13 49 16 121 11 49 -3 94 -10 100 -15 12
-9 73 -31 105 -37 9 -2 18 -4 20 -5 1 -2 5 -3 10 -4 4 -1 13 -5 20 -9 6 -5 12
-5 12 -1 0 3 10 0 23 -8 12 -8 36 -18 52 -22 17 -4 44 -14 60 -21 17 -8 66
-28 110 -45 44 -18 107 -44 140 -59 33 -15 88 -38 123 -51 55 -22 60 -26 45
-37 -9 -7 -31 -13 -48 -13 -48 0 -148 21 -170 37 -28 19 -35 16 -35 -11 0 -32
-13 -40 -95 -59 -73 -16 -138 -12 -182 11 -12 7 -26 12 -32 12 -15 0 -14 -32
3 -56 13 -19 12 -20 -21 -18 -20 0 -53 -5 -75 -13 -22 -7 -47 -15 -56 -17 -56
-11 -301 -136 -310 -157 -2 -5 -32 -29 -67 -54 -67 -48 -108 -92 -99 -106 8
-14 58 -10 80 6 10 8 26 15 35 15 9 0 28 9 42 20 14 11 28 20 31 20 3 0 6 -22
6 -50 0 -29 5 -50 11 -50 11 0 160 70 169 80 3 3 20 13 38 22 47 25 43 -1 -9
-51 -46 -43 -49 -78 -6 -68 91 22 115 30 142 47 17 11 69 29 116 40 110 27
111 27 116 10 4 -13 3 -13 -6 0 -9 12 -11 11 -12 -10 -1 -14 -3 -40 -5 -59 -1
-19 2 -45 7 -58 9 -24 10 -24 62 31 28 31 61 70 71 88 25 42 29 26 18 -76 -10
-92 -1 -102 51 -62 19 14 37 26 41 26 15 0 84 63 89 81 11 41 25 16 26 -45 0
-64 16 -116 34 -116 12 0 87 79 87 92 0 22 19 4 26 -24 11 -51 51 -108 77
-108 5 0 6 18 2 40 -8 46 0 50 34 15 20 -22 23 -32 18 -70 -4 -25 -3 -45 1
-46 4 0 16 -2 28 -4 17 -4 20 0 16 24 -6 44 13 45 47 4 34 -41 49 -89 32 -106
-14 -14 -14 -74 0 -83 6 -3 8 -16 5 -29 -4 -16 -1 -25 10 -29 15 -6 15 -8 1
-30 -9 -13 -47 -56 -84 -94 -37 -39 -78 -82 -91 -97 l-23 -26 86 -94 c102
-111 129 -159 144 -253 16 -105 15 -121 -9 -115 -18 5 -19 3 -11 -19 16 -42
18 -158 2 -158 -4 0 -14 27 -21 61 -18 82 -54 130 -121 157 l-53 22 79 -73 79
-73 4 -95 c4 -99 -10 -153 -44 -166 -7 -3 -14 -11 -14 -18 0 -21 -37 -6 -55
21 -21 33 -58 46 -91 34 -26 -10 -26 -9 -21 20 12 59 -33 19 -47 -43 -4 -15
-10 -27 -15 -27 -9 0 -31 45 -31 64 0 7 -9 21 -20 31 -16 14 -20 15 -20 4 0
-8 -9 -32 -20 -54 -11 -22 -20 -47 -20 -57 0 -28 37 -58 70 -58 24 0 30 -4 28
-17 -2 -10 -7 -21 -13 -25 -5 -4 -1 -8 10 -8 11 0 27 -4 34 -9 10 -7 3 -9 -23
-7 -20 1 -40 6 -44 12 -9 13 -82 18 -82 6 0 -5 9 -12 21 -15 28 -7 15 -26 -14
-20 -17 4 -19 2 -8 -5 8 -6 30 -9 48 -6 18 2 33 -1 33 -6 0 -6 -3 -9 -7 -8 -5
1 -23 -2 -41 -6 -34 -8 -122 11 -122 26 0 4 -5 8 -10 8 -6 0 -5 -8 2 -19 10
-16 9 -23 -6 -39 -39 -44 16 -136 56 -95 9 8 42 17 74 20 72 7 90 -7 80 -62
-8 -40 -21 -52 -40 -35 -8 6 -29 15 -47 20 l-34 10 28 -25 c32 -30 32 -34 11
-125 -14 -64 -14 -71 2 -102 l18 -33 7 48 c4 26 20 68 35 95 15 26 32 57 38
70 7 14 17 21 28 18 18 -4 33 20 18 29 -6 4 -10 1 -10 -6 0 -7 -2 -10 -5 -7
-10 9 22 104 50 148 l29 45 9 -35 9 -34 19 24 c26 35 25 6 -2 -51 -28 -59 -60
-93 -71 -77 -5 8 -8 2 -8 -18 0 -16 -7 -39 -15 -50 -8 -10 -15 -26 -15 -34 0
-8 -18 -37 -40 -65 -44 -55 -48 -79 -23 -122 12 -22 28 -32 62 -40 27 -7 50
-7 55 -2 13 12 29 12 22 0 -8 -13 56 -42 69 -31 24 20 47 -34 25 -56 -7 -7 -4
-18 9 -35 14 -19 30 -25 61 -26 55 -3 132 -41 195 -98 28 -26 41 -42 30 -36
-11 5 -29 19 -40 31 -25 28 -131 80 -163 80 -42 0 -18 -24 70 -70 47 -25 101
-57 121 -72 24 -19 37 -24 40 -15 6 18 31 -6 52 -49 25 -54 -1 -100 -35 -59
-9 11 -16 12 -30 2 -11 -6 -23 -8 -27 -4 -13 13 13 42 41 45 36 5 22 22 -18
22 -57 0 -71 -38 -40 -103 17 -35 67 -67 105 -67 62 0 130 70 114 119 -7 24
16 40 51 33 37 -7 46 -24 35 -73 l-9 -44 44 49 c52 59 125 219 132 289 2 26 8
47 13 47 17 0 -16 -124 -62 -239 -11 -27 -11 -35 -1 -38 6 -3 10 -9 6 -14 -3
-5 4 -9 14 -9 15 0 27 17 48 66 15 37 30 62 32 56 2 -6 -6 -32 -17 -58 -25
-56 -19 -67 44 -83 25 -6 54 -20 64 -30 12 -12 27 -17 45 -14 26 5 26 4 15
-21 -11 -23 -9 -30 9 -55 l21 -28 -25 0 c-25 0 -54 38 -54 71 0 24 -77 58
-144 64 -56 5 -60 4 -47 -11 12 -15 11 -17 -9 -17 -13 0 -24 -8 -27 -19 -3
-12 -17 -23 -34 -26 -16 -4 -29 -11 -29 -16 0 -5 -9 -9 -20 -9 -11 0 -20 -4
-20 -9 0 -13 28 -22 35 -11 21 33 112 -13 102 -51 -5 -17 1 -19 70 -19 70 0
74 1 68 20 -5 15 -2 20 13 20 15 0 19 -5 15 -20 -5 -19 -1 -20 108 -18 125 3
114 -3 119 68 1 14 -1 36 -6 50 -7 23 -6 24 9 11 10 -8 17 -28 17 -49 0 -27 3
-33 12 -24 6 6 11 31 11 54 0 34 -6 50 -28 73 -35 39 -59 74 -53 81 3 2 17 0
32 -5 35 -14 33 -1 -9 42 -19 20 -35 43 -35 52 0 23 37 55 70 62 17 3 30 9 30
13 0 5 3 15 6 24 3 9 1 16 -5 16 -6 0 -11 -8 -11 -19 0 -16 -9 -19 -60 -20
l-60 -1 0 34 c0 19 3 41 6 50 11 30 24 16 24 -25 0 -58 23 -46 32 17 9 57 3
84 -18 84 -8 0 -14 10 -14 25 0 32 17 32 32 0 16 -35 29 -11 21 38 -4 25 -10
34 -19 30 -8 -3 -21 -2 -30 1 -14 5 -12 9 9 26 38 30 94 20 129 -22 15 -18 26
-40 25 -48 -1 -9 8 -15 27 -17 16 -1 46 -9 68 -18 35 -13 39 -14 44 0 4 9 4
29 0 46 -4 23 0 38 15 57 l20 26 -33 17 c-18 9 -36 15 -39 13 -11 -6 -19 24
-19 67 0 37 6 44 37 40 6 -1 14 3 18 9 3 5 -2 10 -12 10 -10 0 -36 6 -57 14
-29 10 -35 16 -25 22 8 5 21 23 28 39 12 24 15 26 19 12 2 -10 -2 -24 -8 -32
-9 -11 -7 -16 9 -25 16 -8 29 -6 61 10 35 18 40 25 40 55 0 19 -3 35 -7 35 -5
0 -9 21 -9 47 -1 36 3 51 17 61 27 19 8 52 -29 52 -47 0 -71 -11 -65 -28 4 -9
2 -13 -4 -9 -5 3 -23 -7 -38 -23 -33 -35 -47 -31 -38 11 4 22 0 36 -14 52 -30
32 -45 65 -39 85 3 9 -6 35 -19 57 -14 22 -31 55 -40 73 -8 17 -18 32 -21 32
-3 0 -16 -12 -30 -27 -21 -23 -23 -29 -10 -31 9 -2 16 -11 17 -20 1 -17 1 -16
15 27 3 11 7 11 19 1 20 -17 19 -32 -5 -58 -23 -24 -36 -23 -154 9 -41 11 -85
31 -107 49 -38 30 -81 40 -77 18 4 -19 -63 -11 -131 14 -56 21 -163 109 -149
123 3 4 30 -11 60 -33 60 -46 176 -101 197 -94 9 3 1 10 -20 20 l-34 15 73 12
c82 13 95 20 54 28 -90 18 -191 93 -223 165 -8 18 -19 30 -26 28 -21 -9 -38
65 -36 158 2 74 6 95 23 119 12 15 19 35 16 44 -4 10 16 40 57 87 35 39 67 79
70 89 11 30 43 17 39 -16 -2 -16 4 -40 13 -54 19 -28 8 -44 -27 -38 -10 2 -18
0 -18 -5 0 -13 34 -30 58 -30 23 0 32 -25 32 -96 l0 -51 -54 5 c-29 2 -61 0
-69 -4 -11 -6 -1 -9 31 -10 55 -2 112 -30 129 -64 18 -35 -11 -69 -58 -70 -20
0 -42 -6 -48 -14 -10 -12 -9 -13 7 -9 43 11 116 -51 141 -118 7 -19 17 -42 22
-51 13 -26 12 -28 -16 -28 -29 0 -169 71 -204 103 l-24 22 16 -30 c8 -17 24
-38 34 -48 19 -16 146 -67 207 -81 26 -6 28 -5 17 8 -11 14 -11 16 4 16 9 0
19 -9 22 -20 3 -11 9 -20 14 -20 13 0 11 6 -12 53 -11 23 -27 65 -35 92 -7 28
-16 60 -20 73 -5 19 -3 23 12 20 20 -3 30 13 74 122 31 75 48 83 113 54 32
-15 45 -29 63 -71 25 -56 39 -65 49 -33 4 11 28 45 54 74 61 71 78 103 63 118
-9 9 -12 8 -12 -6 0 -13 -5 -16 -22 -10 -52 15 -55 28 -26 105 8 21 12 55 10
78 l-4 41 -37 -6 c-30 -5 -43 -1 -64 17 l-27 24 9 144 c9 160 -4 278 -35 312
-10 11 -31 23 -48 27 -33 9 -48 32 -19 32 15 0 16 2 3 10 -31 20 -58 10 -99
-36 -23 -26 -41 -51 -41 -56 0 -5 -4 -7 -9 -4 -5 3 -9 0 -8 -7 0 -6 -1 -20 -1
-29 -2 -17 -3 -17 -20 0 -22 20 -14 46 28 102 15 19 32 45 38 57 10 18 18 21
50 16 58 -10 102 -32 111 -56 5 -13 16 -29 26 -37 9 -7 28 -36 42 -64 l26 -50
31 37 31 37 23 -40 c12 -21 22 -46 22 -55 0 -27 33 -12 41 19 4 15 15 36 23
45 8 9 18 28 21 44 9 33 8 33 38 5 57 -55 127 -108 140 -108 10 0 14 13 14 48
1 95 4 132 14 132 5 0 9 -7 9 -15 0 -9 26 -43 59 -77 73 -76 85 -72 79 23 -3
38 -3 69 1 69 12 0 81 -27 88 -34 4 -4 25 -15 48 -25 22 -10 62 -35 88 -55 54
-41 86 -56 122 -56 36 0 37 13 5 56 -27 36 -38 64 -25 64 3 0 33 -19 66 -42
84 -60 101 -68 124 -66 16 2 21 12 23 46 l3 43 44 -40 c38 -35 94 -61 133 -61
29 0 7 36 -75 121 -115 119 -200 180 -360 259 -119 59 -130 67 -113 78 26 16
28 57 3 47 -10 -4 -28 -10 -40 -12 -13 -3 -23 -8 -23 -12 0 -11 -150 -3 -184
10 -17 6 -41 23 -52 37 -19 21 -26 23 -50 15 -17 -6 -82 -8 -151 -5 -109 4
-126 2 -165 -17 -58 -28 -71 -50 -59 -102 12 -52 7 -64 -34 -89 -30 -19 -43
-20 -124 -14 -133 10 -147 -2 -191 -176 -12 -47 -28 -100 -37 -117 -16 -36
-38 -46 -28 -13 3 10 -1 33 -10 51 -15 28 -15 41 -4 115 11 77 11 86 -5 97 -9
7 -19 28 -21 46 -3 19 -13 40 -25 48 -11 8 -17 19 -14 25 4 6 1 13 -5 17 -8 5
-7 20 3 55 16 52 6 89 -21 79 -8 -3 -13 3 -13 17 0 19 2 20 15 10 13 -11 15
-6 15 35 0 38 -5 52 -29 76 -34 34 -55 38 -46 9 4 -14 2 -20 -8 -20 -8 0 -18
-7 -21 -16 -8 -22 -8 -22 11 -20 9 0 25 -14 36 -31 l19 -33 -36 0 c-27 0 -34
-3 -30 -15 8 -19 -5 -19 -29 0 -13 9 -19 27 -19 59 -1 25 -5 46 -10 46 -4 0
-8 5 -8 10 0 6 9 10 20 10 24 0 27 15 4 24 -19 7 -34 -1 -34 -18 0 -7 -11 -22
-25 -34 -26 -23 -26 -42 1 -42 8 0 14 -4 14 -9 0 -15 -51 -51 -72 -51 -14 0
-18 -5 -14 -15 4 -10 -3 -20 -19 -27 -28 -13 -29 -17 -14 -52 10 -20 7 -33
-15 -77 -27 -54 -33 -112 -16 -139 7 -11 10 -3 10 29 0 32 7 54 26 78 27 36
44 36 44 -1 0 -26 17 -46 41 -46 9 0 22 -7 29 -15 11 -14 17 -13 47 5 51 30
58 25 26 -17 -46 -60 -49 -69 -12 -41 44 33 99 61 107 54 3 -3 -5 -17 -18 -31
-32 -34 -19 -42 18 -10 36 30 52 32 52 5 0 -14 -18 -32 -55 -55 -30 -20 -55
-38 -55 -41 0 -3 13 -3 30 1 26 6 31 3 40 -21 13 -34 3 -103 -16 -111 -24 -9
-62 6 -101 40 l-36 32 6 -27 c9 -34 1 -35 -25 -6 -21 25 -19 44 6 40 10 -2 24
2 32 9 19 16 18 43 -1 35 -8 -3 -37 -8 -63 -11 -26 -4 -54 -14 -62 -23 -8 -9
-52 -39 -98 -65 -76 -44 -86 -47 -111 -36 l-27 12 23 23 c21 21 22 30 19 106
-2 46 -7 91 -11 101 -9 23 -37 22 -77 -3 -35 -21 -138 -29 -138 -10 0 6 -7 10
-15 10 -8 0 -19 9 -25 20 -10 18 -7 24 13 21 4 0 7 3 7 8 0 14 99 32 151 29
44 -3 44 -3 42 29 -2 24 2 33 18 38 26 9 21 39 -8 43 -14 2 -23 -3 -26 -15 -4
-16 -5 -16 -5 2 -1 11 5 37 13 59 7 21 11 44 9 51 -3 7 6 25 21 41 l26 28 52
-18 c29 -10 64 -26 78 -36 30 -21 63 -10 54 20 -3 11 4 30 21 49 27 33 27 48
0 38 -9 -4 -13 -13 -10 -21 3 -8 -3 -19 -15 -26 -12 -6 -21 -17 -21 -25 0 -8
-4 -15 -9 -15 -26 0 -110 48 -144 81 -21 22 -42 39 -47 39 -4 0 -21 -10 -37
-23 -15 -13 -42 -32 -59 -42 -17 -10 -39 -30 -48 -46 -9 -15 -29 -38 -44 -51
-20 -17 -35 -48 -57 -123 -16 -55 -28 -110 -27 -121 5 -32 -28 -40 -50 -12
-25 31 -16 93 24 171 l30 59 -31 -21 c-17 -13 -31 -27 -31 -34 0 -8 -3 -8 -11
0 -7 7 -8 24 -4 43 8 34 43 55 83 47 19 -4 31 6 62 49 22 29 44 55 50 59 6 3
8 11 5 16 -4 5 7 9 23 9 16 0 43 7 58 16 29 15 29 15 4 13 -24 -2 -37 2 -85
21 -11 4 -38 15 -60 23 -22 9 -92 39 -155 67 -63 28 -167 71 -232 96 -306 115
-528 225 -595 294 -24 25 -54 63 -66 85 -25 44 -39 52 -55 32z m1101 -623 c9
-9 -4 -35 -14 -28 -5 3 -9 12 -9 20 0 14 12 19 23 8z m7 -93 c0 -13 -22 -29
-54 -37 -22 -5 -28 -4 -24 7 8 25 78 52 78 30z m555 -91 c3 -5 -1 -10 -9 -10
-9 0 -16 5 -16 10 0 6 4 10 9 10 6 0 13 -4 16 -10z m-415 -15 c-7 -8 -20 -15
-29 -15 -13 1 -13 3 3 15 26 19 42 19 26 0z m560 -9 c0 -3 -4 -8 -10 -11 -5
-3 -10 -1 -10 4 0 6 5 11 10 11 6 0 10 -2 10 -4z m-30 -16 c0 -5 -4 -10 -10
-10 -5 0 -10 5 -10 10 0 6 5 10 10 10 6 0 10 -4 10 -10z m-650 -56 c-17 -49
-24 -36 -9 17 6 24 14 38 16 32 3 -7 -1 -29 -7 -49z m70 31 c0 -8 -4 -15 -10
-15 -5 0 -10 7 -10 15 0 8 5 15 10 15 6 0 10 -7 10 -15z m854 -224 c7 -10 -32
-47 -40 -38 -7 7 14 47 26 47 5 0 11 -4 14 -9z m-194 -41 c0 -5 -4 -10 -10
-10 -5 0 -10 5 -10 10 0 6 5 10 10 10 6 0 10 -4 10 -10z m-21 -70 c0 -23 -1
-23 -9 -5 -5 11 -9 29 -9 40 -1 17 1 17 9 5 5 -8 9 -26 9 -40z m312 10 c10 0
19 -4 19 -9 0 -8 -80 -22 -89 -15 -9 8 24 34 36 29 8 -3 23 -5 34 -5z m-519
-137 c6 -7 20 -10 33 -7 17 4 29 -3 54 -33 19 -23 27 -39 20 -42 -7 -2 -47 4
-91 14 -79 18 -95 18 -196 -11 -30 -8 -21 18 12 36 13 7 29 24 36 38 8 18 14
22 19 13 6 -9 12 -5 24 13 10 14 17 27 17 29 0 3 7 22 16 43 l17 39 15 -60 c8
-33 19 -66 24 -72z m583 117 c3 -5 -1 -10 -9 -10 -9 0 -16 5 -16 10 0 6 4 10
9 10 6 0 13 -4 16 -10z m-31 -50 c74 -28 -31 -186 -185 -282 -62 -38 -67 -60
-21 -98 20 -17 31 -30 25 -30 -6 0 -18 6 -25 13 -7 8 -23 19 -35 25 -19 10
-23 8 -38 -24 -9 -20 -18 -34 -19 -32 -2 2 0 34 4 72 5 46 14 77 29 95 11 14
30 42 41 62 10 21 25 43 32 50 7 8 19 26 27 41 22 43 99 118 120 118 11 0 31
-4 45 -10z m-194 -24 c0 -8 -4 -18 -10 -21 -5 -3 -10 3 -10 14 0 12 5 21 10
21 6 0 10 -6 10 -14z m-202 -32 c-4 -23 16 -28 34 -10 13 12 15 5 13 -60 -1
-41 -5 -77 -9 -81 -3 -3 -6 1 -6 10 0 10 -8 17 -19 17 -10 0 -21 7 -25 15 -7
19 3 47 15 39 5 -3 9 -1 9 4 0 5 -17 22 -37 38 -37 28 -37 28 -13 35 38 11 41
10 38 -7z m-388 -60 c0 -15 -24 -21 -62 -16 -45 7 -33 27 17 28 30 1 45 -3 45
-12z m20 -32 c0 -4 -20 -28 -45 -52 l-45 -44 0 36 c0 39 12 54 50 61 14 2 28
5 33 6 4 0 7 -3 7 -7z m180 -33 c0 -18 4 -20 25 -15 32 8 83 -16 108 -49 16
-23 16 -27 2 -55 -8 -16 -11 -30 -6 -30 5 0 11 -11 13 -25 5 -40 22 -29 33 21
l10 46 28 -29 c15 -16 27 -36 27 -44 0 -12 -46 -58 -125 -127 -39 -35 -52 -40
-105 -47 -30 -4 -56 -8 -58 -10 -2 -1 0 -15 4 -30 6 -26 8 -27 20 -11 7 10 32
23 56 31 23 7 52 17 63 21 11 4 -13 -28 -53 -72 -69 -75 -93 -117 -77 -132 4
-4 34 22 67 58 l61 65 -33 -60 c-18 -33 -41 -69 -51 -81 -17 -18 -17 -22 -4
-40 9 -12 14 -43 15 -86 0 -62 -10 -92 -25 -68 -9 15 -33 109 -40 160 -3 25
-10 68 -15 95 -4 28 -16 111 -26 185 -15 114 -21 136 -35 136 -13 0 -15 -5 -9
-22 7 -16 4 -27 -11 -40 -23 -20 -18 -45 17 -87 30 -36 31 -57 2 -58 l-23 0
22 -11 c22 -10 38 -36 29 -46 -3 -2 -23 5 -46 17 -22 11 -40 18 -40 15 0 -3
15 -24 34 -45 18 -22 39 -59 45 -82 14 -50 9 -116 -9 -127 -19 -12 131 -152
216 -203 35 -21 66 -42 69 -47 11 -18 -29 -10 -70 13 -22 13 -66 33 -98 46
-49 20 -64 33 -97 80 -46 68 -61 82 -79 72 -21 -13 -31 -79 -29 -197 1 -91 -3
-119 -18 -150 -13 -27 -25 -39 -40 -38 -17 0 -20 -6 -20 -45 -1 -51 -24 -105
-50 -115 -9 -4 -19 -4 -22 -1 -6 5 16 93 54 215 15 47 31 113 36 147 5 34 20
94 34 135 22 64 23 74 9 84 -24 18 -18 23 19 17 44 -7 76 11 76 42 0 26 -15
34 -23 13 -4 -9 -6 -8 -6 2 -1 8 -10 26 -21 40 -16 20 -20 22 -20 8 0 -30 -26
-20 -65 23 -27 30 -34 44 -26 52 6 6 11 24 11 39 0 31 2 33 33 17 19 -10 18
-7 -5 18 -29 30 -35 52 -20 69 5 5 3 27 -4 49 -12 38 -13 35 -13 -64 -1 -88
-3 -102 -15 -92 -12 10 -14 -2 -9 -86 3 -69 2 -94 -6 -83 -5 8 -13 32 -16 52
-4 21 -10 38 -15 38 -16 0 -17 27 -5 145 7 66 11 124 9 130 -3 6 15 45 38 86
53 92 113 165 123 149 5 -8 10 -9 18 -1 5 5 22 8 36 5 14 -2 44 4 66 15 52 25
55 25 55 0z m458 -160 c7 -12 11 -23 8 -26 -8 -9 -36 17 -36 33 0 20 13 17 28
-7z m86 6 c6 -17 -2 -45 -14 -45 -4 0 -7 14 -8 30 -1 32 12 40 22 15z m-930
-32 c-20 -93 -44 -124 -44 -58 0 42 19 85 37 85 9 0 12 -8 7 -27z m276 -101
c0 -24 -1 -25 -16 -10 -10 9 -14 24 -10 33 9 23 26 9 26 -23z m805 25 c11 -9
14 -16 7 -21 -13 -8 -62 10 -62 24 0 14 33 12 55 -3z m-370 -17 c3 -5 19 -7
35 -3 31 6 42 -10 15 -21 -24 -9 -75 5 -75 20 0 16 16 19 25 4z m171 -4 c10
-8 16 -17 12 -21 -8 -8 -48 13 -48 25 0 14 13 12 36 -4z m-342 -41 c-15 -13
-30 -22 -32 -20 -6 6 40 44 52 45 5 0 -4 -11 -20 -25z m445 9 c3 -2 -2 -12
-11 -21 -15 -14 -18 -14 -32 0 -25 25 -20 40 11 32 16 -4 30 -9 32 -11z m-971
-73 c-11 -77 -28 -80 -28 -6 0 35 25 93 36 83 1 -2 -2 -37 -8 -77z m1103 58
c9 -17 7 -25 -11 -44 -16 -17 -18 -24 -8 -28 9 -3 10 -8 3 -15 -7 -7 -23 -3
-52 14 l-41 25 34 35 c40 39 59 43 75 13z m-224 -95 c19 -8 69 -14 118 -14 85
0 104 -9 64 -31 -24 -12 -84 -6 -166 17 -42 11 -59 23 -92 65 -54 67 -53 81 2
22 23 -25 56 -52 74 -59z m-7 91 c7 -9 10 -18 7 -21 -10 -11 -37 5 -37 21 0
19 14 19 30 0z m-117 -182 c27 -84 30 -113 13 -113 -15 0 -28 27 -32 70 -1 14
-5 40 -9 58 -12 51 11 39 28 -15z m-493 -379 l5 -69 9 44 c10 53 26 36 19 -21
-4 -26 -9 -35 -19 -31 -11 4 -14 -8 -14 -61 0 -61 -2 -67 -25 -78 -27 -12 -32
-11 -36 12 -4 24 12 110 22 116 5 3 9 41 9 85 0 60 3 80 13 77 7 -3 14 -31 17
-74z m-390 -214 c0 -5 -5 -10 -11 -10 -5 0 -7 5 -4 10 3 6 8 10 11 10 2 0 4
-4 4 -10z m390 -28 c-8 -3 -21 -13 -28 -24 -7 -10 -22 -18 -34 -18 -19 0 -19
2 -5 23 8 12 22 22 30 22 9 0 19 3 23 7 4 4 12 5 17 1 7 -4 6 -8 -3 -11z
m-370 -26 c0 -2 -7 -9 -15 -16 -13 -11 -14 -10 -9 4 5 14 24 23 24 12z m870
-66 c0 -19 -6 -29 -20 -33 -16 -4 -24 3 -39 34 -15 30 -16 39 -6 39 7 0 16 -6
18 -12 3 -7 6 1 7 17 l1 30 19 -24 c11 -13 20 -36 20 -51z m-494 32 c19 -12
34 -50 33 -79 -1 -28 22 -142 36 -175 5 -13 2 -18 -9 -18 -9 0 -16 7 -16 15 0
8 -4 15 -10 15 -17 0 -11 -21 11 -38 24 -20 17 -52 -12 -52 -10 0 -19 -4 -19
-10 0 -5 -7 -10 -15 -10 -8 0 -15 -8 -15 -19 0 -31 -23 -43 -49 -24 -22 15
-23 15 -16 -7 5 -16 4 -21 -6 -18 -8 3 -14 16 -14 29 0 20 6 25 40 30 22 3 32
7 23 8 -22 1 -19 40 4 52 10 5 18 16 18 23 0 8 6 19 14 25 12 10 11 17 -4 49
-10 20 -21 64 -25 97 -3 33 -9 72 -11 88 -5 21 -2 27 13 27 10 0 23 -4 29 -8z
m-176 -81 c-6 -12 -14 -60 -17 -107 -4 -62 -11 -92 -24 -107 -22 -27 -33 -15
-44 47 l-8 41 -8 -47 c-4 -26 -10 -52 -14 -57 -4 -7 3 -11 17 -11 13 0 48 -9
78 -20 30 -11 61 -18 68 -15 7 2 12 -3 12 -14 0 -28 -12 -33 -33 -14 -15 13
-21 15 -24 6 -6 -17 -26 -16 -67 3 -38 19 -86 12 -86 -12 0 -12 4 -13 20 -4
15 8 27 7 47 -4 32 -17 26 -21 -11 -7 -18 8 -28 6 -37 -5 -7 -9 -23 -14 -36
-11 -15 3 -23 -1 -23 -10 0 -8 -8 -13 -17 -11 -13 2 -19 -5 -21 -25 -4 -37
-22 -24 -22 17 0 22 8 40 25 56 14 13 25 29 25 36 0 8 15 29 34 47 26 26 35
46 41 86 5 34 12 51 21 51 10 0 13 7 8 25 -6 26 9 35 22 14 4 -8 12 -1 22 17
29 59 44 76 54 66 7 -7 6 -17 -2 -31z m990 29 c0 -5 6 -10 14 -10 9 0 12 -7 9
-20 -7 -27 -39 -26 -46 2 -3 12 -4 25 -1 30 7 11 24 10 24 -2z m-302 -44 c15
-8 39 -30 54 -49 l27 -35 -50 -4 c-52 -3 -78 9 -40 19 26 7 27 15 2 30 -16 10
-36 53 -25 53 3 0 17 -6 32 -14z m-298 -6 c0 -5 -4 -10 -10 -10 -5 0 -10 5
-10 10 0 6 5 10 10 10 6 0 10 -4 10 -10z m10 -79 c3 -13 4 -42 1 -64 -3 -40
-4 -40 -17 -16 -17 31 -19 112 -2 107 7 -3 15 -15 18 -27z m740 9 c0 -5 -4
-10 -10 -10 -5 0 -10 5 -10 10 0 6 5 10 10 10 6 0 10 -4 10 -10z m-1119 -65
c0 -31 -2 -59 -5 -63 -14 -13 -18 11 -11 68 9 74 16 72 16 -5z m845 29 c34
-15 17 -19 -20 -4 -21 8 -27 6 -37 -11 -7 -14 -17 -19 -29 -16 -11 3 -21 0
-23 -7 -4 -12 -57 31 -57 46 0 13 133 7 166 -8z m142 -26 c-2 -36 -7 -44 -25
-46 -28 -4 -32 23 -4 31 14 3 17 11 14 31 -3 16 -1 26 6 26 8 0 11 -15 9 -42z
m-303 2 c18 -20 17 -20 -23 -20 -22 0 -44 -4 -47 -10 -11 -18 -25 -10 -25 14
0 39 64 50 95 16z m356 -13 c-8 -8 -11 -7 -11 4 0 20 13 34 18 19 3 -7 -1 -17
-7 -23z m-466 13 c3 -5 -1 -10 -10 -10 -9 0 -13 5 -10 10 3 6 8 10 10 10 2 0
7 -4 10 -10z m358 -7 c-7 -2 -19 -2 -25 0 -7 3 -2 5 12 5 14 0 19 -2 13 -5z
m-518 -33 c-3 -5 -11 -10 -16 -10 -6 0 -7 5 -4 10 3 6 11 10 16 10 6 0 7 -4 4
-10z m715 -5 c-7 -9 -15 -13 -19 -10 -3 3 1 10 9 15 21 14 24 12 10 -5z m-587
-41 c-21 -32 -66 -34 -61 -2 4 28 47 52 65 37 10 -9 9 -16 -4 -35z m370 34
c43 -11 52 -18 70 -55 17 -35 18 -44 7 -57 -16 -20 -59 -20 -88 0 -25 17 -30
64 -7 64 24 0 17 20 -7 22 -40 3 -53 5 -69 12 -21 9 -86 -8 -116 -29 -18 -12
-23 -26 -23 -57 0 -24 -9 -55 -22 -75 l-21 -35 23 7 c16 5 20 4 15 -5 -5 -8
-1 -8 13 1 28 18 37 6 18 -23 -8 -13 -22 -42 -30 -65 l-15 -41 42 19 c45 20
84 24 105 10 9 -5 -3 -10 -36 -15 -27 -3 -56 -14 -63 -22 -7 -9 -23 -20 -36
-25 -15 -6 -23 -17 -23 -33 0 -31 -21 -85 -27 -69 -2 6 0 27 5 46 12 43 1 57
-44 57 -24 0 -34 -5 -39 -20 -7 -21 -24 -24 -65 -9 -22 8 -22 8 8 5 27 -2 36
2 44 19 13 29 77 42 95 19 7 -10 13 -11 18 -5 3 6 1 11 -4 11 -6 0 -11 12 -11
26 0 19 -4 25 -15 21 -11 -5 -12 -1 -5 19 6 14 15 35 21 46 6 11 7 18 1 14 -5
-3 -15 -19 -21 -35 -12 -29 -13 -29 -88 -26 -51 2 -78 7 -83 16 -16 28 -65 88
-72 89 -5 0 -8 -12 -8 -28 0 -15 -7 -38 -16 -50 -19 -27 -20 -25 30 -46 54
-23 39 -30 -29 -15 -48 11 -55 15 -41 24 24 18 19 33 -10 27 -20 -4 -24 -9
-20 -24 4 -17 1 -19 -22 -13 -57 14 -157 22 -170 12 -7 -5 -16 -7 -19 -3 -12
12 20 26 62 26 35 1 37 2 16 11 -17 6 -21 14 -16 27 11 29 11 33 -7 45 -13 9
-38 4 -111 -21 -105 -35 -227 -45 -227 -18 0 10 21 15 78 18 51 3 111 16 176
38 96 32 101 33 155 20 31 -7 68 -14 84 -15 15 -1 30 -3 35 -5 4 -1 25 -1 47
-1 34 1 47 -5 83 -39 34 -32 50 -40 80 -40 46 0 49 2 100 71 40 52 54 99 32
99 -18 0 -11 29 10 40 24 13 26 30 4 30 -8 0 -13 3 -11 8 9 13 209 13 260 0z
m126 3 c8 -5 9 -11 3 -15 -13 -8 -42 3 -42 15 0 11 21 11 39 0z m-575 -25 c-3
-13 -1 -34 6 -45 12 -24 -1 -28 -43 -12 -22 8 -24 7 -21 -15 1 -13 -1 -24 -5
-24 -15 0 -72 61 -66 70 10 16 25 11 25 -7 1 -12 6 -8 17 12 10 18 18 25 21
17 3 -10 8 -7 19 7 8 12 23 21 34 21 15 0 18 -5 13 -24z m143 -2 c13 -12 14
-23 7 -52 -5 -19 -14 -37 -21 -39 -9 -3 -10 4 -2 29 5 18 9 34 9 35 0 2 -9 3
-20 3 -18 0 -19 3 -10 20 13 24 17 25 37 4z m156 -48 c-4 -28 -1 -39 21 -61
32 -32 32 -37 4 -33 -13 2 -23 10 -23 19 0 9 -7 24 -15 34 -13 16 -15 16 -27
-1 -12 -16 -13 -14 -13 18 0 26 5 38 23 46 34 16 36 15 30 -22z m-435 -2 c24
-16 20 -39 -4 -30 -8 3 -17 -1 -20 -8 -8 -21 -44 -28 -44 -8 0 13 -3 12 -14
-4 -14 -19 -15 -19 -36 4 -14 15 -30 22 -41 19 -11 -3 -19 -1 -19 3 0 9 40 20
95 25 20 2 39 6 42 9 9 9 17 7 41 -10z m730 -42 c5 -31 -15 -27 -21 3 -3 16 0
24 7 22 6 -2 12 -13 14 -25z m-8 -117 c0 -30 -4 -55 -10 -55 -5 0 -10 25 -10
55 0 30 5 55 10 55 6 0 10 -25 10 -55z m-51 6 c0 -10 -2 -11 -6 -3 -2 6 -11
12 -19 12 -9 0 -13 4 -9 10 9 14 35 0 34 -19z m-219 -3 c0 -16 -3 -19 -11 -11
-6 6 -8 16 -5 22 11 17 16 13 16 -11z m-815 -33 c-16 -8 -37 -14 -45 -14 -8 0
-1 7 15 14 17 8 37 14 45 14 8 0 2 -7 -15 -14z m103 3 c-5 -17 -94 -61 -110
-56 -7 3 4 13 25 23 22 10 41 24 44 32 7 17 46 17 41 1z m377 -37 c3 -5 1 -12
-4 -15 -5 -3 -11 1 -15 9 -6 16 9 21 19 6z m-517 -10 c10 -6 8 -10 -10 -14
-55 -15 -122 -4 -101 17 9 9 96 7 111 -3z m863 -64 c-8 -8 -11 -7 -11 4 0 20
13 34 18 19 3 -7 -1 -17 -7 -23z m-793 6 c-2 -11 -14 -19 -31 -21 -33 -4 -35
9 -4 24 32 17 39 16 35 -3z m130 -37 c96 -90 143 -207 124 -311 l-7 -39 -56
79 c-31 44 -54 82 -52 85 3 3 15 -7 27 -22 12 -16 25 -28 29 -28 9 0 -2 47
-20 82 -7 15 -41 51 -76 79 -67 56 -77 69 -53 69 8 0 41 -25 74 -55 57 -53 90
-104 111 -175 10 -34 11 -34 5 10 -2 25 -18 72 -33 106 -22 48 -42 71 -90 108
-33 26 -61 49 -61 52 0 17 38 -3 78 -40z m77 26 c0 -4 12 -19 26 -33 33 -32
69 -127 69 -181 0 -48 -12 -42 -30 17 -15 47 -69 154 -87 173 -16 17 -17 29 0
35 13 4 22 0 22 -11z m-357 -8 c14 -4 22 -14 22 -28 0 -17 -2 -18 -10 -6 -8
12 -11 13 -19 1 -7 -11 -10 -11 -17 0 -21 34 -15 43 24 33z m78 -11 c-1 -15
20 -33 80 -69 11 -7 16 -15 11 -20 -16 -17 -130 68 -120 91 7 21 31 19 29 -2z
m519 -3 c3 -6 -1 -7 -9 -4 -18 7 -21 14 -7 14 6 0 13 -4 16 -10z m-96 -37 c19
-76 34 -190 28 -215 -10 -37 -47 -35 -47 3 0 15 -3 42 -6 60 -7 37 10 31 19
-6 3 -11 5 3 5 30 1 50 -9 115 -23 148 -4 10 -3 17 4 17 5 0 15 -17 20 -37z
m511 27 c0 -5 -7 -10 -16 -10 -8 0 -12 5 -9 10 3 6 10 10 16 10 5 0 9 -4 9
-10z m-374 -151 c-13 -31 -14 -32 -15 -9 -1 14 5 43 11 65 l12 40 4 -31 c2
-17 -4 -47 -12 -65z m249 81 c-3 -5 -10 -10 -16 -10 -5 0 -9 5 -9 10 0 6 7 10
16 10 8 0 12 -4 9 -10z m40 -10 c3 -5 1 -10 -4 -10 -6 0 -11 5 -11 10 0 6 2
10 4 10 3 0 8 -4 11 -10z m-61 -26 c9 -23 -1 -34 -30 -34 -14 0 -22 4 -19 10
3 6 15 10 27 10 17 0 18 2 8 15 -7 9 -8 15 -2 15 5 0 13 -7 16 -16z m-258 -53
c-3 -27 -14 -73 -23 -102 -15 -48 -18 -51 -21 -25 -3 28 14 152 24 168 3 4 10
8 16 8 7 0 8 -17 4 -49z m231 -38 c-9 -9 -20 -13 -24 -9 -4 4 1 14 11 22 25
18 35 8 13 -13z m84 -24 c21 -18 22 -20 4 -14 -35 11 -40 10 -39 -7 1 -10 -2
-18 -6 -18 -15 0 -32 30 -26 45 8 21 40 19 67 -6z m59 -44 c0 -8 -4 -15 -10
-15 -5 0 -10 7 -10 15 0 8 5 15 10 15 6 0 10 -7 10 -15z m15 -105 c3 -5 1 -10
-4 -10 -6 0 -11 5 -11 10 0 6 2 10 4 10 3 0 8 -4 11 -10z m-29 -15 c12 -8 24
-11 28 -8 3 3 6 1 6 -5 0 -7 -4 -12 -9 -12 -5 0 -8 -8 -7 -17 1 -23 -33 -28
-59 -9 -16 12 -18 17 -7 27 17 18 15 27 -5 32 -12 3 -10 5 7 6 14 0 35 -6 46
-14z m-228 -6 c45 -9 50 -13 55 -42 6 -41 -10 -58 -58 -60 -26 -1 -41 3 -49
15 -17 28 4 40 42 26 25 -10 34 -10 44 0 9 9 6 12 -15 12 -16 0 -30 7 -34 15
-3 9 -20 22 -37 30 -38 17 -15 19 52 4z m-1 -125 c-3 -3 -12 -4 -19 -1 -8 3
-5 6 6 6 11 1 17 -2 13 -5z"/>
<path d="M3313 2675 c-6 -11 -13 -33 -17 -50 -6 -28 -5 -27 15 8 11 21 18 44
16 50 -2 7 -8 4 -14 -8z"/>
<path d="M3492 2655 c0 -16 2 -22 5 -12 2 9 2 23 0 30 -3 6 -5 -1 -5 -18z"/>
<path d="M3625 2610 c-10 -16 4 -30 28 -30 29 0 51 15 43 29 -9 14 -63 15 -71
1z"/>
<path d="M3521 2586 c-9 -10 -8 -15 4 -20 10 -4 15 1 15 14 0 24 -4 25 -19 6z"/>
<path d="M3345 2530 c3 -5 11 -10 16 -10 6 0 7 5 4 10 -3 6 -11 10 -16 10 -6
0 -7 -4 -4 -10z"/>
<path d="M3390 2502 c6 -13 14 -21 18 -18 3 4 -2 14 -12 24 -18 16 -18 16 -6
-6z"/>
<path d="M3242 2440 c0 -14 2 -19 5 -12 2 6 2 18 0 25 -3 6 -5 1 -5 -13z"/>
<path d="M4210 1291 c0 -14 38 -33 50 -26 14 9 12 27 -2 22 -7 -2 -21 0 -30 5
-12 5 -18 5 -18 -1z"/>
<path d="M3566 1152 c-3 -6 -1 -14 5 -17 15 -10 25 3 12 16 -7 7 -13 7 -17 1z"/>
<path d="M3611 1134 c0 -11 3 -14 6 -6 3 7 2 16 -1 19 -3 4 -6 -2 -5 -13z"/>
<path d="M4100 529 c0 -5 5 -7 10 -4 6 3 10 8 10 11 0 2 -4 4 -10 4 -5 0 -10
-5 -10 -11z"/>
<path d="M3890 540 c0 -5 4 -10 9 -10 6 0 13 5 16 10 3 6 -1 10 -9 10 -9 0
-16 -4 -16 -10z"/>
<path d="M410 4119 c-12 -23 -20 -42 -18 -44 2 -1 66 -35 143 -73 77 -39 133
-72 125 -72 -8 -1 -91 -9 -185 -18 l-169 -17 -23 -40 c-12 -22 -23 -43 -23
-47 0 -7 427 -218 441 -218 5 0 18 18 29 40 l21 40 -141 70 c-159 78 -161 73
25 90 210 19 199 15 224 68 18 36 20 47 9 51 -7 2 -107 51 -221 108 -114 56
-210 103 -212 103 -3 0 -14 -18 -25 -41z"/>
<path d="M3680 3593 c0 -13 29 -38 35 -31 3 3 -4 13 -15 23 -11 10 -20 13 -20
8z"/>
<path d="M141 3463 c-19 -68 -40 -56 186 -113 150 -37 170 -46 181 -79 11 -33
0 -86 -23 -111 -26 -29 -78 -25 -252 19 l-152 38 -11 -49 c-7 -27 -11 -50 -9
-52 9 -8 347 -86 371 -86 76 0 131 49 160 143 31 104 16 168 -53 219 -18 14
-348 107 -381 108 -4 0 -12 -17 -17 -37z"/>
<path d="M6366 3399 c-43 -37 -56 -79 -56 -180 0 -59 -4 -82 -18 -99 -25 -31
-66 -21 -92 23 -31 50 -26 93 14 133 l35 35 -17 44 c-9 25 -19 45 -23 45 -21
0 -93 -67 -106 -98 -34 -82 7 -232 77 -279 41 -29 111 -30 160 -5 51 28 69 71
76 191 5 67 12 108 21 117 24 24 42 15 67 -33 23 -46 20 -80 -10 -110 -25 -24
-25 -28 -14 -69 14 -49 22 -52 66 -25 85 52 82 215 -6 303 -34 34 -43 38 -88
38 -43 0 -57 -5 -86 -31z"/>
<path d="M3352 3351 c-7 -4 -24 -6 -38 -3 -32 6 -31 -14 1 -77 22 -45 79 -100
91 -88 3 3 -7 17 -21 33 -26 28 -30 64 -7 72 6 2 12 -3 12 -12 0 -9 5 -16 10
-16 19 0 11 48 -10 55 -23 7 -25 16 -8 33 9 9 9 12 -2 12 -8 0 -21 -4 -28 -9z"/>
<path d="M6355 2770 c-88 -4 -170 -8 -182 -9 -22 -1 -23 -4 -23 -108 0 -60 3
-145 7 -191 l6 -83 41 3 41 3 -4 138 -3 137 66 0 66 0 0 -97 c0 -135 3 -143
51 -143 l39 0 0 125 0 125 49 0 49 0 7 -107 c3 -60 7 -119 8 -133 2 -23 6 -25
42 -22 22 2 41 5 43 7 1 1 -1 83 -5 181 l-8 179 -65 1 c-36 0 -137 -2 -225 -6z"/>
<path d="M0 2680 c0 -33 4 -50 13 -50 6 -1 58 -5 115 -10 175 -16 250 -66 295
-194 7 -20 13 -312 17 -841 5 -553 11 -834 19 -885 37 -226 93 -353 209 -473
173 -177 415 -227 690 -140 148 46 239 112 469 337 l163 159 2 -269 3 -269 57
-3 c54 -3 80 6 450 158 216 89 395 163 397 166 3 3 -27 93 -34 102 -2 2 -31
-6 -66 -17 -80 -27 -172 -28 -219 -2 -54 28 -88 104 -100 221 -6 55 -10 509
-10 1078 l0 982 -451 0 -450 0 3 -52 3 -53 85 -7 c167 -12 244 -47 284 -131
15 -29 31 -80 36 -113 6 -34 10 -379 10 -836 l0 -776 -97 -91 c-165 -157 -322
-246 -481 -272 -175 -29 -365 57 -429 192 -60 126 -57 75 -60 1152 l-4 987
-459 0 -460 0 0 -50z"/>
<path d="M4375 2513 c0 -72 0 -73 18 -52 11 13 17 38 17 69 0 37 -4 49 -17 52
-16 4 -18 -4 -18 -69z"/>
<path d="M3695 2440 c-7 -11 3 -16 48 -23 15 -2 30 -1 32 4 5 7 -3 10 -57 25
-9 3 -19 0 -23 -6z"/>
<path d="M2990 2336 c0 -8 46 -56 102 -107 56 -52 99 -86 95 -76 -4 10 -7 22
-7 26 0 4 -29 29 -65 55 -36 26 -65 52 -65 57 0 11 49 1 67 -13 13 -11 33 -3
33 13 0 14 -100 59 -132 59 -17 0 -28 -5 -28 -14z"/>
<path d="M4354 2247 c-30 -44 -48 -101 -40 -122 6 -16 9 -16 29 -3 28 19 43
51 51 111 7 57 -9 63 -40 14z"/>
<path d="M6362 2151 c-266 -50 -243 -40 -257 -122 l-5 -35 232 -127 233 -126
9 45 c4 24 6 50 3 58 -3 8 -79 51 -169 97 -90 45 -158 84 -153 85 6 2 88 17
184 33 99 18 178 36 183 43 4 7 8 22 8 33 0 11 3 30 6 43 8 28 20 30 -274 -27z"/>
<path d="M3071 1965 c0 -11 6 -31 14 -45 8 -14 14 -34 14 -45 0 -11 -3 -14 -6
-7 -4 11 -53 18 -53 8 0 -3 14 -18 30 -35 l31 -30 9 25 c14 35 13 43 -14 99
-15 31 -25 42 -25 30z"/>
<path d="M6038 1631 c-5 -14 -10 -37 -11 -50 -2 -23 9 -28 223 -98 124 -40
230 -71 236 -69 10 4 39 85 32 91 -2 1 -108 36 -236 78 l-233 75 -11 -27z"/>
<path d="M5885 1240 c-41 -82 -75 -154 -75 -160 0 -9 70 -44 75 -38 2 2 27 51
56 110 l54 107 183 -89 182 -89 21 40 c11 22 19 44 17 49 -3 8 -421 220 -434
220 -2 0 -38 -67 -79 -150z"/>
<path d="M4240 1049 c-6 -13 -17 -35 -25 -49 -19 -32 -20 -90 -2 -90 25 0 47
36 47 76 0 22 5 45 10 50 8 8 6 15 -4 24 -13 10 -17 8 -26 -11z"/>
<path d="M5604 813 c-54 -75 -100 -140 -102 -144 -5 -12 69 -53 77 -42 62 93
136 183 146 179 7 -2 82 -55 166 -117 l153 -112 28 34 c15 18 28 38 28 44 0 9
-381 295 -393 295 -2 0 -48 -62 -103 -137z"/>
<path d="M3081 912 c-15 -5 -57 -39 -75 -60 -6 -7 -19 -22 -28 -32 -13 -15
-14 -21 -4 -36 16 -21 36 -10 36 20 0 32 28 56 41 35 13 -21 11 -29 -7 -22
-12 4 -15 2 -12 -8 6 -19 35 -24 53 -9 18 15 20 67 3 73 -10 3 -10 8 1 21 16
19 13 26 -8 18z"/>
<path d="M3112 830 c-6 -17 -26 -50 -44 -72 -23 -29 -34 -56 -39 -96 -4 -31
-7 -58 -5 -59 2 -2 14 5 27 15 22 18 22 22 10 62 -14 49 -10 57 23 42 23 -10
24 -9 31 36 4 26 11 54 15 63 5 8 5 21 1 28 -6 9 -12 3 -19 -19z"/>
<path d="M3146 796 c-11 -46 -1 -54 89 -73 10 -2 30 -10 43 -19 18 -12 30 -13
52 -6 16 6 31 8 34 5 3 -4 6 -2 6 3 0 24 -159 114 -199 114 -12 0 -21 -9 -25
-24z"/>
<path d="M4170 795 c-7 -8 -10 -25 -6 -40 8 -31 62 -93 72 -83 4 5 0 16 -9 26
-22 24 -21 35 2 27 15 -5 20 1 25 30 4 19 4 40 1 45 -10 15 -71 12 -85 -5z"/>
<path d="M2942 749 c-25 -9 -24 -23 2 -78 19 -41 34 -36 42 14 8 56 -7 78 -44
64z"/>
<path d="M3183 706 c22 -17 22 -26 -3 -26 -15 0 -20 -7 -20 -28 0 -41 -54
-112 -84 -112 -13 0 -26 6 -29 13 -3 6 -4 -4 -3 -23 1 -29 -3 -36 -21 -38 -16
-2 -23 2 -23 12 0 9 5 16 10 16 6 0 10 7 10 15 0 23 -18 18 -36 -10 -20 -31
-14 -49 26 -73 16 -10 28 -21 25 -24 -9 -9 136 -14 220 -7 44 3 72 6 62 7 -21
2 -71 54 -94 96 -11 21 -13 43 -9 75 6 43 5 45 -11 28 -13 -13 -18 -34 -18
-78 0 -49 -4 -64 -24 -84 -22 -24 -61 -34 -61 -17 0 5 11 19 25 32 14 13 25
30 25 39 0 11 -4 9 -16 -7 -8 -12 -24 -26 -34 -32 -17 -9 -19 -8 -13 7 3 10
18 36 33 58 14 22 39 61 54 88 15 26 31 47 37 47 5 0 24 -7 41 -16 25 -13 32
-13 39 -3 12 20 3 27 -53 44 -63 18 -79 19 -55 1z m-93 -266 c0 -5 -10 -10
-22 -10 -19 0 -20 2 -8 10 19 13 30 13 30 0z"/>
<path d="M3257 619 c-3 -12 -2 -31 3 -43 17 -45 108 -102 128 -81 4 4 1 10 -6
12 -7 3 -18 10 -25 16 -7 7 -22 17 -32 23 -11 6 -27 30 -35 52 -16 47 -25 52
-33 21z"/>
<path d="M3600 635 c0 -15 24 -54 31 -49 10 6 -10 54 -23 54 -4 0 -8 -2 -8 -5z"/>
<path d="M3577 577 c-11 -29 -9 -53 4 -40 6 6 9 21 7 34 -3 21 -4 22 -11 6z"/>
<path d="M5388 528 c-44 -35 -45 -40 -18 -103 l20 -47 -57 -51 c-92 -85 -87
-83 -144 -53 l-49 27 -40 -32 c-22 -18 -40 -36 -40 -41 0 -11 448 -228 471
-228 22 0 79 47 79 65 0 11 -177 485 -183 491 -1 1 -19 -11 -39 -28z m102
-405 c0 -2 -37 15 -82 38 l-83 42 50 43 49 44 33 -82 c18 -45 33 -83 33 -85z"/>
<path d="M2929 504 c-6 -25 0 -54 12 -54 11 0 11 27 0 54 -8 20 -8 20 -12 0z"/>
<path d="M3487 486 c-43 -16 -121 -65 -114 -72 7 -8 87 8 87 17 0 5 7 9 16 9
10 0 14 -5 10 -15 -5 -14 3 -16 52 -13 49 3 57 5 54 22 -3 17 -2 17 24 -3 19
-15 41 -21 78 -21 l51 0 -25 20 c-14 10 -22 22 -18 25 9 9 48 -17 48 -32 0 -7
5 -13 10 -13 6 0 10 9 10 20 0 13 -11 25 -32 34 -29 12 -35 11 -51 -3 -19 -16
-43 -10 -147 32 -8 3 -32 0 -53 -7z"/>
</g>
</svg>
