<?xml version="1.0" encoding="utf-8"?>
<!-- Generator: Adobe Illustrator 25.0.1, SVG Export Plug-In . SVG Version: 6.00 Build 0)  -->
<!DOCTYPE svg PUBLIC "-//W3C//DTD SVG 1.1//EN" "http://www.w3.org/Graphics/SVG/1.1/DTD/svg11.dtd" [
	<!ENTITY st0 "fill:#000000;">
]>
<svg version="1.1" id="Layer_1" xmlns="http://www.w3.org/2000/svg" xmlns:xlink="http://www.w3.org/1999/xlink" x="0px" y="0px"
	 viewBox="0 0 138 48" style="enable-background:new 0 0 138 48;" xml:space="preserve">
<g>
	<path style="&st0;" d="M62,32.6V15.4h4.7v13.5h7v3.8H62z"/>
	<path style="&st0;" d="M89.8,24c0,1.9-0.4,3.5-1.1,4.8c-0.7,1.3-1.8,2.3-3,3c-1.3,0.7-2.7,1-4.2,1c-1.6,0-3-0.3-4.2-1
		c-1.3-0.7-2.3-1.7-3-3c-0.7-1.3-1.1-2.9-1.1-4.8c0-1.9,0.4-3.5,1.1-4.8c0.7-1.3,1.7-2.3,3-3c1.3-0.7,2.7-1,4.2-1c1.6,0,3,0.3,4.2,1
		c1.3,0.7,2.3,1.7,3,3C89.5,20.5,89.8,22.1,89.8,24z M85,24c0-1-0.1-1.9-0.4-2.6c-0.3-0.7-0.7-1.2-1.2-1.6c-0.5-0.4-1.2-0.6-2-0.6
		c-0.8,0-1.4,0.2-2,0.6c-0.5,0.4-0.9,0.9-1.2,1.6C78,22.1,77.9,23,77.9,24c0,1,0.1,1.9,0.4,2.6c0.3,0.7,0.7,1.2,1.2,1.6
		c0.5,0.4,1.2,0.6,2,0.6c0.8,0,1.4-0.2,2-0.6c0.5-0.4,0.9-0.9,1.2-1.6C84.9,25.9,85,25,85,24z"/>
	<path style="&st0;" d="M102,21.1c-0.1-0.3-0.2-0.6-0.3-0.8c-0.2-0.2-0.4-0.4-0.6-0.6c-0.2-0.2-0.5-0.3-0.8-0.4s-0.6-0.1-1-0.1
		c-0.8,0-1.5,0.2-2,0.6c-0.6,0.4-1,0.9-1.3,1.6c-0.3,0.7-0.4,1.6-0.4,2.6c0,1,0.1,1.9,0.4,2.6c0.3,0.7,0.7,1.3,1.2,1.6
		c0.5,0.4,1.2,0.6,2,0.6c0.7,0,1.3-0.1,1.8-0.3s0.8-0.5,1.1-0.9c0.2-0.4,0.4-0.8,0.4-1.3l0.8,0.1h-3.9V23h7.6v2.4c0,1.6-0.3,2.9-1,4
		c-0.7,1.1-1.6,2-2.7,2.6c-1.2,0.6-2.5,0.9-4,0.9c-1.7,0-3.1-0.4-4.4-1.1c-1.3-0.7-2.3-1.7-3-3c-0.7-1.3-1.1-2.9-1.1-4.7
		c0-1.4,0.2-2.7,0.7-3.8c0.4-1.1,1-2,1.8-2.8c0.8-0.8,1.7-1.3,2.7-1.7c1-0.4,2.1-0.6,3.3-0.6c1,0,2,0.1,2.8,0.4s1.7,0.7,2.3,1.2
		c0.7,0.5,1.2,1.2,1.6,1.9c0.4,0.7,0.7,1.5,0.8,2.4H102z"/>
	<path style="&st0;" d="M124.6,24c0,1.9-0.4,3.5-1.1,4.8c-0.7,1.3-1.8,2.3-3,3c-1.3,0.7-2.7,1-4.2,1c-1.6,0-3-0.3-4.2-1
		c-1.3-0.7-2.3-1.7-3-3c-0.7-1.3-1.1-2.9-1.1-4.8c0-1.9,0.4-3.5,1.1-4.8c0.7-1.3,1.7-2.3,3-3c1.3-0.7,2.7-1,4.2-1c1.6,0,3,0.3,4.2,1
		c1.3,0.7,2.3,1.7,3,3C124.2,20.5,124.6,22.1,124.6,24z M119.8,24c0-1-0.1-1.9-0.4-2.6c-0.3-0.7-0.7-1.2-1.2-1.6
		c-0.5-0.4-1.2-0.6-2-0.6c-0.8,0-1.4,0.2-2,0.6c-0.5,0.4-0.9,0.9-1.2,1.6c-0.3,0.7-0.4,1.6-0.4,2.6c0,1,0.1,1.9,0.4,2.6
		c0.3,0.7,0.7,1.2,1.2,1.6c0.5,0.4,1.2,0.6,2,0.6c0.8,0,1.4-0.2,2-0.6c0.5-0.4,0.9-0.9,1.2-1.6C119.7,25.9,119.8,25,119.8,24z"/>
</g>
<g>
	<g>
		<polygon style="&st0;" points="33.7,36.8 19,36.8 19,8 16.5,8 16.5,36.6 13.4,36.6 13.4,4.9 22.1,4.9 22.1,33.7 33.7,33.7 		"/>
	</g>
	<g>
		<polygon style="&st0;" points="46.3,43.1 13.4,43.1 13.4,40 43.2,40 43.2,8 28.2,8 28.2,27.4 40,27.4 40,36.6 36.9,36.6 
			36.9,30.5 25.1,30.5 25.1,4.9 46.3,4.9 		"/>
	</g>
</g>
</svg>
