<?xml version="1.0" standalone="no"?>
<!DOCTYPE svg PUBLIC "-//W3C//DTD SVG 20010904//EN"
 "http://www.w3.org/TR/2001/REC-SVG-20010904/DTD/svg10.dtd">
<svg version="1.0" xmlns="http://www.w3.org/2000/svg"
 width="270.000000pt" height="270.000000pt" viewBox="0 0 270.000000 270.000000"
 preserveAspectRatio="xMidYMid meet">
<metadata>
Created by potrace 1.14, written by Peter Selinger 2001-2017
</metadata>
<g transform="translate(0.000000,270.000000) scale(0.100000,-0.100000)"
fill="#000000" stroke="none">
<path d="M507 2423 c-10 -10 -8 -51 3 -58 5 -3 37 2 72 11 58 15 66 15 100 1
43 -18 78 -68 78 -112 0 -44 -35 -94 -78 -112 -34 -15 -42 -14 -101 1 -71 18
-84 13 -79 -30 4 -35 24 -42 133 -43 53 -1 104 6 150 19 38 11 82 20 96 20 64
0 130 -85 115 -146 -4 -15 -22 -42 -41 -61 -40 -40 -74 -42 -184 -13 -82 22
-175 26 -234 9 -36 -10 -38 -12 -35 -47 l3 -37 372 -3 372 -2 3 -28 c3 -24 7
-27 38 -25 86 5 150 -47 150 -121 0 -75 -62 -129 -142 -124 -39 3 -43 1 -46
-21 -2 -13 1 -28 7 -34 17 -17 121 -11 209 13 97 26 137 22 176 -19 60 -62 38
-162 -43 -194 -36 -15 -44 -14 -132 9 -62 16 -114 24 -154 22 l-60 -3 -3 -42
c-3 -46 -4 -46 60 -43 94 4 157 -95 114 -179 -22 -41 -56 -59 -117 -63 -53 -3
-54 -4 -54 -33 0 -30 0 -30 63 -33 41 -2 88 4 135 18 120 33 170 24 208 -37
42 -68 -1 -165 -78 -179 -22 -4 -64 1 -116 15 -55 15 -103 21 -147 19 l-65 -3
0 -40 0 -40 54 -3 c61 -4 95 -22 117 -63 43 -84 -20 -183 -114 -179 -59 3 -62
2 -62 -30 0 -24 5 -31 26 -36 36 -9 124 3 211 28 66 19 76 20 110 7 45 -17 83
-69 83 -113 0 -44 -34 -95 -77 -112 -34 -15 -43 -14 -137 10 -99 25 -168 32
-200 20 -11 -4 -16 -19 -16 -50 l0 -44 303 2 302 3 3 862 2 863 368 2 367 3 3
303 2 302 -1043 0 c-574 0 -1047 -3 -1050 -7z m2033 -298 l0 -235 -349 0
c-337 0 -349 -1 -375 -21 l-26 -20 0 -850 0 -849 -35 0 c-41 0 -39 -3 -20 43
38 90 -3 199 -90 245 -16 8 -55 16 -86 16 l-57 1 5 55 c4 36 0 67 -9 90 l-15
35 72 0 c81 0 123 21 166 83 36 53 34 153 -3 209 -37 56 -101 86 -172 81 -48
-3 -53 -1 -45 14 13 25 11 104 -4 141 l-14 32 77 0 c69 0 80 3 114 29 125 95
85 296 -67 337 -23 6 -55 9 -72 6 l-30 -5 0 77 c0 70 -3 81 -28 114 -36 47
-65 66 -113 74 -24 4 -49 17 -66 35 -26 28 -27 28 -143 28 -108 0 -117 1 -110
18 23 55 26 86 14 134 -22 94 -109 156 -203 146 l-44 -5 10 35 c10 36 7 90 -7
125 -7 16 38 17 859 17 l866 0 0 -235z"/>
<path d="M119 2319 c-31 -31 -23 -98 13 -119 25 -13 35 -13 118 9 112 29 192
30 293 2 96 -26 122 -26 147 -1 43 43 13 130 -45 130 -14 0 -60 -10 -102 -22
-97 -27 -193 -26 -288 1 -88 26 -110 26 -136 0z"/>
<path d="M351 2044 c-25 -31 -27 -61 -6 -91 23 -33 59 -36 138 -11 96 29 215
29 317 0 93 -27 96 -27 125 3 49 49 20 125 -47 125 -18 0 -66 -9 -107 -20 -95
-25 -178 -25 -266 0 -96 28 -129 26 -154 -6z"/>
<path d="M806 1699 c-51 -40 -23 -129 42 -129 15 0 59 9 97 20 40 11 100 20
140 20 40 0 100 -9 140 -20 86 -25 127 -25 147 -2 25 29 29 51 14 87 -20 47
-49 52 -149 24 -104 -29 -206 -29 -302 0 -87 26 -96 26 -129 0z"/>
<path d="M1037 1432 c-19 -21 -22 -73 -7 -102 16 -30 56 -32 138 -9 104 30
194 30 310 0 l92 -25 28 21 c56 41 32 133 -35 133 -16 0 -61 -9 -102 -20 -95
-25 -187 -25 -279 0 -89 25 -124 25 -145 2z"/>
<path d="M801 1141 c-31 -31 -25 -87 11 -114 l26 -20 108 28 c122 31 174 30
302 -6 61 -17 79 -19 102 -9 71 29 51 140 -24 140 -17 0 -64 -9 -105 -20 -90
-24 -177 -25 -251 -5 -100 29 -145 30 -169 6z"/>
<path d="M1046 879 c-20 -16 -26 -29 -26 -58 0 -73 45 -86 172 -51 92 25 164
25 259 0 95 -25 141 -26 163 -1 26 29 18 89 -16 114 l-26 20 -108 -28 c-122
-31 -190 -30 -304 5 -81 25 -81 25 -114 -1z"/>
<path d="M806 589 c-30 -24 -35 -72 -10 -107 19 -28 60 -29 156 -2 91 25 172
25 268 0 118 -31 153 -25 173 32 10 29 -12 75 -42 88 -22 9 -45 6 -125 -15
-122 -31 -159 -31 -280 0 -116 30 -107 30 -140 4z"/>
<path d="M1039 319 c-31 -31 -23 -98 13 -119 25 -13 35 -13 118 9 111 29 190
29 297 2 101 -26 118 -26 143 -1 41 41 14 130 -41 130 -11 0 -57 -10 -102 -22
-102 -26 -199 -26 -292 1 -88 26 -110 26 -136 0z"/>
</g>
</svg>
