<?xml version="1.0" encoding="utf-8"?>
<!-- Generator: Adobe Illustrator 25.0.1, SVG Export Plug-In . SVG Version: 6.00 Build 0)  -->
<svg version="1.1" id="Layer_1" xmlns="http://www.w3.org/2000/svg" xmlns:xlink="http://www.w3.org/1999/xlink" x="0px" y="0px"
	 viewBox="0 0 50 50" enable-background="new 0 0 50 50" xml:space="preserve">
<linearGradient id="SVGID_1_" gradientUnits="userSpaceOnUse" x1="-1.1643" y1="-10.0292" x2="37.743" y2="42.0605">
	<stop  offset="0" style="stop-color:#93C5FD"/>
	<stop  offset="1" style="stop-color:#4F46E5"/>
</linearGradient>
<circle fill="url(#SVGID_1_)" cx="25" cy="25" r="24.3"/>
<path fill="#93C5FD" d="M25,2V0C11.2,0,0,11.2,0,25h2C2,12.3,12.3,2,25,2z"/>
<path fill="#4F46E5" d="M25,0v2c12.7,0,23,10.3,23,23h2C50,11.2,38.8,0,25,0z"/>
<path fill="#93C5FD" d="M25,48v2c13.8,0,25-11.2,25-25h-2C48,37.7,37.7,48,25,48z"/>
<path fill="#4F46E5" d="M2,25H0c0,13.8,11.2,25,25,25v-2C12.3,48,2,37.7,2,25z"/>
<path fill="#FFFFFF" d="M19,40.3c-0.5,0-0.9,0.4-0.9,0.9c0,0.5,0.4,0.9,0.9,0.9c0.2,0,1.1-0.3,1.5-0.4c1.1-0.3,2.1-0.3,3.2,0
	c0.4,0.1,1.4,0.4,1.6,0.4c0.5,0,0.9-0.4,0.9-0.9c0-0.5-0.4-0.9-0.9-0.9c-0.2,0-1.2,0.3-1.6,0.4c-1.1,0.3-2.1,0.3-3.2,0
	C20.1,40.6,19.2,40.3,19,40.3 M15.8,36.8c-0.5,0-0.9,0.4-0.9,0.9c0,0.5,0.4,0.9,0.9,0.9c0.2,0,1.1-0.3,1.5-0.4
	c1.1-0.3,2.1-0.3,3.2,0c0.4,0.1,1.4,0.4,1.6,0.4c0.5,0,0.9-0.4,0.9-0.9c0-0.5-0.4-0.9-0.9-0.9c-0.2,0-1.2,0.3-1.6,0.4
	c-1.1,0.3-2.1,0.3-3.2,0C16.9,37.1,16,36.8,15.8,36.8z M19,25.4c-0.5,0-0.9,0.4-0.9,0.9c0,0.5,0.4,0.9,0.9,0.9
	c0.2,0,1.1-0.3,1.5-0.4c1.1-0.3,2.1-0.3,3.2,0c0.4,0.1,1.4,0.4,1.6,0.4c0.5,0,0.9-0.4,0.9-0.9c0-0.5-0.4-0.9-0.9-0.9
	c-0.2,0-1.2,0.3-1.6,0.4c-1.1,0.3-2.1,0.3-3.2,0C20.1,25.7,19.2,25.4,19,25.4z M15.8,21.8c-0.5,0-0.9,0.4-0.9,0.9s0.4,0.9,0.9,0.9
	c0.2,0,1.1-0.3,1.5-0.4c1.1-0.3,2.1-0.3,3.2,0c0.4,0.1,1.4,0.4,1.6,0.4c0.5,0,0.9-0.4,0.9-0.9s-0.4-0.9-0.9-0.9
	c-0.2,0-1.2,0.3-1.6,0.4c-1.1,0.3-2.1,0.3-3.2,0C16.9,22.1,16,21.8,15.8,21.8z M9.8,17.1c-0.5,0-0.9,0.4-0.9,0.9s0.4,0.9,0.9,0.9
	c0.2,0,1.1-0.3,1.5-0.4c1.1-0.3,2.1-0.3,3.2,0c0.4,0.1,1.4,0.4,1.6,0.4c0.5,0,0.9-0.4,0.9-0.9c0-0.5-0.4-0.9-0.9-0.9
	c-0.2,0-1.2,0.3-1.6,0.4c-1.1,0.3-2.1,0.3-3.2,0C10.9,17.4,10,17.1,9.8,17.1z M6.6,13.5c-0.5,0-0.9,0.4-0.9,0.9
	c0,0.5,0.4,0.9,0.9,0.9c0.2,0,1.1-0.3,1.5-0.4c1.1-0.3,2.1-0.3,3.2,0c0.4,0.1,1.4,0.4,1.6,0.4c0.5,0,0.9-0.4,0.9-0.9
	s-0.4-0.9-0.9-0.9c-0.2,0-1.2,0.3-1.6,0.4c-1.1,0.3-2.1,0.3-3.2,0C7.7,13.8,6.8,13.5,6.6,13.5z M19,32.9c-0.5,0-0.9,0.4-0.9,0.9
	c0,0.5,0.4,0.9,0.9,0.9c0.2,0,1.1-0.3,1.5-0.4c1.1-0.3,2.1-0.3,3.2,0c0.4,0.1,1.4,0.4,1.6,0.4c0.5,0,0.9-0.4,0.9-0.9
	c0-0.5-0.4-0.9-0.9-0.9c-0.2,0-1.2,0.3-1.6,0.4c-1.1,0.3-2.1,0.3-3.2,0C20.1,33.2,19.2,32.9,19,32.9z M29.2,43.4V20.5
	c0-0.1,0.1-0.3,0.3-0.3h9.6c0.1,0,0.3-0.1,0.3-0.3v-7.5c0-0.1-0.1-0.3-0.3-0.3H11.4c-0.1,0-0.3,0.1-0.3,0.3v0.2c0,0.1,0,0.2,0.1,0.2
	s0.1,0.1,0.2,0c0.5-0.1,1-0.3,1.4-0.3c0.9,0,1.7,0.8,1.7,1.7s-0.8,1.7-1.7,1.7c-0.4,0-1-0.2-1.4-0.3c-0.1,0-0.2,0-0.2,0
	c-0.1,0-0.1,0.1-0.1,0.2v0.3c0,0.1,0.1,0.2,0.2,0.3l0.2,0c1,0.3,1.9,0.3,2.8,0c0.5-0.1,1.3-0.4,1.8-0.4c0.9,0,1.7,0.8,1.7,1.7
	c0,0.9-0.8,1.7-1.7,1.7c-0.4,0-1.3-0.3-1.8-0.4c-1.1-0.3-2-0.2-3,0c-0.1,0-0.2,0.1-0.2,0.3V20c0,0.1,0.1,0.3,0.3,0.3H21
	c0.1,0,0.3,0.1,0.3,0.3v0.3c0,0.1,0,0.2,0.1,0.2c0.1,0,0.1,0.1,0.2,0c0.2,0,0.4-0.1,0.6-0.1c0.9,0,1.7,0.8,1.7,1.7
	c0,0.9-0.8,1.7-1.7,1.7c-0.1,0-0.3,0-0.6-0.1c-0.1,0-0.2,0-0.2,0s-0.1,0.1-0.1,0.2v0.3c0,0.1,0.1,0.2,0.2,0.3c0.7,0.1,1.4,0,2.1-0.1
	c0.5-0.1,1.3-0.4,1.8-0.4c0.9,0,1.7,0.8,1.7,1.7c0,0.9-0.8,1.7-1.7,1.7c-0.4,0-1.3-0.3-1.8-0.4c-0.7-0.2-1.4-0.2-2.1-0.1
	c-0.1,0-0.2,0.1-0.2,0.3v0.6c0,0.1,0,0.2,0.1,0.2s0.1,0.1,0.2,0c0.2,0,0.4-0.1,0.6-0.1c0.9,0,1.7,0.8,1.7,1.7S23,32,22.1,32
	c-0.1,0-0.3,0-0.6-0.1c-0.1,0-0.2,0-0.2,0c-0.1,0-0.1,0.1-0.1,0.2v0.3c0,0.1,0.1,0.2,0.2,0.3c0.7,0.1,1.4,0,2.1-0.1
	c0.5-0.1,1.3-0.4,1.8-0.4c0.9,0,1.7,0.8,1.7,1.7s-0.8,1.7-1.7,1.7c-0.4,0-1.3-0.3-1.8-0.4c-0.7-0.2-1.4-0.2-2.1-0.1
	c-0.1,0-0.2,0.1-0.2,0.3v0.6c0,0.1,0,0.2,0.1,0.2c0.1,0,0.1,0.1,0.2,0c0.2,0,0.4-0.1,0.6-0.1c0.9,0,1.7,0.8,1.7,1.7
	c0,0.9-0.8,1.7-1.7,1.7c-0.1,0-0.3,0-0.6-0.1c-0.1,0-0.2,0-0.2,0c-0.1,0-0.1,0.1-0.1,0.2v0.3c0,0.1,0.1,0.2,0.2,0.3
	c0.7,0.1,1.4,0,2.1-0.1c0.5-0.1,1.3-0.4,1.8-0.4c0.9,0,1.7,0.8,1.7,1.7S26.2,43,25.3,43c-0.4,0-1.3-0.3-1.8-0.4
	c-0.7-0.2-1.4-0.2-2.1-0.1c-0.1,0-0.2,0.1-0.2,0.3v0.7c0,0.1,0.1,0.3,0.3,0.3H29C29.1,43.6,29.2,43.5,29.2,43.4z M27.8,33.8
	c0-1.4-1.1-2.5-2.5-2.5c-0.3,0-0.7,0.1-1,0.2c0.2-0.4,0.3-0.8,0.3-1.3c0-0.6-0.2-1.2-0.6-1.6c0.4,0.1,0.9,0.3,1.3,0.3
	c1.4,0,2.5-1.1,2.5-2.5s-1.1-2.5-2.5-2.5c-0.3,0-0.7,0.1-1,0.2c0.2-0.4,0.3-0.8,0.3-1.3c0-1.4-1.1-2.5-2.5-2.5l-0.1,0
	c-0.1-0.4-0.5-0.8-1-0.8h-2.9c0.3-0.4,0.5-0.9,0.5-1.5c0-1.4-1.1-2.5-2.5-2.5c-0.3,0-0.7,0.1-1,0.2c0.2-0.4,0.3-0.8,0.3-1.3
	c0-0.5-0.1-1-0.4-1.4h23.5v6.4h-9c-0.6,0-1,0.5-1,1v22.3h-1.2c0.3-0.4,0.6-1,0.6-1.6c0-1.4-1.1-2.5-2.5-2.5c-0.3,0-0.7,0.1-1,0.2
	c0.2-0.4,0.3-0.8,0.3-1.3c0-0.6-0.2-1.2-0.6-1.6c0.4,0.1,0.9,0.3,1.3,0.3C26.7,36.3,27.8,35.2,27.8,33.8z M15.8,29.3
	c-0.5,0-0.9,0.4-0.9,0.9c0,0.5,0.4,0.9,0.9,0.9c0.2,0,1.1-0.3,1.5-0.4c1.1-0.3,2.1-0.3,3.2,0c0.4,0.1,1.4,0.4,1.6,0.4
	c0.5,0,0.9-0.4,0.9-0.9s-0.4-0.9-0.9-0.9c-0.2,0-1.2,0.3-1.6,0.4c-1.1,0.3-2.1,0.3-3.2,0C16.9,29.6,16,29.3,15.8,29.3z"/>
</svg>
